<svg xmlns="http://www.w3.org/2000/svg" viewBox="0 0 76.81 87.9"><defs><style>.cls-1{fill:#1b66aa;}.cls-2{fill:none;stroke:#1d66ab;stroke-miterlimit:10;stroke-width:3px;}</style></defs><title>15</title><g id="Calque_2" data-name="Calque 2"><g id="Calque_1-2" data-name="Calque 1"><path class="cls-1" d="M76.3,57.24a12.47,12.47,0,0,0-1.18.68c-4,2.81-4,2.81-6.74-1-.37-.5-.64-1.25-1.42-1s-.79,1-.9,1.58c-.67,4-2,7.92-2.16,12a7.58,7.58,0,0,1-2.56,5.54c-2.43,2.12-5.47,1.26-6.38-1.7-.6-2,.24-4.21-.58-5.89s-3.53-1-4.72-2.64c-2.09-2.88-5.87-3.93-7.52-7.39-1.22-2.57-1.6-4.93-.54-7.55.35-.84.58-1.72.91-2.56,1.68-4.42,1.88-4.46,4.79-1,1.62,1.91,3.63,1.62,4.27-.83A7.11,7.11,0,0,1,56,40.44c3.93-1.71,4.44-2.94,3.39-7.24-.26-1.06-.51-2.11-.76-3.17,9.27,4,14.69,11.15,17.09,20.75a17.58,17.58,0,0,1,.55,6.46"/><path class="cls-1" d="M17.41,65.46c2-.8,4-1.67,6.05-2.4s3.8.14,3.67,2.42c-.28,4.7,2.25,6.85,6.29,8.26s7.13,3.67,7.9,8.17a5.4,5.4,0,0,1-1.09,4.79c-10.91-2-20.64-11.09-22.82-21.24"/><path class="cls-1" d="M30.57,31.69c2.92,4.39,2.6,8-1,11.74-1.83,1.9-4.27,3.45-3.32,6.84.28,1-.78,2-1.87,2.43-2.71,1.06-5.43,2-8.14,3.07Q17.15,40,30.57,31.69"/><circle class="cls-2" cx="45.66" cy="56.74" r="29.66"/><g id="icone"><path class="cls-1" d="M61.56,3.86,55.5,8.93c-6.53,5.47-13,11-19.66,16.33a1.51,1.51,0,0,1-1.13.37l-22-1.7c-3.45-.27-6.89-.57-10.34-.85H1.85c-.57-.23-1.2,0-1.85-.28l1.86-1.66,7.55-6.27L26.8.33A1.18,1.18,0,0,1,27.75,0l25,1.91,6.47.51,3.54.3Z"/><path class="cls-1" d="M9.35,48.37c-.26-1.5-.76-2.95-.95-4.47-.1-.85-.21-1.73-.32-2.59-.05-.34,0-.5.4-.43a3.41,3.41,0,0,0,3.4-1.21c.33-.38.44-.06.59.18a18,18,0,0,1,2.92,8.07,5.13,5.13,0,0,0,.26,1.16,35.27,35.27,0,0,1,1.19,3.83A9.38,9.38,0,0,1,17,54.74a.82.82,0,0,1-.18.52.46.46,0,0,1-.3.13c-.15,0-.13-.17-.12-.28s0-.24,0-.36c0-.4-.28-.43-.58-.42s-.25.31-.23.51.22.43,0,.6-.43,0-.64-.11c-.61-.18-1.32-.18-1.66-.89,0,.31.09.63.12,1s0,.39-.21.47a.52.52,0,0,1-.53-.12,3.31,3.31,0,0,1-.69-1A35.91,35.91,0,0,1,9.35,48.37Z"/><path class="cls-1" d="M54.33,12.66a1.59,1.59,0,0,1,.43.82c1.29,4,2.59,7.91,3.78,11.89a2.35,2.35,0,0,1-.23,1.95A25.3,25.3,0,0,1,53.79,33a32.2,32.2,0,0,1-17.2,9.23,34.11,34.11,0,0,1-16.54-1,.31.31,0,0,1-.13,0c-3.67-1.54-2.94-.85-4-4.11s-2.07-6.45-3.09-9.67c-.08-.23-.13-.45-.21-.68-.17-.5-.06-.71.53-.66,2.16.19,4.32.33,6.48.49l12.68.93c.94.07,1.89.07,2.82.22a2,2,0,0,0,1.77-.57q8.38-7,16.8-13.94Z"/><path class="cls-1" d="M7.31,37.78a1.83,1.83,0,0,1,.43-1.31,1.13,1.13,0,0,0,.16-1.23C7,32.36,6.07,29.47,5.19,26.57c-.09-.32-.58-.8,0-1.06s.92,0,1.17.79c.91,2.86,1.83,5.72,2.73,8.59a1.13,1.13,0,0,0,.85.87A2.18,2.18,0,0,1,11.5,38.4a1.6,1.6,0,0,1-.1.31A2.05,2.05,0,0,1,8.78,40l-.08,0A2.23,2.23,0,0,1,7.31,37.78Z"/></g></g></g></svg>