<svg xmlns="http://www.w3.org/2000/svg" viewBox="0 0 75.72 86.91"><defs><style>.cls-1{fill:none;stroke:#1b66aa;stroke-miterlimit:10;stroke-width:3px;}.cls-2{fill:#1b66aa;}</style></defs><title>30M</title><g id="Calque_2" data-name="Calque 2"><g id="Calque_1-2" data-name="Calque 1"><path class="cls-1" d="M27.52,25.33S-5.68,57.38,2.92,71.85s26.6,12.48,26.6,12.48,14,3,24-1c0,0,16,5,20-10s-10-41-21-46S27.52,25.33,27.52,25.33Z"/><path class="cls-2" d="M33.82,58.87c.41.73.74,1.37,1.13,2a6.32,6.32,0,0,0,4.91,2.93,12.08,12.08,0,0,0,6.42-.95,8.68,8.68,0,0,0,.95-.51,1.91,1.91,0,0,1,2.54.52,2.48,2.48,0,0,1-.54,3.72A11.2,11.2,0,0,1,45.9,68.1a14.29,14.29,0,0,1-8.68.11,11.52,11.52,0,0,1-7.68-7.31A13.86,13.86,0,0,1,29,59.1c-.07-.25-.17-.32-.41-.31-.6,0-1.2,0-1.8,0a1.34,1.34,0,0,1-1.2-2,1.05,1.05,0,0,1,1-.73h1.92V53.67H27a1.36,1.36,0,0,1-1.51-1.28,1.25,1.25,0,0,1,1.19-1.45c.65,0,1.29,0,1.93,0,.31,0,.44-.07.51-.39a11.81,11.81,0,0,1,2.66-5.45,11.27,11.27,0,0,1,7.09-3.7,16.62,16.62,0,0,1,9.37,1.43,2.2,2.2,0,0,1,1.36,3A2.08,2.08,0,0,1,46.83,47a17,17,0,0,0-6.11-1.12,7,7,0,0,0-7,5l.4,0,9.43.06A1.33,1.33,0,0,1,45,52.22a1.41,1.41,0,0,1-1.45,1.45c-2.37,0-4.73.06-7.1.08-1.1,0-2.19,0-3.31,0V56l.36,0,8.58.07a1.23,1.23,0,0,1,1.36,1,1.33,1.33,0,0,1-1.31,1.67c-1.31.07-2.62.09-3.93.11s-2.57,0-3.85,0Z"/><path class="cls-1" d="M25.08,22.13S19.22,10.42,22.73,8.07s7,3.52,9.38,2.35,9.37-11.72,14-8.21a27,27,0,0,1,8.21,9.38c1.17,2.34,2.34-5.86,5.85-2.35s2.35,8.21,1.18,8.21-4.1,6.44-4.1,6.44S35.62,16.27,25.08,22.13Z"/><polyline class="cls-1" points="31.52 9.83 31.52 18.03 51.44 20.37 54.95 9.83"/></g></g></svg>