<svg xmlns="http://www.w3.org/2000/svg" viewBox="0 0 107.75 94.5"><defs><style>.cls-1{fill:#1b66aa;}.cls-2{fill:#fff;}</style></defs><title>4000_1</title><g id="Calque_2" data-name="Calque 2"><g id="Calque_1-2" data-name="Calque 1"><path class="cls-1" d="M65.41,15.28,65.66,26a29.73,29.73,0,0,1,29.79-4.51,22.87,22.87,0,0,0-.21-11l9.4-4.06Q93.42,3.19,82.05.58A17,17,0,0,0,78,0a17.32,17.32,0,0,0-6.54,1.94L50.64,11.23a54.57,54.57,0,0,0,12.86,3.6"/><path class="cls-1" d="M68.48,17.63C66.14,19.37,65.6,23.4,66,26.08c.64,4.3,4.22,8.14,7.65,10.54s7.56,3.6,11.62,2.3a14.11,14.11,0,0,0,8.34-7.72,20.82,20.82,0,0,0,1.77-6.84,4.39,4.39,0,0,0-.57-3c-.6-1-1.9-2.58-3.19-2.59-.86,0,.33,1.72.47,1.92.49.65,1.5,1.94,2.44,1.95h.23l-1.1-.56.18.14-1.92-2.34c.33.62-.16,2.34-.28,3a21.4,21.4,0,0,1-.7,2.84,15.78,15.78,0,0,1-2.81,5.21,12,12,0,0,1-10.21,4.63c-3.32-.3-7.24-2.27-8.25-5.68-.76-2.59-.16-6.82,2.13-8.52.78-.58-2.36-4.45-3.32-3.74Z"/><path class="cls-1" d="M106.77,92.75a96.21,96.21,0,0,0-3.07-41.3c-1.35-4.75-3.57-10-8.33-11.71-3.28-1.2-7-.39-10.17,1.08s-6.27,3.85-7.74,7c-1.19,2.58-1.29,5.5-2.23,8.18a19.7,19.7,0,0,1-5.29,7.62,33.68,33.68,0,0,1-18,8.71,9.2,9.2,0,0,1-.15,8.29,31.7,31.7,0,0,0,21.87-7,58.72,58.72,0,0,1-.83,18.93q17,.33,33.92.16"/><path class="cls-2" d="M11.67,47s3.65-6.75,14.57-4.38S30.91,62,35.12,66.08s12.23,7,19.37,7c9.23,0,10,8.23-2,7S36.53,76,33.47,78s-1,9-2,12-12.11,2.8-17,3a16,16,0,0,1-12-4.83c-.88-.87-1.7-8.4,0-20.07C3.51,61.07,8.61,50,11.67,47Z"/><path class="cls-1" d="M13.86,94.5A17.42,17.42,0,0,1,1.44,89.23C-.3,87.52-.49,78.14,1,67.87c1.08-7.38,6.19-18.38,9.47-21.78.78-1.25,5.18-7.28,16.09-4.92,7.91,1.72,8.11,9.69,8.27,16.1.09,3.24.17,6.59,1.34,7.74,3.82,3.76,11.7,6.6,18.32,6.6,3.85,0,6.85,1.3,8,3.49A3.66,3.66,0,0,1,62.33,79c-1.46,2.18-5.12,3.16-10,2.66a88.44,88.44,0,0,1-11.81-2c-3.55-.81-5-1.11-6.2-.35s-1.12,3.75-1,6.13a15.44,15.44,0,0,1-.35,5.1c-1.13,3.33-7.65,3.75-16.07,3.94l-2.27.07ZM3.63,87.18a14.48,14.48,0,0,0,10.81,4.31c.66,0,1.45,0,2.31-.07,8.34-.19,12.81-.83,13.3-1.9a14.91,14.91,0,0,0,.2-4c-.11-3.28-.22-7,2.4-8.72,2.27-1.5,4.62-1,8.51-.07a86,86,0,0,0,11.44,2c4.69.47,6.75-.63,7.24-1.35a.69.69,0,0,0,0-.78c-.51-1-2.37-1.9-5.37-1.9-7.45,0-16-3.14-20.42-7.46-2-2-2.13-5.62-2.23-9.81-.18-7-.71-12.1-5.92-13.23C16.33,42,13.11,47.51,13,47.74l-.11.19-.15.16C9.88,50.87,5,61.58,4,68.31,2.41,79.07,3.07,86,3.63,87.18Z"/><path class="cls-1" d="M29.67,41.44a11.66,11.66,0,0,1-2.55-.29c-7-1.64-11.06-9.64-9.13-17.83S27.14,9.79,34.11,11.43s11,9.63,9.13,17.82h0C41.55,36.45,35.77,41.44,29.67,41.44Zm1.88-27.31c-4.73,0-9.27,4.06-10.64,9.88-1.55,6.58,1.55,13,6.9,14.22s11-3.08,12.51-9.66h0c1.55-6.59-1.55-13-6.9-14.22A8,8,0,0,0,31.55,14.13Z"/></g></g></svg>