<svg xmlns="http://www.w3.org/2000/svg" viewBox="0 0 108.54 95.1"><defs><style>.cls-1{fill:#1b66aa;}.cls-2,.cls-3{fill:#fff;}.cls-3{stroke:#1b66aa;stroke-miterlimit:10;}.cls-4{fill:#b63956;}</style></defs><title>50</title><g id="Calque_2" data-name="Calque 2"><g id="Calque_1-2" data-name="Calque 1"><path class="cls-1" d="M70.94,35.75c1.64,3.27-1.43,9.32-1.43,9.32l23.65.72s-3.58-8.6-2.87-10,2.87-14.33,2.87-14.33l-26.27.72S68.08,30,70.94,35.75Z"/><path class="cls-1" d="M15.74,44.19A47.94,47.94,0,0,1,4.79,48C-1.3,49.26.15,63,.15,63s24.49,8.77,51.51.85c2.24-3.4.4-15.15-3-16.14s-11.51-1.62-12.43-3.21S15.74,44.19,15.74,44.19Z"/><path class="cls-1" d="M71.64,44.19a47.91,47.91,0,0,1-11,3.79c-6.09,1.28-4.63,15-4.63,15s24.48,8.77,51.5.85c2.25-3.4.41-15.15-3-16.14s-11.5-1.62-12.42-3.21S71.64,44.19,71.64,44.19Z"/><path class="cls-2" d="M60.68,69.59c-3-2.73-1.34-9.28-1.34-9.28l-10.41.9s1.52,9.16-.92,8.94"/><path class="cls-1" d="M48.1,70.87H48l.13-1.42a.12.12,0,0,0,.11,0c.72-.78.58-4.79,0-8.06l-.13-.77,12.18-1.05-.24,1c0,.06-1.5,6.17,1.12,8.58l-1,1.06c-2.56-2.35-2.1-7-1.75-9l-8.69.76c.3,2.12.83,7-.52,8.5A1.5,1.5,0,0,1,48.1,70.87Z"/><path class="cls-1" d="M24.47,35.08C17,35.08,10.83,28.32,10.83,20S17,4.94,24.47,4.94,38.11,11.7,38.11,20,32,35.08,24.47,35.08Zm0-28.71c-6.73,0-12.21,6.12-12.21,13.64s5.48,13.63,12.21,13.63S36.68,27.53,36.68,20,31.2,6.37,24.47,6.37Z"/><path class="cls-3" d="M18.45,41.64a7.86,7.86,0,0,0,7,2.62,15.06,15.06,0,0,0,6.24-2.62l4.51,1.59L29,49.37,24.63,45.5l-3.05,3.87-7.25-5.19Z"/><path class="cls-3" d="M21.65,49.86l-8-5.7,4.85-3,.19.25a7.41,7.41,0,0,0,6.72,2.48,14.75,14.75,0,0,0,6.06-2.55l.15-.11L37,43.1l-8,6.74L24.68,46ZM24.58,45,29,48.89l6.55-5.53L31.78,42a15,15,0,0,1-6.25,2.58,8.22,8.22,0,0,1-7.15-2.51L15,44.2l6.53,4.68Z"/><path class="cls-1" d="M20,42.21l-.87-1.14c1.1-.84.9-5,.41-7.68l1.4-.26C21.2,34.36,22.21,40.54,20,42.21Z"/><path class="cls-1" d="M31.53,42.17c-3.25-3-1.62-9.7-1.55-10l1.39.34c0,.06-1.5,6.18,1.13,8.58Z"/><path class="cls-1" d="M19.58,7.82s.89,7.18,7.55,7.65,11.8,2.8,11.34,6.07,2.41-7.64-1.61-14S27.59-.62,19.58,1.7,9.32,9.81,9.32,12.54s1,9.6,1,9.6-.45-5.38,3.68-8A14.32,14.32,0,0,0,19.58,7.82Z"/><path class="cls-1" d="M80.37,35.08c-7.53,0-13.64-7.63-13.64-17s6.11-17,13.64-17S94,8.72,94,18.09,87.89,35.08,80.37,35.08Zm0-32.55c-6.73,0-12.21,7-12.21,15.56s5.48,15.55,12.21,15.55,12.2-7,12.2-15.55S87.1,2.53,80.37,2.53Z"/><path class="cls-3" d="M74.34,41.64a7.88,7.88,0,0,0,7,2.62,15,15,0,0,0,6.24-2.62l4.52,1.59-7.27,6.14L80.53,45.5l-3,3.87-7.25-5.19Z"/><path class="cls-3" d="M77.55,49.86l-8-5.7,4.85-3,.2.25a7.39,7.39,0,0,0,6.71,2.48,14.75,14.75,0,0,0,6.07-2.55l.15-.11,5.29,1.86-8,6.74L80.57,46ZM80.48,45l4.39,3.91,6.56-5.53L87.68,42a15.13,15.13,0,0,1-6.25,2.58,8.25,8.25,0,0,1-7.16-2.51l-3.4,2.09,6.54,4.68Z"/><path class="cls-4" d="M75.92,42.21l-.87-1.14c1.1-.84.9-5,.41-7.68l1.41-.26C77.1,34.36,78.11,40.54,75.92,42.21Z"/><path class="cls-1" d="M44.41,72.14a47.91,47.91,0,0,1-11,3.79c-6.09,1.28-4.63,15-4.63,15s24.48,8.77,51.5.85c2.25-3.4.41-15.15-3-16.14S65.83,74,64.91,72.43,44.41,72.14,44.41,72.14Z"/><ellipse class="cls-2" cx="53.13" cy="46.03" rx="12.92" ry="16.27"/><path class="cls-1" d="M53.13,63C45.61,63,39.5,55.4,39.5,46s6.11-17,13.63-17,13.64,7.62,13.64,17S60.65,63,53.13,63Zm0-32.54c-6.73,0-12.2,7-12.2,15.55s5.47,15.56,12.2,15.56,12.21-7,12.21-15.56S59.86,30.48,53.13,30.48Z"/><path class="cls-2" d="M73.81,42.92c2.87.72,1.64-8.94,1.64-8.94l10.41-.9s-1.64,6.55,1.34,9.28L80,46.14Z"/><path class="cls-1" d="M80,46.86a.8.8,0,0,1-.33-.08l-6.21-3.22a.72.72,0,0,1-.34-.89.73.73,0,0,1,.84-.45c.17,0,.23,0,.29,0,.92-.81.82-5.31.47-8.1a.7.7,0,0,1,.15-.54.69.69,0,0,1,.5-.26l10.4-.91a.72.72,0,0,1,.76.89c0,.06-1.5,6.17,1.13,8.58a.73.73,0,0,1,.23.62.71.71,0,0,1-.38.54l-7.17,3.79A.81.81,0,0,1,80,46.86ZM75.47,43,80,45.33l6-3.18c-1.81-2.48-1.4-6.45-1.09-8.28l-8.72.76C76.45,36.65,76.77,41.27,75.47,43Z"/><ellipse class="cls-2" cx="79.65" cy="18.8" rx="12.92" ry="16.27"/><path class="cls-1" d="M79.65,35.79c-7.52,0-13.64-7.62-13.64-17s6.12-17,13.64-17,13.64,7.63,13.64,17S87.17,35.79,79.65,35.79Zm0-32.54c-6.73,0-12.21,7-12.21,15.55s5.48,15.56,12.21,15.56,12.2-7,12.2-15.56S86.38,3.25,79.65,3.25Z"/><path class="cls-3" d="M47.11,69.59a7.88,7.88,0,0,0,7,2.62,15,15,0,0,0,6.24-2.62l4.52,1.59-7.27,6.14-4.35-3.87-3,3.87L43,72.13Z"/><path class="cls-3" d="M50.32,77.81l-8-5.71,4.85-3,.2.26a7.44,7.44,0,0,0,6.71,2.48,14.75,14.75,0,0,0,6.07-2.55l.15-.11,5.29,1.86-8,6.74L53.34,74Zm2.93-4.88,4.39,3.91,6.56-5.53L60.45,70a15.15,15.15,0,0,1-6.25,2.57A8.2,8.2,0,0,1,47,70.05l-3.4,2.1,6.54,4.68Z"/><path class="cls-1" d="M57.74,34.43s-.87,6.55-7.34,7-11.46,2.56-11,5.54-2.33-7,1.56-12.81,9-7.4,16.8-5.29,10,7.4,10,9.89a86.54,86.54,0,0,1-1,8.76s.43-4.91-3.58-7.27A13.19,13.19,0,0,1,57.74,34.43Z"/><path class="cls-1" d="M85,6.48s-.87,6.55-7.34,7c-5.58.37-9.49,5.93-10.19,9.37a4.46,4.46,0,0,0-.08,1.47c.44,3-3.08-12.27.81-18.1s9-7.41,16.8-5.3,10,7.4,10,9.9a86.61,86.61,0,0,1-1,8.75s.43-4.9-3.58-7.27A13.19,13.19,0,0,1,85,6.48Z"/><polygon class="cls-3" points="24.6 46.03 21.5 50.09 24.36 52.95 21.5 66.57 29.74 66.21 25.8 52.95 27.95 49.37 24.6 46.03"/><path class="cls-3" d="M21.05,67,24,53.07l-2.95-3,3.55-4.63,3.83,3.82L26.19,53l4,13.55ZM22,50.05l2.79,2.79L21.94,66.19l7.32-.32-3.85-13,2.09-3.48-2.86-2.84Z"/></g></g></svg>