<svg xmlns="http://www.w3.org/2000/svg" viewBox="0 0 87.33 90.1"><defs><style>.cls-1{fill:#1b66aa;}.cls-2{fill:#fff;}</style></defs><title>91</title><g id="Calque_2" data-name="Calque 2"><g id="Calque_1-2" data-name="Calque 1"><path class="cls-1" d="M.54,10.64C2.64,10.28,5.2,9.33,7.31,9,13.36,7.9,19.49,7.32,25.6,6.74a107.42,107.42,0,0,1,15-.71"/><path class="cls-1" d="M41.31,6l13.95-.62c1,0,2.18,0,2.6.92-3.7,1.57-17.2,1.91-21.2,2.3C21.22,10.14,12,11,6.17,11.84c-.25,0-5.58-.95-5.63-1.2"/><path class="cls-2" d="M33,15,35.17,1.1c8.47.58,15.78,2.35,24.3,3.36,7.66.92,17.25,2.19,25.36,3.84-1.57,18.44-5.63,37-8.36,55.34-1,6.85-1.71,13.76-3.25,20.51a2.94,2.94,0,0,1-.59,1.36,2.12,2.12,0,0,1-1.51.67c-7.13,0-11.07-1.26-15.58-1.8"/><path class="cls-1" d="M35.52,15,37.67,1.06,34.52,2.18c8.5.6,16.84,2.46,25.28,3.48,8,1,15.92,2,23.78,3.62l-1.25-.94c-1.12,13-3.39,25.76-5.61,38.55-1.07,6.22-2.15,12.45-3,18.7-.45,3.19-.85,6.38-1.32,9.57q-.36,2.39-.78,4.77a21.89,21.89,0,0,1-1,4.69c0,.07-.64.86-.17.52.35-.1.27-.12-.27-.08l-.91,0c-.63,0-1.26-.06-1.88-.11-1.35-.11-2.69-.27-4-.47-2.38-.37-4.74-.86-7.14-1.16-.8-.1-2.64-.08-3.06.82s1.2,1.27,1.76,1.34C60,86.09,65,87.2,70.18,87.28a6.81,6.81,0,0,0,4.37-1c1.18-.94,1.29-2.67,1.58-4,.68-3.31,1.18-6.65,1.65-10C79.67,58.56,82.14,45,84.34,31.4c1.24-7.68,2.32-15.38,3-23.14,0-.54-.87-.86-1.26-.93C78,5.69,69.73,4.55,61.5,3.55c-8.58-1-17-2.92-25.68-3.53-.82-.06-3-.08-3.15,1.12L30.52,15c-.21,1.37,4.75,1.59,5-.07Z"/><path class="cls-1" d="M0,11.29C.54,33.64.84,56.67.37,75.86c0,1.84-.31,3.89.88,5.29a5.9,5.9,0,0,0,2.09,1.41c8.35,3.9,18.11,2.7,27.13,4.61,2.62.56,6.32.68,9,1,4.11.44,7.22.28,11.22,1.31a14.16,14.16,0,0,0,3,.66,2.83,2.83,0,0,0,2.63-1.28,5,5,0,0,0,.22-2.18c.19-8.16-.36-11.7.13-21.46.19-3.87-.14-15.57,0-19.44.18-7.22-.33-14.43-.84-21.63-.13-1.86-.3-3.85-1.45-5.32-1.31-1.67-3.55-2.26-5.64-2.63a300.87,300.87,0,0,0-34-4c-4.56-.28-8.39-1-12.92-1.57A2.34,2.34,0,0,0,0,10.87"/><path class="cls-2" d="M24.52,29.83a16.69,16.69,0,0,0-9.1,4.72A15.75,15.75,0,0,0,11,44.22a16.31,16.31,0,0,0,.44,5.48,18.63,18.63,0,0,0,1.85,4.83,14.3,14.3,0,0,0,3.9,3.93,24,24,0,0,0,4.1,2.39,16.52,16.52,0,0,0,4.58,1.6,14,14,0,0,0,5.76-.22,15.94,15.94,0,0,0,5-2.42,16.56,16.56,0,0,0,3.62-3.37A11.41,11.41,0,0,0,42,52.73a21.56,21.56,0,0,0,.94-5,15.57,15.57,0,0,0-.49-5.44,25.73,25.73,0,0,0-2-5,9.7,9.7,0,0,0-2.09-2.67A38,38,0,0,0,34.91,32a11.6,11.6,0,0,0-3-1.66,17.06,17.06,0,0,0-5-.75,10.74,10.74,0,0,0-2.34.24c-.35.08-.7.3-.48.69a1.29,1.29,0,0,0,1.24.44,11,11,0,0,1,4.31,0,11.22,11.22,0,0,1,1.92.47l.34.13c-.26-.1,0,0,0,0l.63.36c1.08.67,2.12,1.41,3.13,2.18a11.33,11.33,0,0,1,2.29,2.12,15.62,15.62,0,0,1,1.86,3.58,17.36,17.36,0,0,1,1.32,5.1A19,19,0,0,1,40.77,50a17.12,17.12,0,0,1-1.21,4,14.39,14.39,0,0,1-6.44,6.07,11.17,11.17,0,0,1-9.18.65,23.17,23.17,0,0,1-7.63-4.85,10,10,0,0,1-2.38-4.07,19.61,19.61,0,0,1-1.12-5A15.09,15.09,0,0,1,23,31.52,14.11,14.11,0,0,1,25.28,31c.35-.06.69-.31.47-.69a1.29,1.29,0,0,0-1.23-.44Z"/><path class="cls-2" d="M21.41,43.64a17.23,17.23,0,0,0-1.48,2.46c-1.38,1.36,2.35-.22,5.66-1.44a1.36,1.36,0,0,1,1.24.1,2.49,2.49,0,0,1,.56.82,2.39,2.39,0,0,0,2.89,1c.32-.14.67-.35,1-.21a1,1,0,0,1,.4.42c.47.74.94,1.48,1.42,2.22,2,0,2-4.66,3.86-5.48.93-.41,1.68.55,2.61.14s2.06-2.34,1.38-3.09c-1.38-1.18,0-2.41-2.46-4.82-4.17,2-6.36-.67-8.08,2a11.14,11.14,0,0,1-2.58,1.89c-.61.34-1.56-.16-2.24,0s-.71,1.69-2.66,3.16A2.72,2.72,0,0,0,21.41,43.64Z"/><path class="cls-2" d="M13.73,38.37a1,1,0,0,1,1-.63,3.63,3.63,0,0,0,.93,2.36.87.87,0,0,1,.32.55c0,.28-.26.47-.46.65a3.33,3.33,0,0,0-.81,3.23,9.56,9.56,0,0,0,1.57,3.1,4.54,4.54,0,0,0-1.69,3.13,13.49,13.49,0,0,0,.17,3.64c-1.46-1.25-3.15-3.5-3.28-5.42-.22-3.09-1.42-2.37-.56-5.34.06-.23,1.48-4.32,1.67-4.46s1-1,1.09-.81"/><path class="cls-2" d="M22.81,43.09c.14.88-.63,1.61-1.32,2.16l-1.22,1a5.92,5.92,0,0,0,2.59,1c.9.24,1.87.76,2,1.68a5.63,5.63,0,0,1,0,1.23,1.27,1.27,0,0,0,.4,1.11,1.7,1.7,0,0,0,.58.22,10.52,10.52,0,0,1,5,3.13c1.17.9,1.1.14,1.61-.48.31-.38.31-1.85.8-1.85s.59-.91,0-1.21c-1.37-1-1.93-1.08-2.2-2.76a1.8,1.8,0,0,0-.26-.82c-.35-.44-1-.35-1.54-.61-.92-.49-.82-1.83-1.28-2.76a1,1,0,0,0-.33-.41c-.35-.23-.81-.09-1.23-.09-1.36,0-.91-.9-2.17-.41.29.06-1-.55-.85-.29s-.13.7-.39.55"/><path class="cls-1" d="M41.44,4.83l1.32,4.48.66,2.24a2.59,2.59,0,0,0,.46,1,4,4,0,0,0,1.23,1.2c.26.12.38,0,.55-.22s.44-.52.65-.79c.43-.54.84-1.1,1.23-1.67a33.46,33.46,0,0,0,2.14-3.6c.11-.23-.52-.83-.65-1s-.85-.85-.91-.73a35,35,0,0,1-2,3.45c-.37.54-.75,1.06-1.14,1.57-.2.26-.4.51-.61.76s-.39.63-.62.53l.64.51,0-.05.82,1a3.33,3.33,0,0,1-.26-.81l-.25-.84L44.09,10,43,6.4a3.15,3.15,0,0,0-.86-1.13,2.53,2.53,0,0,0-.53-.45s-.22-.13-.18,0Z"/><path class="cls-1" d="M53.26,7.67l0,.35h0a.76.76,0,0,0,0,.15c0,.22,0,.44,0,.65,0,.42,0,.84,0,1.25a14.61,14.61,0,0,1-.34,2.4A1.67,1.67,0,0,0,53.45,14c.26.25.85.52,1,0a18.44,18.44,0,0,0,.35-5.74,1.65,1.65,0,0,0-.93-1.3c-.53-.17-.63.38-.59.77Z"/><path class="cls-1" d="M62.7,8c-.59-.08-1.17-.18-1.76-.25A1.7,1.7,0,0,0,59.71,8a1.1,1.1,0,0,0-.26,1.28,6.11,6.11,0,0,0,1.49,2.17c.77.77,1.83,1,2.69,1.63l.09.08-.56-.81c0,.07.05.15.06.22a1.14,1.14,0,0,1,0,.66,1.42,1.42,0,0,1-.93.76,4.72,4.72,0,0,1-3.33-.63c-.12-.06,0,.15,0,.17a2.77,2.77,0,0,0,.35.6,6.05,6.05,0,0,0,.53.72,1.48,1.48,0,0,0,.38.37,5.42,5.42,0,0,0,3,.72c.87-.1,1.6-.71,1.39-1.65a5.58,5.58,0,0,0-1.11-2A4.91,4.91,0,0,0,62.07,11c-.47-.28-1-.47-1.46-.74a3.66,3.66,0,0,1-.57-.4c1.12.86.7,1.37.68.74a.74.74,0,0,1,.07-.39A1.18,1.18,0,0,1,62,9.63c.67,0,1.35.18,2,.28.06,0-.14-.4-.11-.34a4.49,4.49,0,0,0-.44-.69A6.22,6.22,0,0,0,63,8.24.61.61,0,0,0,62.7,8Z"/><path class="cls-1" d="M69.93,16.72a12,12,0,0,0,1.48-2.95c.19-.54.38-1.09.56-1.64a12.34,12.34,0,0,1,.52-1.48.51.51,0,0,1,.09-.16l-1-.21c-.16-.14-.08-.1,0,.06a3.46,3.46,0,0,1,.17.58q.22.91.42,1.83c.25,1.22.45,2.45.59,3.68.1.82,2.18,1.66,2,.51s-.31-2.24-.53-3.36c-.11-.57-.23-1.13-.37-1.69a7,7,0,0,0-.46-1.5,2.85,2.85,0,0,0-1.41-1.33c-.6-.25-1.29-.23-1.56.43-.38.94-.65,1.92-1,2.87A12.74,12.74,0,0,1,68,15.48c-.29.41.31,1,.62,1.18s1,.48,1.32.06Z"/><path class="cls-1" d="M71.28,15.56h1.07a1.08,1.08,0,0,0,.44-.09,1,1,0,0,0,.36-.17.61.61,0,0,0,.23-.25.39.39,0,0,0,.08-.28l0-.19a.84.84,0,0,0-.32-.3l-.24-.1a1.94,1.94,0,0,0-.59-.06H71.19a1.08,1.08,0,0,0-.44.09,1,1,0,0,0-.36.17.56.56,0,0,0-.23.25.39.39,0,0,0-.08.28l.06.19a.75.75,0,0,0,.31.3l.24.1a2,2,0,0,0,.59.06Z"/></g></g></svg>