<svg xmlns="http://www.w3.org/2000/svg" viewBox="0 0 280.13 300.55"><defs><style>.cls-1{fill:#b43955;}.cls-2{fill:#fff;}</style></defs><g id="Calque_2" data-name="Calque 2"><g id="Calque_1-2" data-name="Calque 1"><path class="cls-1" d="M2.56,109.19c-11-75.61,11.79-81.3,101.17-105.45S183.27,80,245.9,85s30,166.18-23.6,179.82S106.11,326.59,67.06,282,16.34,203.92,2.56,109.19Z"/><path class="cls-2" d="M200.59,134.17c0-.95-.1-1.89-.14-2.83l.31-.75c.11-.32-.09-.43-.37-.48A54.93,54.93,0,0,0,174.6,87.56c0-.07-.06-.14-.1-.2a.8.8,0,0,0-.72-.3,54.89,54.89,0,1,0,26.81,47.11Zm-4.87-1.81a.86.86,0,0,1-.07.1c-1.09,3-2.43,7-5.16,8.89-2.92,2.07-5.74-.41-7.88-2.21-4.32-3.64-11.77.48-13.14,5.39-1.76,6.33,4.1,13.28-.82,19-2.44,2.85-6.6-.81-7.68-3.21-1.17-2.62-1.24-5.53-1.81-8.31-.51-2.47-1.46-5.07-3.49-6.7-2.85-2.29-6.25-.56-9.42-1.5-6.17-1.83-9.21-10.26-9.83-16a25.51,25.51,0,0,1,.92-10c.17-.56.37-1.11.58-1.66a23.87,23.87,0,0,0,2.63,2.67c4.11,3.9,11.49,3.51,14.7-1.57.84-1.33,1-3.08,1.93-4.34s3.06-1.55,4.55-2.11a28.28,28.28,0,0,0,8.83-5.19,16.47,16.47,0,0,0,5.71-11.12A50.07,50.07,0,0,1,195.72,132.36ZM118.27,92.17c0,.51,0,1,0,1.51-.11,1.73-.23,3.46-.34,5.19-.2,3.08-.87,6.55-.24,9.61.25,1.23,1.41,2.64,1.24,3.9s-1.74,1.81-2.78,2.07c-2.78.68-5.74.16-8.39,1.42a7.65,7.65,0,0,0-4.16,6.07,23,23,0,0,0-.08,3.11c0,.69.25,2.33-.24,2.94.23-.28-1,.12-1,.13a19.85,19.85,0,0,1-2.3.21,23.85,23.85,0,0,1-4.05-.29A50.2,50.2,0,0,1,118.27,92.17ZM95.51,133.3c4.86.55,10.91.14,12.55-5,.71-2.2.2-4.44.45-6.68.12-1,.23-1.27,1.25-1.51a41.85,41.85,0,0,1,4.49-.42c5.35-.67,11.46-5.11,9.16-11.2a9.82,9.82,0,0,1-.91-4.17c.06-1.83.23-3.65.34-5.47.11-1.6.21-3.2.31-4.8.06-.8.11-1.6.16-2.39l.06-.95a3.43,3.43,0,0,0,1.34-2.13,49.88,49.88,0,0,1,44.87,1.46c3.6,6.33.67,14.42-5.67,17.74-3,1.55-6.35,2-9.13,4a9.08,9.08,0,0,0-2.72,2.9,13.34,13.34,0,0,0-.81,1.91c-.12.32-.22.65-.36,1-.33.78-.21.84-.7,1-1.34.42-3.41-1.17-4.35-2-1.37-1.18-2.2-2.91-3.58-4-2.22-1.82-5.77.09-7.46,1.86-2.11,2.21-2.94,5.94-3.36,8.87a27.12,27.12,0,0,0,.5,10.23c1.42,5.81,5.4,13.28,12.21,13.49,1.87.05,3.84-.49,5.62.31a6.74,6.74,0,0,1,3.16,3.47c1.32,2.78,1.39,5.85,2,8.82.59,2.81,1.82,5.68,4.54,7s5.88.76,8.51-.34a12.64,12.64,0,0,0,6.79-6.19c1.4-3,1.12-6.14.44-9.3a22.64,22.64,0,0,1-.92-6.68,10.81,10.81,0,0,1,.75-2.74c.35-1,.73-.88,1.79-.31,1.61.86,2.59,2.51,4.29,3.26a9,9,0,0,0,4.61.56,15.19,15.19,0,0,0,9.72-5.11,49.77,49.77,0,0,1-56.74,44c1.44-5,2.58-10.76-1.41-14.91-2.91-3-7.09-4.22-10.87-5.72-4.16-1.65-8.1-3.7-9.61-8.19-1.58-4.66-1.29-11.83-7.14-13.57-5.44-1.62-9.77,3.06-12,7.55a49.93,49.93,0,0,1-2.23-14.8C95.47,133.88,95.51,133.59,95.51,133.3Zm3,18c1.32-.29,3-1.17,3.32-2a20,20,0,0,1,1.78-3.7c.91-1.38,1.11-1.55,2.73-.7,2.69,1.41,3.71,4.68,4.29,7.44.63,3,1,6.11,3,8.57a14.8,14.8,0,0,0,4.87,3.76c4,2.05,8.57,3,12.28,5.54,4.53,3.14,4.55,8,3.51,12.76A50.26,50.26,0,0,1,98.54,151.29Z"/><path class="cls-2" d="M64.09,149.74A80,80,0,0,1,63,136.42c0-.95,0-1.89.05-2.84a2.83,2.83,0,0,0-5.66-.19q-.06,1.5-.06,3a85.1,85.1,0,0,0,1.2,14.27,2.83,2.83,0,0,0,2.78,2.36,3.88,3.88,0,0,0,.48,0A2.84,2.84,0,0,0,64.09,149.74Z"/><path class="cls-2" d="M68.42,165.34a2.83,2.83,0,0,0-5.28,2.06,84.93,84.93,0,0,0,8,15.42,2.83,2.83,0,0,0,2.37,1.28,2.83,2.83,0,0,0,2.37-4.38A78.28,78.28,0,0,1,68.42,165.34Z"/><path class="cls-2" d="M128.44,214.51a79.21,79.21,0,0,1-15.56-4.43,2.83,2.83,0,0,0-2.1,5.26,84.68,84.68,0,0,0,16.68,4.74,2.83,2.83,0,1,0,1-5.57Z"/><path class="cls-2" d="M160.65,213.56a80.13,80.13,0,0,1-16.05,2.11,2.83,2.83,0,0,0,.07,5.66h.09A85.41,85.41,0,0,0,162,219.07a2.83,2.83,0,1,0-1.3-5.51Z"/><path class="cls-2" d="M98.54,202.56A79.42,79.42,0,0,1,86,192.3a2.83,2.83,0,1,0-4,4,85.65,85.65,0,0,0,13.41,11,2.76,2.76,0,0,0,1.55.47,2.84,2.84,0,0,0,1.57-5.2Z"/><path class="cls-2" d="M183.27,204.28a79.53,79.53,0,0,1-7.22,3.88,2.83,2.83,0,0,0,1.21,5.39,2.72,2.72,0,0,0,1.2-.27,82.05,82.05,0,0,0,7.74-4.15,2.83,2.83,0,1,0-2.93-4.85Z"/><path class="cls-2" d="M226.61,177.15a2.82,2.82,0,0,0-4-.5l-9.57,7.44-12.72-7.63a2.83,2.83,0,1,0-2.92,4.85l10.85,6.51-9.93,7.72-7.06-2.35a2.83,2.83,0,1,0-1.79,5.37l6.56,2.19v6.46a2.83,2.83,0,1,0,5.66,0v-7.12l10.19-7.92,4.17,10.42a2.84,2.84,0,0,0,2.63,1.78,2.76,2.76,0,0,0,1-.2,2.83,2.83,0,0,0,1.58-3.68l-4.77-11.94,9.54-7.43A2.82,2.82,0,0,0,226.61,177.15Z"/></g></g></svg>