<svg xmlns="http://www.w3.org/2000/svg" viewBox="0 0 280.81 301"><defs><style>.cls-1{fill:#fff;}.cls-2{fill:#b43955;}</style></defs><g id="Calque_2" data-name="Calque 2"><g id="Calque_1-2" data-name="Calque 1"><path class="cls-1" d="M5.46,110.21C-5.34,36,17,30.45,104.71,6.76s78,74.83,139.47,79.72,29.48,163-23.15,176.41-114,60.61-152.3,16.9S19,203.15,5.46,110.21Z"/><path class="cls-2" d="M109,301c-15.71,0-30.23-5.14-42.56-19.2-38.12-43.49-50.08-75.49-64-171.16C-8.67,34.24,17.07,27.28,102.36,4.24l1.55-.42C156.2-10.29,175.26,17.3,193.7,44,207,63.27,219.59,81.47,244.42,83.44c20.62,1.64,33.37,19.11,35.93,49.18,4.34,51.06-22.37,124-58.57,133.22-14.05,3.57-29.1,9.74-43.64,15.71C154.65,291.18,130.7,301,109,301ZM129.78,6.12A93.23,93.23,0,0,0,105.51,9.7l-1.56.42C18.45,33.22-1.86,38.71,8.48,109.77h0C22.18,204,33.87,235.39,71,277.78c26.51,30.24,64.54,14.64,104.79-1.87,14.75-6.05,30-12.3,44.46-16,32.66-8.31,58.11-78.47,54-126.8-1.32-15.5-7-41.77-30.34-43.62-27.72-2.21-41.72-22.47-55.25-42.06C174.08,26.32,160.12,6.12,129.78,6.12Z"/><path class="cls-2" d="M145.82,80.81a53.91,53.91,0,1,0,53.91,53.91A54,54,0,0,0,145.82,80.81Zm0,103.13a49.22,49.22,0,1,1,49.23-49.22A49.28,49.28,0,0,1,145.82,183.94Z"/><path class="cls-2" d="M169.17,91.17c3.8,6.24.9,14.4-5.42,17.7-2.92,1.53-6.23,2-9,4a8.84,8.84,0,0,0-2.67,2.84,12.78,12.78,0,0,0-.79,1.87c-.12.31-.22.64-.35.94-.33.77-.21.83-.69,1-1.31.4-3.35-1.15-4.27-1.94-1.34-1.15-2.16-2.86-3.51-4-2.18-1.78-5.66.09-7.32,1.83-2.06,2.17-2.88,5.83-3.29,8.7a26.51,26.51,0,0,0,.48,10c1.4,5.7,5.3,13,12,13.23,1.84.06,3.77-.48,5.52.31a6.64,6.64,0,0,1,3.1,3.4c1.29,2.73,1.36,5.75,2,8.65s1.78,5.57,4.46,6.88,5.77.75,8.34-.33a12.4,12.4,0,0,0,6.67-6.07c1.37-3,1.09-6,.42-9.13a22.13,22.13,0,0,1-.9-6.55,10.43,10.43,0,0,1,.74-2.69c.34-1,.71-.86,1.76-.3,1.57.84,2.53,2.46,4.21,3.2a8.94,8.94,0,0,0,4.52.55c7.87-.92,12.2-7.22,14.72-14.08.35-1-2-.29-2.23-.2-1,.34-2.4,1-2.78,2.05-1.07,2.93-2.38,6.82-5.07,8.72-2.86,2-5.62-.41-7.72-2.18-4.25-3.57-11.55.48-12.89,5.29-1.73,6.21,4,13-.81,18.69-2.39,2.79-6.48-.8-7.53-3.16-1.16-2.57-1.22-5.42-1.78-8.15-.5-2.42-1.43-5-3.42-6.57-2.81-2.25-6.13-.55-9.25-1.47-6-1.8-9-10.07-9.64-15.69a25.11,25.11,0,0,1,.9-9.83q.31-1,.72-2.07c.09-.19.65-1.13.58-1.27l-.8.25c-.9,0-1.05.21-.47.55.42,1.11,2.24,2.7,3.12,3.53,4,3.83,11.28,3.44,14.42-1.54.83-1.31,1-3,1.9-4.26s3-1.52,4.46-2.07a27.7,27.7,0,0,0,8.66-5.09c5-4.45,7.58-11.84,3.87-17.94-.75-1.23-5.6,1.34-5,2.38Z"/><path class="cls-2" d="M125.1,88.7c-1.55-2.71-5-.78-5.73,1.54a19.38,19.38,0,0,0-.44,4.75l-.33,5.1c-.19,3-.85,6.43-.24,9.43.25,1.2,1.39,2.59,1.22,3.82s-1.7,1.78-2.72,2c-2.73.67-5.63.16-8.24,1.4a7.47,7.47,0,0,0-4.07,6,20.69,20.69,0,0,0-.08,3c0,.68.24,2.29-.24,2.88.22-.27-.94.12-1,.13A18.82,18.82,0,0,1,101,129a24.28,24.28,0,0,1-5.38-.5c-2.7-.52-4.83,4.37-1.62,5,4.91.93,13,1.5,15-4.47.69-2.16.2-4.36.44-6.56.11-1,.22-1.24,1.22-1.48a43.27,43.27,0,0,1,4.41-.41c5.25-.66,11.24-5,9-11a9.79,9.79,0,0,1-.89-4.1c.06-1.79.23-3.58.34-5.37l.31-4.7.15-2.35.1-1.57c.11-.84.11-1,0-.6l-1.6,1.41-.52.15-1.42-.94.17.29c1.51,2.66,5.84-.68,4.46-3.1Z"/><path class="cls-2" d="M102.87,149.59a19.91,19.91,0,0,1,1.75-3.63c.89-1.35,1.09-1.52,2.68-.69,2.64,1.39,3.64,4.6,4.21,7.3.61,2.94,1,6,2.93,8.41a14.73,14.73,0,0,0,4.78,3.69c3.91,2,8.41,2.9,12.05,5.43,5.39,3.75,4.3,10,2.69,15.49-.32,1.09,2,.5,2.35.37a4.08,4.08,0,0,0,2.65-2.25c1.46-5,2.69-10.77-1.3-14.92-2.85-3-6.95-4.14-10.66-5.61-4.08-1.62-7.94-3.63-9.43-8-1.55-4.57-1.26-11.6-7-13.31-5.94-1.76-10.56,4.13-12.45,8.9-.79,2,4.2.27,4.76-1.14Z"/><path class="cls-2" d="M65.82,150a79.25,79.25,0,0,1-1.09-13.08c0-.93,0-1.85,0-2.78a2.78,2.78,0,0,0-5.55-.19q-.06,1.49-.06,3a84.87,84.87,0,0,0,1.17,14,2.78,2.78,0,0,0,2.74,2.32,2.56,2.56,0,0,0,.47,0A2.77,2.77,0,0,0,65.82,150Z"/><path class="cls-2" d="M77.35,179.41a78.54,78.54,0,0,1-7.29-14.11,2.78,2.78,0,1,0-5.17,2,83.51,83.51,0,0,0,7.8,15.12A2.79,2.79,0,0,0,75,183.7a2.75,2.75,0,0,0,1.52-.45A2.79,2.79,0,0,0,77.35,179.41Z"/><path class="cls-2" d="M129,213.53a77.62,77.62,0,0,1-15.27-4.34,2.78,2.78,0,0,0-2.06,5.16A82.81,82.81,0,0,0,128,219a2.7,2.7,0,0,0,.49,0,2.78,2.78,0,0,0,.48-5.51Z"/><path class="cls-2" d="M163.89,214.67a2.78,2.78,0,0,0-3.34-2.07,77.78,77.78,0,0,1-15.75,2.07,2.78,2.78,0,0,0,.08,5.56H145A83,83,0,0,0,161.83,218,2.78,2.78,0,0,0,163.89,214.67Z"/><path class="cls-2" d="M99.62,201.82a78.45,78.45,0,0,1-12.28-10.07,2.78,2.78,0,0,0-3.94,3.92,83.29,83.29,0,0,0,13.15,10.78,2.72,2.72,0,0,0,1.53.47,2.78,2.78,0,0,0,1.54-5.1Z"/><path class="cls-2" d="M186.56,204.44a2.79,2.79,0,0,0-3.82-.94,79,79,0,0,1-7.08,3.81,2.78,2.78,0,0,0,1.18,5.29,2.82,2.82,0,0,0,1.19-.27,83.78,83.78,0,0,0,7.59-4.07A2.79,2.79,0,0,0,186.56,204.44Z"/><path class="cls-2" d="M225.26,176.89a2.77,2.77,0,0,0-3.9-.49l-25,19.44a2.81,2.81,0,0,0-1.07,2.2v8.33a2.78,2.78,0,0,0,5.56,0v-7l23.92-18.61A2.77,2.77,0,0,0,225.26,176.89Z"/><path class="cls-2" d="M199,195.4l-8.33-2.78a2.78,2.78,0,1,0-1.76,5.27l8.33,2.78a2.7,2.7,0,0,0,.88.14,2.78,2.78,0,0,0,.88-5.41Z"/><path class="cls-2" d="M220.09,199.78l-5.55-13.89a2.77,2.77,0,0,0-1.15-1.35L199.5,176.2a2.78,2.78,0,1,0-2.86,4.77l13.08,7.85,5.21,13a2.79,2.79,0,0,0,2.58,1.74,2.62,2.62,0,0,0,1-.2A2.77,2.77,0,0,0,220.09,199.78Z"/></g></g></svg>