<svg xmlns="http://www.w3.org/2000/svg" viewBox="0 0 293.96 308.98"><defs><style>.cls-1{fill:#fff;}.cls-2{fill:#1a67ab;}</style></defs><g id="Calque_2" data-name="Calque 2"><g id="Calque_1-2" data-name="Calque 1"><path class="cls-1" d="M281.15,109.06c14,76,24.07,128.92-53.64,181.28S126.37,243.3,64.76,259-18.37,109.68,28.55,79.07,144.67-19.34,196.64,10.56,271.69,57.74,281.15,109.06Z"/><path class="cls-2" d="M184.45,309c-22,0-39.31-12.79-56.24-25.31-19.42-14.37-37.77-28-62.67-21.61-20.67,5.3-38.95-7.53-51.47-36C-7.19,177.64-5.45,97.5,26.83,76.43,36,70.48,46,63.09,56.55,55.26,100.26,23,154.65-17.2,198.21,7.84c53.64,30.85,76.44,48.59,86,100.65l.15.8c13.94,75.65,24,130.32-55.12,183.66C212.08,304.53,197.44,309,184.45,309ZM78,254.17c21,0,37.7,12.39,54,24.44,26.32,19.47,51.17,37.87,93.8,9.12,75.73-51,66.47-101.26,52.45-177.31l-.14-.79c-9.12-49.45-31.14-66.52-83-96.34-40-23-92.55,15.82-134.78,47-10.67,7.88-20.75,15.33-30,21.38-29.12,19-30.57,96-10.44,141.81C26.28,238.19,40.6,261.93,64,256A56.4,56.4,0,0,1,78,254.17Z"/><path class="cls-2" d="M218.65,59.33,158.1,64l-30,2.3-7.5.57c-2.17.17-4.65,0-6.72.69-3.15,1-4.38,4.13-6.55,6.31a2.7,2.7,0,0,0-.79,1.53,2.78,2.78,0,0,0-1.48,1.13c-11.39,19.07-7.25,41.8-2.69,62.25,2.48,11.1,4.92,22.24,5.12,33.66a103.18,103.18,0,0,1-4.27,30.84,103.55,103.55,0,0,1-15.54,31.51c-1.07,1.48.23,3.23,1.5,4a4.88,4.88,0,0,0,5.21-.09c6.85-4.54,15.68-4.86,23.63-4.45,8.68.44,17.21,2.13,25.79,3.47,11.32,1.76,22.75,2.42,34.17,3.09,5.3.31,10.81,1.2,16.1,1,5.51-.22,8-3.43,10.48-7.94,7.37-13.5,15.28-28.22,16.13-43.89a147.31,147.31,0,0,0-1.63-30.11c-1.52-9.91-5.16-19.28-6.76-29.17A108.83,108.83,0,0,1,222.7,64C224,61.56,221.08,59.14,218.65,59.33ZM203.08,119c.56,10.09,2.89,19.52,5.59,29.19s3.69,19.84,4.05,29.85c.29,8.18,0,16.12-2.46,24a139.33,139.33,0,0,1-9.12,21.16q-1.59,3.13-3.25,6.23c-.94,1.75-2,4.86-3.81,5.88s-4.68.15-6.5,0c-3.13-.23-6.26-.42-9.39-.61-11.21-.66-22.47-1.21-33.58-3-13.66-2.17-29.73-5.89-43.84-2.76a108.24,108.24,0,0,0,14.55-48.79c.55-11.09-.83-21.92-3.11-32.76-2.36-11.18-5.34-22.29-6.27-33.71-1-11.64.29-23.72,6.38-33.91a2.32,2.32,0,0,0,.26-.89,2.63,2.63,0,0,0,.89-.54A38.47,38.47,0,0,0,116.3,75c1.48-1.89,1.23-1.67,3.49-1.84l13.94-1.07,28.4-2.18L213,66A114,114,0,0,0,203.08,119Z"/><path class="cls-2" d="M121.71,137.6q3.63-8.23,7.25-16.46c3.08.09,6.16.27,9.23.64a2.5,2.5,0,0,0,1-.17c-.11,1.73-.19,3.46-.39,5.17q-.56,4.78-1.53,9.51a4,4,0,0,0,.48,2.23,4.06,4.06,0,0,0,1.51,1.72,1.71,1.71,0,0,0,1.66.18,1.92,1.92,0,0,0,.84-1.44,110.92,110.92,0,0,0,1.47-35.43c-.35-2.94-1.24-6.36-4-8a3.74,3.74,0,0,0-3.86-.12,6.92,6.92,0,0,0-2.38,3c-1.28,2.69-2.41,5.46-3.61,8.19s-2.45,5.58-3.68,8.37q-4.1,9.31-8.2,18.64a3.36,3.36,0,0,0,0,2.08,4.69,4.69,0,0,0,1.26,2.06C119.73,138.63,121.11,139,121.71,137.6Zm17-36.79Zm-.34-.33.09.31-.1-.32Zm-.05-.14h0l0-.07A.14.14,0,0,0,138.35,100.34Zm-3.46,7.3c.62-1.39,1.23-2.79,1.84-4.18l.41-.93.13-.26s.09-.18.14-.28l.08-.13c.08-.13.17-.25.25-.36a4.35,4.35,0,0,1,.36-.38,2.49,2.49,0,0,1,.43-.22v0l0,.15c.05.27.08.53.12.8q.51,4.18.7,8.39c0,.67.05,1.34.07,2l0,1.1v.6c0,1.47,0,3-.07,4.42l0,.27c-3-.24-6.12-.37-9.19-.35Q132.54,113,134.89,107.64Z"/><path class="cls-2" d="M151.34,115.78c1.1,7,1,14.43,3.8,21.12a3.19,3.19,0,0,0,3,1.73,4.55,4.55,0,0,0,4.39-2.85c.49-1.16.87-2.38,1.31-3.56l2.81-7.68,5.59-15.27c1-2.86,2.09-5.71,3.13-8.56.52-1.42-.84-2.62-2.13-2.86s-3.33.05-3.87,1.53q-5.16,14.09-10.31,28.16c-.46-3.14-.73-6.3-1.13-9.46a48.76,48.76,0,0,0-2.47-10.8,36.46,36.46,0,0,1-1.75-5.58,11.69,11.69,0,0,1-.13-2.29c.08-1.5-1.82-2.36-3.08-2.34s-3.08.66-3.17,2.23c-.16,3,.89,5.88,1.92,8.65A43.33,43.33,0,0,1,151.34,115.78Z"/><path class="cls-2" d="M181.44,101.28l1.23.11c-.51,8.43-1.11,16.86-1.91,25.27-.12,1.27-.24,2.54-.37,3.8-.06.66-.13,1.31-.2,2l-.06.56a2,2,0,0,0-1.13.55c-1.61.08-3.21.14-4.81.29a2.69,2.69,0,0,0-2.31,3.27,3.4,3.4,0,0,0,3.72,2.33c1.09-.09,2.17-.18,3.25-.25l1.63-.08.82,0h.33q3.31-.09,6.63,0c1.48.05,3.2-.86,3.18-2.56a3.21,3.21,0,0,0-3-3.09c-.82,0-1.65,0-2.47,0,0-.28,0-.58.07-.84.26-2.54.5-5.07.73-7.61q.69-7.77,1.23-15.55.25-3.72.46-7.44l4.32.41c1.47.14,1.92-1.57,1.53-2.69A4.09,4.09,0,0,0,191,96.83l-11.33-1.08c-1.47-.14-1.92,1.57-1.53,2.69A4.07,4.07,0,0,0,181.44,101.28Z"/><path class="cls-2" d="M130.35,153.12c-2.34-.15-.43,2.35.3,3.07,1.6,1.57,4.17,3.4,6.51,3.55q28.91,1.84,57.88,1c2.26-.06.56-2.22-.3-3.07-1.46-1.44-4.28-3.62-6.51-3.55Q159.28,155,130.35,153.12Z"/><path class="cls-2" d="M194.59,180.71a14.88,14.88,0,0,0-7.08-2.19q-28.5.81-57-1c-1.86-.12-2.23.59-.67,1.75A15.27,15.27,0,0,0,137,182q29.34,1.86,58.76,1.06C198.07,183,195.18,181,194.59,180.71Z"/><path class="cls-2" d="M184.67,200q-28.32.81-56.62-1a7.05,7.05,0,0,0-6.73,3.63,3.17,3.17,0,0,0,2.57,4.76q29.54,1.88,59.13,1c2.44-.07,5.42-2.24,5.85-4.72C189.34,200.94,186.94,199.9,184.67,200Z"/></g></g></svg>