<svg xmlns="http://www.w3.org/2000/svg" viewBox="0 0 297.42 312.83"><defs><style>.cls-1{fill:#1a67ab;}.cls-2{fill:#fff;}</style></defs><g id="Calque_2" data-name="Calque 2"><g id="Calque_1-2" data-name="Calque 1"><path class="cls-1" d="M287.4,109.52c14.49,78.61,24.88,133.27-55.45,187.41S127.4,248.3,63.71,264.55s-85.95-154.38-37.44-186S146.31-23.21,200,7.7,277.62,56.47,287.4,109.52Z"/><path class="cls-2" d="M222.79,58.11l-62.6,4.8-31,2.38-7.76.6c-2.23.17-4.79,0-6.94.71-3.26,1.05-4.53,4.26-6.77,6.53a2.8,2.8,0,0,0-.82,1.57,2.88,2.88,0,0,0-1.53,1.17c-11.77,19.72-7.49,43.22-2.78,64.35,2.57,11.48,5.1,23,5.3,34.81a106.79,106.79,0,0,1-4.42,31.87,106.77,106.77,0,0,1-16.07,32.58c-1.11,1.52.25,3.34,1.55,4.12a5,5,0,0,0,5.39-.09c7.08-4.69,16.22-5,24.43-4.6,9,.46,17.8,2.2,26.66,3.58,11.7,1.83,23.52,2.51,35.33,3.2,5.47.32,11.17,1.25,16.64,1,5.7-.24,8.29-3.55,10.83-8.21,7.62-14,15.8-29.18,16.68-45.38A152.3,152.3,0,0,0,223.2,162c-1.57-10.24-5.33-19.92-7-30.15A112.55,112.55,0,0,1,227,63C228.29,60.41,225.31,57.91,222.79,58.11Zm-16.09,61.7c.57,10.43,3,20.18,5.78,30.18s3.81,20.5,4.18,30.85c.3,8.46,0,16.66-2.54,24.79a145.7,145.7,0,0,1-9.43,21.87c-1.1,2.16-2.21,4.31-3.36,6.44-1,1.81-2.09,5-3.94,6.08s-4.84.15-6.72,0c-3.23-.24-6.47-.44-9.7-.63-11.6-.69-23.23-1.25-34.72-3.07-14.12-2.25-30.73-6.1-45.33-2.86A111.81,111.81,0,0,0,116,183c.57-11.47-.86-22.66-3.22-33.87-2.44-11.55-5.52-23-6.48-34.85-1-12,.31-24.51,6.59-35a2.43,2.43,0,0,0,.28-.92,2.84,2.84,0,0,0,.92-.57A37.85,37.85,0,0,0,117,74.27c1.53-2,1.27-1.73,3.61-1.9L135,71.26,164.36,69l52.56-4A117.84,117.84,0,0,0,206.7,119.81Z"/><path class="cls-2" d="M122.58,139q3.75-8.52,7.49-17c3.18.1,6.37.28,9.54.66a2.7,2.7,0,0,0,1-.17c-.12,1.78-.2,3.57-.41,5.34q-.57,4.95-1.58,9.83a4.2,4.2,0,0,0,.49,2.31,4.38,4.38,0,0,0,1.56,1.77,1.82,1.82,0,0,0,1.73.2,2,2,0,0,0,.86-1.5,114.35,114.35,0,0,0,1.52-36.63c-.36-3-1.28-6.57-4.11-8.25a3.87,3.87,0,0,0-4-.13,7.12,7.12,0,0,0-2.46,3.14c-1.32,2.78-2.49,5.65-3.73,8.47l-3.81,8.65L118.23,135a3.44,3.44,0,0,0,0,2.15,4.81,4.81,0,0,0,1.31,2.13C120.53,140.09,122,140.45,122.58,139Zm17.6-38h0S140.23,101,140.18,101Zm-.35-.35a3,3,0,0,0,.1.32,2.93,2.93,0,0,1-.11-.33A0,0,0,0,0,139.83,100.65Zm-.05-.14h0s0,0,0-.06A.25.25,0,0,0,139.78,100.51Zm-3.58,7.54q1-2.16,1.9-4.32c.14-.32.28-.64.43-1l.13-.27s.1-.18.15-.29a1.32,1.32,0,0,0,.08-.14l.26-.37a4.64,4.64,0,0,1,.38-.39,2.93,2.93,0,0,1,.43-.23v0l0,.15.12.83c.35,2.88.59,5.78.72,8.68,0,.69.06,1.38.08,2.07,0,.38,0,.76,0,1.14v.1c0,.18,0,.35,0,.52,0,1.52,0,3-.08,4.56,0,.1,0,.19,0,.29-3.16-.25-6.34-.39-9.51-.36Z"/><path class="cls-2" d="M153.21,116.47c1.14,7.29,1.07,14.91,3.92,21.83a3.31,3.31,0,0,0,3.09,1.79,4.7,4.7,0,0,0,4.53-3c.51-1.2.91-2.46,1.36-3.68,1-2.65,1.94-5.29,2.9-7.94q2.9-7.89,5.78-15.79l3.24-8.84c.53-1.47-.87-2.71-2.21-3s-3.44.06-4,1.58l-10.65,29.12c-.48-3.25-.76-6.52-1.17-9.78a50.28,50.28,0,0,0-2.55-11.17,38.65,38.65,0,0,1-1.82-5.77,13.3,13.3,0,0,1-.13-2.36c.09-1.56-1.88-2.45-3.19-2.43s-3.18.68-3.27,2.32c-.17,3.1.92,6.07,2,8.93A44.67,44.67,0,0,1,153.21,116.47Z"/><path class="cls-2" d="M184.33,101.47l1.26.13c-.52,8.71-1.14,17.42-2,26.11-.12,1.32-.25,2.63-.38,3.94l-.21,2-.06.58a2,2,0,0,0-1.17.57c-1.66.08-3.32.15-5,.3a2.78,2.78,0,0,0-2.38,3.38,3.51,3.51,0,0,0,3.85,2.41c1.12-.1,2.24-.19,3.36-.26l1.68-.09.85,0h.34q3.43-.09,6.85,0c1.53,0,3.31-.9,3.29-2.65a3.32,3.32,0,0,0-3.1-3.2c-.85,0-1.7,0-2.55,0,0-.29,0-.59.07-.86q.39-3.94.75-7.87.72-8,1.27-16.08c.18-2.56.33-5.13.48-7.69l4.47.43c1.52.14,2-1.63,1.58-2.79a4.23,4.23,0,0,0-3.4-2.93l-11.72-1.12c-1.52-.15-2,1.63-1.58,2.78A4.21,4.21,0,0,0,184.33,101.47Z"/><path class="cls-2" d="M131.51,155.07c-2.43-.16-.45,2.43.31,3.17,1.65,1.63,4.31,3.52,6.73,3.68q29.88,1.89,59.83,1c2.34-.07.58-2.3-.31-3.17-1.51-1.49-4.42-3.74-6.73-3.68Q161.41,157,131.51,155.07Z"/><path class="cls-2" d="M197.92,183.59a15.4,15.4,0,0,0-7.32-2.26q-29.46.84-58.92-1c-1.92-.12-2.3.62-.69,1.81a15.71,15.71,0,0,0,7.39,2.81q30.33,1.94,60.75,1.1C201.52,186,198.53,183.93,197.92,183.59Z"/><path class="cls-2" d="M187.67,203.49q-29.29.84-58.54-1a7.33,7.33,0,0,0-7,3.76,3.28,3.28,0,0,0,2.66,4.92q30.53,2,61.12,1.06c2.53-.08,5.61-2.32,6.06-4.89C192.49,204.51,190,203.43,187.67,203.49Z"/></g></g></svg>