<svg xmlns="http://www.w3.org/2000/svg" viewBox="0 0 288.3 303.24"><defs><style>.cls-1{fill:#1a67ab;}.cls-2{fill:#fff;}.cls-3{fill:#0067a7;}</style></defs><g id="Calque_2" data-name="Calque 2"><g id="Calque_1-2" data-name="Calque 1"><path class="cls-1" d="M278.59,106.16c14,76.2,24.12,129.19-53.75,181.66S123.49,240.69,61.75,256.44-21.56,106.79,25.46,76.11,141.82-22.5,193.91,7.46,269.11,54.74,278.59,106.16Z"/><path class="cls-2" d="M106.72,118.88H227.11a0,0,0,0,1,0,0v46.21a2,2,0,0,1-2,2H108.67a2,2,0,0,1-2-2V118.88A0,0,0,0,1,106.72,118.88Z" transform="translate(20.77 -21.17) rotate(7.74)"/><path class="cls-2" d="M115.24,85.61H231.57a2,2,0,0,1,2,2v17.23a0,0,0,0,1,0,0H113.21a0,0,0,0,1,0,0V87.64a2,2,0,0,1,2-2Z" transform="translate(14.4 -22.48) rotate(7.74)"/><path class="cls-3" d="M58.54,143.39A271.35,271.35,0,0,0,61,204.06c.43,2.78,1,5.76,3.06,7.69,1.62,1.54,3.9,2.14,6.08,2.64a241,241,0,0,0,110.29-.31c2.49-.59,5.11-1.31,6.86-3.17,2.23-2.38,2.45-5.95,2.55-9.2q.87-30.57.66-61.15a7.16,7.16,0,0,0-1-4.38c-1.12-1.47-3.16-1.83-5-2.06-11.4-1.4-22.88-2-34.36-2.55L66.3,127.39c-2.4-.12-5.18-.08-6.71,1.78-2.86,3.48,1.37,9.89-2,12.84"/><path class="cls-2" d="M192.42,133.77c-1-2.44-3.24-2.93-5.63-3.27-4.09-.58-8.23-.9-12.35-1.23-15.23-1.22-30.52-1.75-45.78-2.51l-51.72-2.58c-3.69-.18-7.6-.78-11.28-.38-2.81.3-4.49,1.81-6.07,4a17.22,17.22,0,0,0-3.27,6.81,15.79,15.79,0,0,0,.07,4.12c.06.56.14,1.12.18,1.69l-.37,6.33a275,275,0,0,0,.66,46.27c.37,3.66.81,7.33,1.32,11,.42,2.91.64,6.1,1.9,8.8,2.76,5.93,12.09,6.21,17.68,7.26a242.07,242.07,0,0,0,87.58.34q5.26-1,10.51-2.14c3.1-.71,6.49-1.26,9-3.32a21.49,21.49,0,0,0,7.16-13.9c.73-7.32.47-14.86.6-22.21q.21-11.46.25-22.93c0-3.71,0-7.41,0-11.12C192.89,141.52,193.7,136.88,192.42,133.77Zm-4.93,75c0-.09.09-.15.14-.09S187.55,208.7,187.49,208.74Zm.44-20.31c-.13,6.81-.64,13.67-.75,20.46-.53.26-1.36.62-1.52.68a34.75,34.75,0,0,1-4.5,1.22q-5.22,1.23-10.49,2.2a240.88,240.88,0,0,1-82.46.9q-5.62-.91-11.2-2.1c-3.15-.67-7.11-1-9.81-3-2.87-2-3.44-5.58-3.94-8.84q-.88-5.8-1.51-11.66A274.62,274.62,0,0,1,60.88,140c.06-.85.21-2,.32-6.76a12.07,12.07,0,0,0-.18-2,19.25,19.25,0,0,1,2.57-.25c2,0,4,.19,6,.29l42.63,2.13c14.18.71,28.36,1.38,42.54,2.13,6.88.36,13.76.79,20.62,1.45,3,.29,6.32.26,9.17,1.18,3.71,1.2,3.58,4.49,3.61,7.86Q188.33,167.24,187.93,188.43Z"/><path class="cls-2" d="M58.76,167.62c23.78,2.47,47.82,2.09,71.69,3.12,15.61.68,31.32,1.43,47,.93,2.95-.09,6.65.15,9.44-1,3.14-1.3,4.78-6.13,5.61-9.1.25-.92,1.67-8-1.15-6.82-2.24.92-5.07.83-7.44.94-5.61.26-11.24.18-16.86.09-20.73-.33-41.43-1.6-62.16-2.06-13.35-.3-26.71-.66-40-2-4.87-.5-9.09,15.64-6.08,16Z"/><path class="cls-2" d="M74.88,198.5l9.1,0c.39,0,.79-.77.92-1a23.25,23.25,0,0,0,2.26-5.6c0-.15.31-1.34,0-1.34l-9.1,0c-.39,0-.79.77-.92,1a18.94,18.94,0,0,0-1.32,2.72,18.28,18.28,0,0,0-.94,2.88c0,.16-.31,1.34,0,1.34Z"/></g></g></svg>