<svg xmlns="http://www.w3.org/2000/svg" viewBox="0 0 289.35 304.15"><defs><style>.cls-1{fill:#fff;}.cls-2{fill:#1a67ab;}.cls-3{fill:#0067a7;}</style></defs><g id="Calque_2" data-name="Calque 2"><g id="Calque_1-2" data-name="Calque 1"><path class="cls-1" d="M277.13,107.24c13.84,75.07,23.76,127.26-52.94,179s-99.84-46.43-160.66-30.92S-18.54,107.86,27.78,77.64,142.41-19.5,193.71,10,267.8,56.59,277.13,107.24Z"/><path class="cls-2" d="M181.69,304.15c-21.64,0-38.63-12.57-55.28-24.89C107.15,265,88.9,251.55,64.2,257.87,44,263,26.13,250.47,13.87,222.54-7,174.91-5.39,96.08,26.31,75.39c9-5.88,18.9-13.18,29.36-20.91,43.05-31.8,96.61-71.4,139.38-46.79,52.82,30.39,75.28,47.85,84.72,99.06l.14.79c13.74,74.53,23.67,128.38-54.23,180.88C208.82,299.78,194.45,304.15,181.69,304.15ZM76.54,250.91c20.57,0,37,12.19,53.07,24,26.09,19.31,50.75,37.55,93.08,9,75-50.53,65.82-100.23,51.95-175.46l-.15-.78c-9-49-30.82-65.89-82.11-95.39C152.62-10.53,100.64,27.91,58.86,58.79,48.33,66.57,38.39,73.92,29.25,79.88.35,98.74-1.15,175,18.78,220.38c6.43,14.62,20.74,38.25,44.09,32.3A54.84,54.84,0,0,1,76.54,250.91Z"/><path class="cls-3" d="M107.83,119.77h118.6a0,0,0,0,1,0,0v45.49a2,2,0,0,1-2,2H109.78a2,2,0,0,1-2-2V119.77a0,0,0,0,1,0,0Z" transform="translate(20.84 -21.2) rotate(7.74)"/><path class="cls-3" d="M116.25,87H230.78a2,2,0,0,1,2,2V106a0,0,0,0,1,0,0H114.22a0,0,0,0,1,0,0V89a2,2,0,0,1,2-2Z" transform="translate(14.57 -22.49) rotate(7.74)"/><path class="cls-3" d="M60.37,143.91a266.88,266.88,0,0,0,2.45,59.77c.42,2.74,1,5.68,3,7.58,1.6,1.51,3.85,2.1,6,2.6a237.47,237.47,0,0,0,108.64-.31c2.45-.58,5-1.29,6.75-3.12,2.2-2.34,2.42-5.86,2.51-9.07q.87-30.11.66-60.23a7.05,7.05,0,0,0-1-4.31c-1.12-1.46-3.12-1.81-4.94-2-11.23-1.39-22.55-1.95-33.85-2.51L68,128.15c-2.36-.11-5.1-.08-6.61,1.75-2.81,3.44,1.35,9.75-2,12.66"/><path class="cls-1" d="M58.06,147.25a272.07,272.07,0,0,0,.65,45.58q.54,5.41,1.31,10.82c.4,2.86.62,6,1.86,8.67,2.72,5.84,11.91,6.11,17.42,7.15a238.46,238.46,0,0,0,86.27.33c3.46-.62,6.92-1.32,10.35-2.1,3.06-.7,6.4-1.24,8.91-3.28a21.17,21.17,0,0,0,7.06-13.69c.71-7.21.46-14.63.59-21.87q.2-11.3.24-22.59c0-3.65,0-7.3,0-11,0-3.25.78-7.82-.48-10.88-1-2.41-3.2-2.89-5.55-3.22-4-.58-8.11-.89-12.16-1.22-15-1.2-30.07-1.71-45.1-2.46L78.49,125c-3.63-.18-7.49-.77-11.12-.38-2.76.3-4.41,1.79-6,4a17,17,0,0,0-3.22,6.71,15.26,15.26,0,0,0,.07,4c0,.56.14,1.11.17,1.66.16,2.47-.9,1.93,2.1-1.25a13.24,13.24,0,0,0-3.13,5.05c-.32,1.24-.3,1.77.87.54,3-3.13,5.06-7.07,4.73-11.43-.08-1-.25-1.95-.3-2.92,0,.14,0-1.62,0-1.62l-1,1.5q-2,2.2-.17,1.18c1.15.08,2.56-.37,3.78-.35,2,0,4,.19,6,.29l42,2.09c14,.7,27.93,1.36,41.89,2.1,6.79.36,13.56.78,20.32,1.43,2.93.28,6.23.26,9,1.17,3.66,1.18,3.53,4.42,3.55,7.73q.12,20.88-.28,41.76c-.13,6.83-.65,13.71-.75,20.52,0,2.65.1-1,.47-.6a20.94,20.94,0,0,1-1.95.91,34.11,34.11,0,0,1-4.43,1.2q-5.15,1.2-10.34,2.17a237.25,237.25,0,0,1-81.23.88q-5.53-.9-11-2.07c-3.1-.66-7-1-9.66-2.92-2.83-2-3.39-5.5-3.88-8.71q-.88-5.72-1.49-11.48a271.38,271.38,0,0,1-.86-47.61c.06-.91-2.22,1.9-2.31,2-.88,1.28-2.18,3-2.3,4.66Z"/><path class="cls-1" d="M60.58,167.78c23.43,2.43,47.11,2.06,70.62,3.08,15.39.66,30.85,1.4,46.26.92,2.9-.1,6.54.14,9.3-1,3.08-1.28,4.7-6,5.51-9,.25-.9,1.65-7.87-1.13-6.72-2.2.92-5,.82-7.32.93-5.53.25-11.08.18-16.61.09-20.42-.33-40.82-1.57-61.24-2-13.15-.29-26.3-.65-39.39-2-4.8-.49-9,15.41-6,15.71Z"/><path class="cls-1" d="M76.47,198.2l9,0c.38,0,.78-.76.9-1a17,17,0,0,0,1.3-2.68,17.79,17.79,0,0,0,.93-2.84c0-.15.3-1.31,0-1.32l-9,0c-.38,0-.78.76-.9,1a17,17,0,0,0-1.3,2.68,17.68,17.68,0,0,0-.93,2.83c0,.16-.3,1.32,0,1.32Z"/></g></g></svg>