<svg xmlns="http://www.w3.org/2000/svg" viewBox="0 0 274.44 294.17"><defs><style>.cls-1{fill:#fff;}.cls-2{fill:#5dad7d;}.cls-3{fill:#4fa983;}</style></defs><g id="Calque_2" data-name="Calque 2"><g id="Calque_1-2" data-name="Calque 1"><path class="cls-1" d="M5.33,107.71c-10.54-72.49,11.31-77.95,97-101.1S178.6,79.74,238.64,84.52,267.45,243.84,216,256.92,104.62,316.15,67.18,273.44,18.55,198.53,5.33,107.71Z"/><path class="cls-2" d="M106.52,294.17c-15.34,0-29.54-5-41.58-18.77C27.68,232.89,16,201.63,2.38,108.13h0c-10.86-74.67,14.3-81.47,97.67-104l1.5-.41C152.64-10.06,171.28,16.91,189.31,43c13,18.83,25.3,36.62,49.57,38.54C259,83.15,271.49,100.22,274,129.61c4.24,49.9-21.86,121.2-57.24,130.2-13.73,3.49-28.44,9.52-42.66,15.35C151.14,284.57,127.73,294.17,106.52,294.17ZM8.28,107.28C21.68,199.35,33.1,230,69.41,271.47c25.91,29.55,63.07,14.31,102.42-1.82,14.41-5.91,29.32-12,43.45-15.61,31.92-8.12,56.79-76.69,52.78-123.92C266.77,115,261.21,89.3,238.4,87.48c-27.08-2.15-40.76-22-54-41.1-17.62-25.51-34.32-49.6-81.29-36.89l-1.51.4C18,32.47-1.82,37.83,8.28,107.28Z"/><path class="cls-3" d="M210.79,137.31C192,117.73,172.59,98.7,153.87,79q-8.22-8.64-16.25-17.46c-1.23-1.35-2.89.36-3.65,1.25C115.68,84.23,96,104.46,78.39,126.43c-4.89,6.08-9.6,12.3-14.06,18.72A8.8,8.8,0,0,0,62.72,150c0,.84.2,3,1.44,3.13l21.51,2.12a63.1,63.1,0,0,0,.9,8.15q.75,6.32,1.48,12.63l1.59,13.47c.5,4.3.58,9,2,13.08q.06.14.27.12c0,.13,0,.22.21.23,30.28.93,60.67-1.27,90.75-4.56,1.69-.19,3.58-1.88,4.82-2.89.85-.69,3.07-2.14,2.94-3.41-1.43-14.66-2.69-29.35-4.27-44,7.15,0,14.19-1.92,21.36-1.47,1.65.11,3.05-2.84,3.44-4C211.65,141.05,212,138.62,210.79,137.31ZM121.07,87.13q6.78-7.57,13.4-15.29c17.81,19.5,36.48,38.17,55,57,2.84,2.9,5.66,5.82,8.49,8.73a64.68,64.68,0,0,1-12.27.8,1.67,1.67,0,0,0-.85.18,12.91,12.91,0,0,0-4.32-5.47c-3-2.38-6-4.8-8.86-7.31-5.82-5.06-11.4-10.38-16.92-15.77-6.42-6.28-12.77-12.64-19.27-18.84-.61-.58-3.13,1.33-3.5,1.58a19.39,19.39,0,0,0-4.29,3.84C118,109,108.55,121.7,99,134.27q-3.6,4.72-7.23,9.44c-.52.66-1.08,1.34-1.64,2L72.75,144C87.56,124,104.48,105.66,121.07,87.13ZM99.63,196.57c0-.06.07-.13.05-.19-1.14-3.35-1.28-7-1.69-10.54q-.72-6.1-1.43-12.21-.69-5.9-1.39-11.79c-.46-3.94-1.16-7.93-1.35-11.9s2.1-6.54,4.42-9.54,4.71-6.09,7-9.15q6.93-9.09,13.79-18.22c3.45-4.57,6.94-9.1,10.43-13.64,10.58,10.21,20.81,20.81,31.82,30.58,2.85,2.53,5.76,5,8.73,7.4s6.09,4.29,7.11,8,1,7.93,1.38,11.77L179.8,170l2.22,22.8q-11.06,1.13-22.15,2l-2.46-27.3c-.4-4.39-1.61-9.78-6.07-10.95a8,8,0,0,0-6.52,1.53c-6.44,4.67-4.78,9.24-4.08,16.92.38,4.14-.53,16.8-.54,21C126.68,196.7,113.15,197,99.63,196.57Z"/></g></g></svg>