<svg xmlns="http://www.w3.org/2000/svg" viewBox="0 0 269.42 289.05"><defs><style>.cls-1{fill:#5dad7d;}.cls-2{fill:#fff;}</style></defs><g id="Calque_2" data-name="Calque 2"><g id="Calque_1-2" data-name="Calque 1"><path class="cls-1" d="M2.47,105.05C-8.13,32.35,13.78,26.86,99.73,3.61S176.26,76.93,236.48,81.7s29,159.81-22.63,172.94S102.13,314.1,64.56,271.26,15.76,196.15,2.47,105.05Z"/><path class="cls-2" d="M208.56,134.67C189.68,115,170.24,96,151.45,76.23q-8.25-8.66-16.31-17.51c-1.23-1.35-2.9.36-3.66,1.26-18.33,21.48-38,41.78-55.72,63.82-4.9,6.11-9.63,12.35-14.1,18.78A9,9,0,0,0,60,147.47c0,.85.21,3,1.45,3.14l21.58,2.12a63.56,63.56,0,0,0,.91,8.18q.75,6.33,1.49,12.66l1.59,13.52c.51,4.31.59,9,2,13.11,0,.1.13.13.27.12,0,.13,0,.22.21.23,30.37.92,60.85-1.29,91-4.61,1.7-.18,3.6-1.88,4.84-2.89.85-.7,3.07-2.16,2.95-3.42-1.44-14.71-2.72-29.45-4.31-44.14,7.17,0,14.23-1.93,21.43-1.48,1.66.1,3.06-2.86,3.45-4C209.43,138.42,209.82,136,208.56,134.67Zm-90-50.3Q125.35,76.76,132,69c17.87,19.55,36.6,38.27,55.17,57.14,2.86,2.91,5.68,5.84,8.53,8.75a65.11,65.11,0,0,1-12.31.81,1.67,1.67,0,0,0-.85.18,13,13,0,0,0-4.34-5.49c-3-2.38-6-4.81-8.88-7.33-5.85-5.06-11.45-10.4-17-15.8C145.88,101,139.51,94.61,133,88.4c-.61-.59-3.15,1.33-3.51,1.58a19.28,19.28,0,0,0-4.3,3.86c-9.73,12.5-19.17,25.21-28.76,37.82q-3.61,4.74-7.26,9.47c-.52.67-1.08,1.34-1.64,2l-17.42-1.7C85,121.39,101.93,103,118.55,84.37ZM97.09,194.15c0-.06.07-.13,0-.19-1.15-3.36-1.29-7.06-1.7-10.57L94,171.14q-.7-5.91-1.39-11.82c-.47-4-1.18-8-1.36-11.94s2.1-6.56,4.43-9.57,4.71-6.11,7-9.18c4.63-6.08,9.22-12.19,13.83-18.29,3.46-4.57,7-9.12,10.45-13.67,10.62,10.23,20.89,20.85,31.93,30.65q4.29,3.81,8.76,7.42c2.84,2.29,6.11,4.3,7.14,8s1,8,1.38,11.8q.63,6.48,1.27,12.94,1.13,11.43,2.24,22.87-11.08,1.14-22.21,2L155,165c-.4-4.41-1.61-9.81-6.09-11a8,8,0,0,0-6.54,1.53c-6.46,4.69-4.79,9.28-4.08,17,.38,4.15-.54,16.85-.54,21.11C124.22,194.28,110.64,194.56,97.09,194.15Z"/></g></g></svg>