<svg xmlns="http://www.w3.org/2000/svg" viewBox="0 0 307.26 204.39"><defs><style>.cls-1{fill:#b63955;}</style></defs><title>Fond2</title><g id="Calque_2" data-name="Calque 2"><g id="Calque_1-2" data-name="Calque 1"><path class="cls-1" d="M.16,63.24S0,54.05,12.62,45.39A115.34,115.34,0,0,0,25.86,35.15c6.08-6.36,13-12.36,21.37-15,10.64-3.32,22.1-.82,33,1.44,28,5.8,57.85,9.74,84.57-.42,19.95-7.58,38.37-22.93,59.62-21,7,.63,13.59,3.12,20.13,5.59,15.82,6,32.8,12.9,41.53,27.4,7.78,12.9,2.33,29.19,7.67,43.28,5.8,15.31,15.24,27.63,13.23,43.88-1.84,14.89-7,26.46-18.44,36.15a201.06,201.06,0,0,0-29.7,31.19c-5.69,7.41-11.28,8.45-19.58,12.73-6.12,3.15-13.18,3.9-20.05,4a120.42,120.42,0,0,1-38.61-5.78c-15.64-5-30-6.14-45.34-11.91s-32.55-9.08-48.16-4c-5.5,1.8-10.65,4.6-16.24,6.13C53.83,193.49,34.1,184.11,27,168c-8.28-18.69-.29-41.14-6.84-60.5-2.76-8.17-4.57-8.33-8.24-16.13-1.6-3.4-4.17-9.1-8-14C1.73,74.52-.64,67,.16,63.24"/></g></g></svg>