<svg xmlns="http://www.w3.org/2000/svg" xmlns:xlink="http://www.w3.org/1999/xlink" viewBox="0 0 4000 2000"><defs><style>.cls-1{fill:#0066b2;}.cls-2{fill:#fff;}.cls-3{fill:none;}</style></defs><title>fond-avi-</title><g id="Calque_2" data-name="Calque 2"><g id="Calque_1-2" data-name="Calque 1"><rect class="cls-1" width="4000" height="2000"/><path class="cls-1" d="M265.47,1735.67l-.27,20.83c.17,8.63,37.07,14.92,82.42,14s82-8.6,81.81-17.23l0-17.93"/><path class="cls-2" d="M340.84,1775.13c-21.34,0-79.83-1.56-80.16-18.54l.26-21,9.05.12-.26,20.34c3,3.92,29,10.89,77.8,10s74.6-9,77.38-13l0-17.65,9.05,0,0,17.93c.13,6.87-8.58,12-27.43,15.94-15.73,3.31-36.62,5.37-58.82,5.8C346.53,1775.09,344.12,1775.13,340.84,1775.13Zm84.07-21.79v0Z"/><path class="cls-2" d="M289.31,1753.63l-.05-2-8.47,1.75,5.32,13.07a4.48,4.48,0,0,0,2.05,2.57,4.2,4.2,0,0,0,3.28.23A4.72,4.72,0,0,0,294,1767a4.47,4.47,0,0,0,.38-3.41l-5.32-13.07a4.36,4.36,0,0,0-2-2.57,4.25,4.25,0,0,0-2.74-.34,4.7,4.7,0,0,0-3.68,4.66l.05,2a4.2,4.2,0,0,0,4.4,4.15,4.77,4.77,0,0,0,4.23-4.77Z"/><path class="cls-2" d="M315.55,1759.74a49.39,49.39,0,0,0,5.2,13.3c1,1.73,3.27.71,4.44-.31a7.39,7.39,0,0,0,2.1-2.79,3.24,3.24,0,0,0,.24-2.56,49.09,49.09,0,0,1-5.21-13.3c-.16-.73-1.16-1-1.77-.95a5,5,0,0,0-2.66,1.26c-1.53,1.33-2.82,3.26-2.34,5.35Z"/><path class="cls-2" d="M354.38,1761.05l3.57,9.65a2.77,2.77,0,0,0,1.62,1.89,2.71,2.71,0,0,0,2.4-.64,6,6,0,0,0,1.78-2.8,5.59,5.59,0,0,0,.12-3.31l-3.58-9.65a2.74,2.74,0,0,0-1.61-1.89,2.71,2.71,0,0,0-2.4.64,5.84,5.84,0,0,0-1.78,2.79,5.54,5.54,0,0,0-.12,3.32Z"/><path class="cls-2" d="M384.67,1753.66a30.41,30.41,0,0,0,2.38,13.51c.87,2.06,3.69,2.81,5.69,2.18s3.84-2.36,2.92-4.52a29.3,29.3,0,0,1-1.55-4.81l.21.93a28.19,28.19,0,0,1-.61-7.77,3.31,3.31,0,0,0-1.46-2.44,5.27,5.27,0,0,0-3.25-.87c-2.2.2-4.19,1.44-4.33,3.79Z"/><path class="cls-2" d="M408.66,1752.32l.38.45-.69-.83a21.71,21.71,0,0,1,3,4.85l-.44-1a21.94,21.94,0,0,1,1.55,5.08l-.19-1.1q.14.78.21,1.56a4.37,4.37,0,0,0,1.31,2.93,3.86,3.86,0,0,0,3,.94,4.86,4.86,0,0,0,4-5,25.31,25.31,0,0,0-1.86-7.57,28,28,0,0,0-1.91-3.79,28.63,28.63,0,0,0-2.69-3.51,3.76,3.76,0,0,0-3-.94,4.56,4.56,0,0,0-2.85,1.63,5,5,0,0,0-1.13,3.33,4.77,4.77,0,0,0,1.32,2.92Z"/><path class="cls-2" d="M340.87,1755.58c-21.32,0-79.86-1.55-80.19-18.54-.38-19.6,77.38-21.67,86.25-21.85s86.65-1.11,87,18.49h0c.13,7-8.58,12.07-27.43,16-15.72,3.31-36.61,5.37-58.82,5.8C346.53,1755.54,344.14,1755.58,340.87,1755.58ZM270,1736.85c4.22,4,30.09,10.54,77.49,9.62s73-8.47,77.06-12.61c-4.22-4-30.16-10.53-77.49-9.62S274.1,1732.72,270,1736.85Z"/><path class="cls-1" d="M226.37,1708.3l-.27,20.83c.16,8.63,37.07,14.92,82.42,14s82-8.59,81.81-17.23l0-17.92"/><path class="cls-2" d="M301.74,1747.75c-21.34,0-79.84-1.55-80.17-18.54l.27-21,9,.12-.26,20.33c3,3.93,29,10.9,77.8,10s74.6-9,77.38-13l0-17.65,9,0,0,17.93c.14,6.87-8.58,12-27.43,15.93-15.71,3.31-36.61,5.38-58.81,5.81C307.42,1747.72,305,1747.75,301.74,1747.75ZM385.81,1726v0Z"/><path class="cls-2" d="M250.21,1726.26l-.05-2-8.47,1.75,5.32,13.07a4.52,4.52,0,0,0,2.05,2.57,4.25,4.25,0,0,0,3.28.23,4.72,4.72,0,0,0,2.59-2.26,4.47,4.47,0,0,0,.38-3.41L250,1723.11a4.38,4.38,0,0,0-2.05-2.57,4.22,4.22,0,0,0-2.73-.34,4.7,4.7,0,0,0-3.68,4.66l.05,2A4.2,4.2,0,0,0,246,1731a4.77,4.77,0,0,0,4.23-4.77Z"/><path class="cls-2" d="M276.45,1732.37a49.07,49.07,0,0,0,5.2,13.3c1,1.73,3.26.71,4.43-.31a7.31,7.31,0,0,0,2.11-2.79,3.24,3.24,0,0,0,.23-2.56,49.39,49.39,0,0,1-5.2-13.3c-.17-.73-1.16-1-1.77-1a5,5,0,0,0-2.66,1.25c-1.53,1.34-2.83,3.26-2.34,5.36Z"/><path class="cls-2" d="M315.28,1733.68l3.57,9.65a2.78,2.78,0,0,0,1.61,1.89,2.71,2.71,0,0,0,2.4-.64,5.89,5.89,0,0,0,1.79-2.8,5.67,5.67,0,0,0,.12-3.31l-3.58-9.65a2.76,2.76,0,0,0-1.61-1.89,2.65,2.65,0,0,0-2.4.64,5.86,5.86,0,0,0-1.79,2.79,5.62,5.62,0,0,0-.11,3.32Z"/><path class="cls-2" d="M345.57,1726.28A30.43,30.43,0,0,0,348,1739.8c.87,2,3.68,2.81,5.69,2.18s3.83-2.36,2.92-4.53a28.7,28.7,0,0,1-1.55-4.81l.21.94a28.19,28.19,0,0,1-.61-7.77,3.31,3.31,0,0,0-1.46-2.44,5.27,5.27,0,0,0-3.25-.87c-2.2.2-4.19,1.43-4.33,3.78Z"/><path class="cls-2" d="M369.55,1725l.39.45-.69-.83a21.49,21.49,0,0,1,3,4.85l-.44-1a21.52,21.52,0,0,1,1.54,5.09l-.18-1.1q.13.78.21,1.56a4.37,4.37,0,0,0,1.31,2.93,3.86,3.86,0,0,0,3,.94,4.85,4.85,0,0,0,4-5,25.07,25.07,0,0,0-1.85-7.57,24,24,0,0,0-4.6-7.3,3.79,3.79,0,0,0-3-.93,4.56,4.56,0,0,0-2.86,1.63,5,5,0,0,0-1.12,3.33,4.84,4.84,0,0,0,1.31,2.92Z"/><path class="cls-2" d="M301.74,1728.2c-21.34,0-79.84-1.55-80.17-18.54-.13-7,8.59-12.06,27.43-16,15.72-3.31,36.61-5.38,58.82-5.81s43.16.82,59,3.52c19,3.24,27.9,8,28,15h0c.14,7-8.58,12.06-27.43,16-15.72,3.31-36.61,5.38-58.81,5.81C307.42,1728.17,305,1728.2,301.74,1728.2Zm-70.8-18.72c4.22,4,30.12,10.51,77.49,9.62s73-8.47,77.06-12.61c-4.22-4-30.15-10.53-77.49-9.62S235,1705.34,230.94,1709.48Z"/><path class="cls-1" d="M281.11,1684.84l-.27,20.83c.17,8.63,37.07,14.92,82.42,14s82-8.59,81.81-17.23l.05-17.92"/><path class="cls-2" d="M356.49,1724.29c-21.34,0-79.84-1.55-80.17-18.54l.27-21,9,.12-.26,20.33c3,3.93,29.08,10.91,77.8,10,48.89-1,74.6-9,77.38-13l0-17.66,9.05,0,0,17.93c.13,6.87-8.58,12-27.43,15.93-15.72,3.31-36.61,5.37-58.82,5.8C362.17,1724.26,359.77,1724.29,356.49,1724.29Zm84.06-21.78v0Z"/><path class="cls-2" d="M305,1702.79l-.05-2-8.47,1.75,5.32,13.07a4.52,4.52,0,0,0,2.05,2.57,4.21,4.21,0,0,0,3.28.22,4.66,4.66,0,0,0,2.59-2.25,4.47,4.47,0,0,0,.38-3.41l-5.31-13.07a4.41,4.41,0,0,0-2.05-2.57,4.25,4.25,0,0,0-2.74-.34,4.7,4.7,0,0,0-3.68,4.66l.05,2a4.19,4.19,0,0,0,4.4,4.14,4.75,4.75,0,0,0,4.23-4.77Z"/><path class="cls-2" d="M331.19,1708.9a49.33,49.33,0,0,0,5.2,13.31c1,1.73,3.27.71,4.44-.31a7.52,7.52,0,0,0,2.11-2.79,3.28,3.28,0,0,0,.23-2.56,48.74,48.74,0,0,1-5.2-13.3c-.17-.74-1.17-1-1.78-1a5.11,5.11,0,0,0-2.66,1.26c-1.53,1.34-2.82,3.26-2.34,5.35Z"/><path class="cls-2" d="M370,1710.21l3.57,9.65a2.73,2.73,0,0,0,1.62,1.89,2.66,2.66,0,0,0,2.4-.64,5.87,5.87,0,0,0,1.78-2.79,5.59,5.59,0,0,0,.12-3.31l-3.58-9.65a2.7,2.7,0,0,0-1.61-1.89,2.65,2.65,0,0,0-2.4.64,5.79,5.79,0,0,0-1.78,2.79,5.59,5.59,0,0,0-.12,3.31Z"/><path class="cls-2" d="M400.31,1702.82a30.43,30.43,0,0,0,2.38,13.52c.87,2.05,3.69,2.81,5.69,2.18s3.84-2.37,2.92-4.53a28.7,28.7,0,0,1-1.55-4.81l.21.94a28.23,28.23,0,0,1-.61-7.78,3.29,3.29,0,0,0-1.46-2.43,5.25,5.25,0,0,0-3.25-.87c-2.2.2-4.19,1.43-4.33,3.78Z"/><path class="cls-2" d="M424.3,1701.49l.38.45-.68-.83a21.81,21.81,0,0,1,3,4.85l-.44-1a22,22,0,0,1,1.55,5.09l-.19-1.1q.13.78.21,1.56a4.44,4.44,0,0,0,1.31,2.93,3.84,3.84,0,0,0,3,.93,4.84,4.84,0,0,0,4-5,25,25,0,0,0-1.86-7.57,27.89,27.89,0,0,0-1.91-3.78,29.52,29.52,0,0,0-2.69-3.52,3.83,3.83,0,0,0-3-.94,4.62,4.62,0,0,0-2.85,1.64,5,5,0,0,0-1.13,3.33,4.79,4.79,0,0,0,1.32,2.92Z"/><path class="cls-2" d="M356.49,1704.74c-21.34,0-79.84-1.55-80.17-18.54-.14-7,8.58-12.07,27.43-16,15.72-3.31,36.61-5.37,58.82-5.8,8.87-.14,86.65-1.11,87,18.49.13,7-8.58,12.06-27.43,16-15.72,3.31-36.61,5.37-58.82,5.8C362.17,1704.7,359.77,1704.74,356.49,1704.74ZM285.68,1686c4.22,4,30.12,10.54,77.49,9.62s73-8.47,77.06-12.61c-4.21-4-30.11-10.54-77.49-9.62S289.74,1681.88,285.68,1686Z"/><path class="cls-1" d="M292.24,1651.06l6.68,24.11c3.91,13,42.31,17,85.76,4s75.5-38.07,71.59-51.12L449,1602.44"/><path class="cls-2" d="M292.68,1650.94l3.1,6.74,2.9,6.79c1,2.25,1.85,4.54,2.78,6.81l.68,1.71a5.87,5.87,0,0,0,.64,1.38,6.06,6.06,0,0,0,1.47,1.49c2.53,2,6.9,3.25,11.19,3.85a80.28,80.28,0,0,0,13.52.8,165.91,165.91,0,0,0,27.71-3,209.6,209.6,0,0,0,27.31-6.7,220.26,220.26,0,0,0,26.39-9.77,177.11,177.11,0,0,0,24.7-13,88.49,88.49,0,0,0,10.79-8.21c3.22-2.87,6-6.46,6.7-9.3a5,5,0,0,0,.14-1,4.25,4.25,0,0,0,0-.5l-.16-.91-.65-3.63c-.44-2.42-.85-4.84-1.21-7.28-.81-4.86-1.46-9.75-2.08-14.65l.87-.25,4.05,14.08,2,7,1,3.52a10.48,10.48,0,0,1,.6,3.78,15.91,15.91,0,0,1-2.42,7.13,37.71,37.71,0,0,1-4.46,6,77.69,77.69,0,0,1-11,9.83c-15.83,11.69-33.95,19.88-52.62,25.81-18.75,5.65-38.35,9.08-58,8.23a81.19,81.19,0,0,1-14.62-2c-4.73-1.24-9.65-2.85-13.29-6.52a9.72,9.72,0,0,1-2.08-3.25c-.47-1.22-.68-2.37-1-3.56l-1.93-7.07-3.86-14.14Z"/><path class="cls-1" d="M292.68,1650.94s17.57-53,155.91-48.37"/><path class="cls-2" d="M328,1663.67l-.82-3a4.14,4.14,0,0,0-5.33-2.8,4.8,4.8,0,0,0-3,5.66l4.93,19.2a4.14,4.14,0,0,0,5.33,2.8,4.8,4.8,0,0,0,3-5.66l-4.93-19.2-8.3,2.86.82,3a4.14,4.14,0,0,0,5.32,2.8,4.8,4.8,0,0,0,3-5.67Z"/><path class="cls-2" d="M354.56,1663.21c1.51,6.64,2.82,13.33,3.87,20.07.3,2,2.22,2,3.68,1.08s3.72-3.22,3.4-5.25c-1.12-7.24-2.55-14.42-4.18-21.56-.16-.73-1.16-1-1.77-1a5,5,0,0,0-2.66,1.26c-1.53,1.34-2.82,3.25-2.34,5.35Z"/><path class="cls-2" d="M381.36,1655.46l5,18.52a2.39,2.39,0,0,0,4,1.25,6.26,6.26,0,0,0,1.9-6.11l-5-18.52a2.39,2.39,0,0,0-4-1.25,6.26,6.26,0,0,0-1.9,6.11Z"/><path class="cls-2" d="M405.78,1640.78a73.92,73.92,0,0,0,7.68,19.49,4.89,4.89,0,0,0,5.69,2.17c1.64-.51,4.1-2.47,2.92-4.52a73.79,73.79,0,0,1-7.68-19.49c-.21-.89-1.42-1.7-2.18-2a5.6,5.6,0,0,0-3.5-.18,4.54,4.54,0,0,0-2.62,1.77,3.37,3.37,0,0,0-.31,2.76Z"/><path class="cls-2" d="M428.58,1627.42a34.68,34.68,0,0,1,3.39,3.36l.36.41.18.21c-.41-.48,0,0,.08.11s.29.36.42.54c.51.66,1,1.34,1.45,2a44.1,44.1,0,0,1,2.49,4.25c.19.38.38.76.56,1.15.06.13.4.89.14.28s0,0,.07.16c.36.83.68,1.68,1,2.54a3.9,3.9,0,0,0,5.22,2.47c2-.94,3.56-3.5,2.74-5.77a44.51,44.51,0,0,0-12.39-18.69,4.13,4.13,0,0,0-5.89.7c-1.35,1.78-1.67,4.65.19,6.25Z"/><path class="cls-2" d="M364,1604.57c7-2.34,14.06-4.46,21.22-6.25s14.34-3.51,21.65-4.68a133.12,133.12,0,0,1,22.18-2.13,52,52,0,0,1,11.36,1.15,20.1,20.1,0,0,1,5.67,2.18,10.19,10.19,0,0,1,4.54,5.13,10.61,10.61,0,0,1-.19,7,21.64,21.64,0,0,1-3,5.52,51.79,51.79,0,0,1-8.07,8.5,125.13,125.13,0,0,1-18.71,12.87,210.17,210.17,0,0,1-20.16,10c-6.89,2.95-13.9,5.56-21,8a229.91,229.91,0,0,1-43.81,9.87,122.74,122.74,0,0,1-22.71.71,51.49,51.49,0,0,1-11.54-2.06,21.72,21.72,0,0,1-5.68-2.68,10.68,10.68,0,0,1-4.31-5.54,10.24,10.24,0,0,1,.63-6.84,20.22,20.22,0,0,1,3.28-5.12,52.16,52.16,0,0,1,8.48-7.65A131.87,131.87,0,0,1,323,1621.14c6.59-3.38,13.38-6.29,20.22-9S357,1606.83,364,1604.57Zm0,0a225.93,225.93,0,0,0-40.41,17.68,119.67,119.67,0,0,0-18,12.43,46.92,46.92,0,0,0-7.33,7.75c-2,2.74-3.37,6.1-2.45,8.32s3.93,3.64,7.15,4.37a49.08,49.08,0,0,0,10.31,1,130.17,130.17,0,0,0,21.37-2.08c7.13-1.15,14.18-2.82,21.21-4.6s14-3.86,20.88-6.14,13.75-4.66,20.46-7.41,13.39-5.55,19.82-8.84a129,129,0,0,0,18.46-11,48.47,48.47,0,0,0,7.73-6.9c2.17-2.49,3.77-5.47,3.18-7.77s-3.67-4.25-6.92-5.27a46.29,46.29,0,0,0-10.49-1.9,119,119,0,0,0-21.9.67A226.1,226.1,0,0,0,364,1604.57Z"/><path class="cls-2" d="M390.54,1623c2.25-7.31-7.4-12-18.5-11.5s-25.71,6.31-28.8,14.4c-1.84,4.8-1.17,7.68,0,9.18.92,1.17,3.73,3,5.11,2.08s2.18-2.43,1.4-3.34c-2.18-2.52-1.82-6.27.31-10.11,1.82-3.29,8-5.49,12.55-6.51,5.29-1.17,10.62-1.16,14.13.41,3.29,1.47,5.12,4.24,4.13,7.44-.33,1.08,3.5,1.44,5.49,1s3.84-1.91,4.19-3.06Z"/><path class="cls-2" d="M355.33,1615.42a44.71,44.71,0,0,1,4.33,11c.22.91,1.74,0,2.53-.6,1-.85,2.72-2.51,2.49-3.42a46.64,46.64,0,0,0-4.5-11.63c-.44-.78-2.73,1.12-3.09,1.46-.91.9-2.21,2.33-1.76,3.15Z"/><path class="cls-2" d="M364.52,1612.18a44.32,44.32,0,0,1,4.33,11c.22.91,1.74,0,2.53-.61,1.05-.85,2.72-2.5,2.5-3.41a47.06,47.06,0,0,0-4.51-11.63c-.43-.79-2.73,1.11-3.08,1.46-.92.89-2.22,2.32-1.77,3.15Z"/><path class="cls-1" d="M292.38,1556.69l17.56,17.81c9.76,9.5,45.22-5.74,76.85-38.26s47.45-70,37.69-79.49l-18.77-18.81"/><path class="cls-2" d="M292.7,1556.37l6,4.38,5.84,4.52c2,1.49,3.83,3.07,5.75,4.6l1.42,1.16a5.31,5.31,0,0,0,1.24.89,5.68,5.68,0,0,0,2,.6c3.2.54,7.61-.53,11.65-2.08a81.78,81.78,0,0,0,12.21-5.88,167.63,167.63,0,0,0,22.76-16.08,210.38,210.38,0,0,0,20.6-19.13A220.39,220.39,0,0,0,400.46,1508a177.93,177.93,0,0,0,15.23-23.41,88.15,88.15,0,0,0,5.43-12.42c1.42-4.08,2.13-8.58,1.34-11.38a5.3,5.3,0,0,0-.36-.93c-.06-.15-.16-.27-.25-.44l-.59-.71-2.33-2.86c-1.56-1.89-3.1-3.81-4.6-5.77-3.07-3.85-6-7.81-8.94-11.79l.64-.64L416.41,1448l5.19,5.16,2.6,2.59a10.33,10.33,0,0,1,2.36,3,16,16,0,0,1,1.36,7.41,36.43,36.43,0,0,1-1,7.37,77.36,77.36,0,0,1-4.82,13.94c-8.15,17.91-20,33.88-33.42,48.15C375,1549.64,359.57,1562.17,342,1571a79.18,79.18,0,0,1-13.74,5.39c-4.73,1.23-9.81,2.21-14.78.77a9.71,9.71,0,0,1-3.39-1.82c-1-.84-1.75-1.74-2.64-2.61l-5.13-5.24L292.06,1557Z"/><path class="cls-1" d="M292.06,1557s7.41-81.55,113.33-118.75"/><path class="cls-2" d="M329.83,1550.26l-2.16-2.18a4.29,4.29,0,0,0-6.1.36,4.66,4.66,0,0,0,0,6.31l13.65,14.37a4.29,4.29,0,0,0,6.11-.36,4.66,4.66,0,0,0-.05-6.31l-13.65-14.37-6.06,6.67,2.16,2.19a4.29,4.29,0,0,0,6.1-.37,4.65,4.65,0,0,0,0-6.31Z"/><path class="cls-2" d="M351.33,1536.26c4.72,5.26,9.29,10.66,13.64,16.23.46.59,1.68.38,2.22.19a6.3,6.3,0,0,0,2.67-1.91c1.14-1.35,2.35-3.45,1.08-5.07-4.34-5.58-8.91-11-13.64-16.23-.51-.57-1.63-.39-2.22-.19a6.39,6.39,0,0,0-2.67,1.91c-1.06,1.26-2.45,3.55-1.08,5.07Z"/><path class="cls-2" d="M371.72,1517.55l13.4,13.74a2.21,2.21,0,0,0,2.33.24,4.77,4.77,0,0,0,2.11-2.17c.9-1.85,1.22-4.33-.33-5.93l-13.4-13.74a2.23,2.23,0,0,0-2.33-.25,4.82,4.82,0,0,0-2.1,2.18c-.91,1.85-1.23,4.33.32,5.93Z"/><path class="cls-2" d="M386,1491.35a77.29,77.29,0,0,0,16.93,14c1.89,1.12,4.7,1.29,6.39-.34a3,3,0,0,0-.26-5,70.66,70.66,0,0,1-8.36-5.89q-1-.78-1.89-1.59c-.24-.22-.82-.57-1-.87.34.32.41.38.2.18l-.21-.19-.43-.4c-1.31-1.24-2.57-2.53-3.79-3.85a5.28,5.28,0,0,0-6.25-.95c-1.68,1-2.94,3.22-1.36,4.94Z"/><path class="cls-2" d="M399.9,1469.7c.76.15,1.52.33,2.26.54a3.7,3.7,0,0,0,.57.16c-.25,0-.73-.23-.21-.06s.76.25,1.13.39a38.79,38.79,0,0,1,4.59,2q1.1.57,2.16,1.2l1.07.65.52.34c.51.31-.62-.44-.12-.09A48.56,48.56,0,0,1,416,1478a4.13,4.13,0,0,0,5.9-.7c1.35-1.78,1.66-4.63-.19-6.25a44.42,44.42,0,0,0-20-10.18c-2.27-.47-4.62,1.65-5,3.81a4.16,4.16,0,0,0,3.18,5Z"/><path class="cls-2" d="M332.42,1481.17c5-5.43,10.12-10.73,15.5-15.77s10.82-10,16.63-14.62a132.74,132.74,0,0,1,18.35-12.65,52.56,52.56,0,0,1,10.48-4.53,20.61,20.61,0,0,1,6-.85,10.16,10.16,0,0,1,6.47,2.28,10.61,10.61,0,0,1,3.23,6.2,21.31,21.31,0,0,1,.07,6.27,51.53,51.53,0,0,1-2.92,11.35,124.3,124.3,0,0,1-10.08,20.35,211.71,211.71,0,0,1-12.73,18.58C378.85,1503.7,374,1509.4,369,1515a229.66,229.66,0,0,1-33.48,29.94,123.14,123.14,0,0,1-19.5,11.67,51.2,51.2,0,0,1-11.08,3.81,21.57,21.57,0,0,1-6.27.42,10.64,10.64,0,0,1-6.45-2.74,10.22,10.22,0,0,1-2.79-6.28,20.3,20.3,0,0,1,.38-6.08,52.29,52.29,0,0,1,3.69-10.8,132.12,132.12,0,0,1,11.17-19.29c4.11-6.15,8.63-12,13.27-17.73S327.39,1486.56,332.42,1481.17Zm0,0a226.14,226.14,0,0,0-26.7,35.12,118.2,118.2,0,0,0-9.71,19.63,46.69,46.69,0,0,0-2.64,10.33c-.42,3.38,0,7,1.91,8.46s5.2,1.28,8.37.34a49.43,49.43,0,0,0,9.49-4.16,129.9,129.9,0,0,0,17.65-12.22c5.67-4.47,11-9.36,16.3-14.33s10.34-10.18,15.25-15.52,9.75-10.77,14.27-16.43,9-11.37,13-17.37a127.31,127.31,0,0,0,10.8-18.56,48.67,48.67,0,0,0,3.4-9.79c.68-3.24.63-6.62-1-8.34s-5.27-1.92-8.6-1.24a46.14,46.14,0,0,0-10.09,3.45,118.67,118.67,0,0,0-18.81,11.24A226.44,226.44,0,0,0,332.42,1481.17Z"/><path class="cls-2" d="M364.58,1484.31c-1.59-7.49-12.28-6.84-21.76-1s-19.39,18-18.15,26.59c.73,5.09,2.71,7.29,4.46,8,1.37.58,4.7.78,5.47-.67s.72-3.18-.4-3.6c-3.13-1.15-4.64-4.59-4.65-9,0-3.75,4.3-8.67,7.8-11.79,4-3.59,8.71-6.18,12.55-6.51,3.59-.32,6.53,1.21,7.22,4.49.24,1.1,3.76-.45,5.29-1.79s2.42-3.53,2.17-4.71Z"/><path class="cls-2" d="M330.16,1494.86a44.3,44.3,0,0,1,9.15,7.54c.64.69,1.54-.81,1.92-1.76.5-1.25,1.15-3.51.51-4.2a46.17,46.17,0,0,0-9.59-8c-.76-.48-1.84,2.29-2,2.77-.37,1.23-.81,3.11,0,3.61Z"/><path class="cls-2" d="M336.61,1487.56a44.25,44.25,0,0,1,9.15,7.53c.64.69,1.55-.81,1.92-1.75.5-1.26,1.16-3.51.52-4.2a46.74,46.74,0,0,0-9.59-8c-.77-.48-1.85,2.3-2,2.78-.37,1.22-.81,3.11,0,3.61Z"/><path class="cls-2" d="M1753,2000c0-10.5.59-22,1.62-32.28a4,4,0,0,1,8,.8c-1,10-1.74,21.24-1.79,31.48m9.54-86.53a4,4,0,0,1-1.17-.18,4,4,0,0,1-2.66-5,315.57,315.57,0,0,1,23.24-56,4,4,0,0,1,7.06,3.76,307.68,307.68,0,0,0-22.65,54.55A4,4,0,0,1,1770.36,1913.47ZM1826,1808a4,4,0,0,1-2.45-.84,4,4,0,0,1-.7-5.61,420.53,420.53,0,0,1,40.6-44.85,4,4,0,1,1,5.54,5.77,411.71,411.71,0,0,0-39.83,44A4,4,0,0,1,1826,1808Zm85.92-83.24a4,4,0,0,1-2.42-7.19c15.45-11.69,32.23-23.13,49.88-34a4,4,0,1,1,4.2,6.81c-17.44,10.74-34,22-49.25,33.57A4,4,0,0,1,1911.89,1724.78Zm1089.23-34.73h-.34a563.07,563.07,0,0,1-59.81-8.49,4,4,0,1,1,1.5-7.85,560.17,560.17,0,0,0,59,8.37,4,4,0,0,1-.32,8Zm59.88-.49a4,4,0,0,1-.48-8c1.2-.14,2.4-.3,3.59-.47,19-2.63,37.51-5.9,55.12-9.73a4,4,0,0,1,1.7,7.82c-17.81,3.87-36.56,7.18-55.73,9.84q-1.85.26-3.72.48Zm-177.84-21.07a4.11,4.11,0,0,1-1-.12c-17.12-4.31-36.11-9.42-58.08-15.64a4,4,0,1,1,2.18-7.7c21.89,6.2,40.81,11.29,57.85,15.58a4,4,0,0,1-1,7.88Zm294.84-4.67a4,4,0,0,1-1.23-7.8,509.64,509.64,0,0,0,55.48-21.42,4,4,0,1,1,3.32,7.27,515.67,515.67,0,0,1-56.34,21.76A4,4,0,0,1,3178,1663.82Zm-1164.23-2.2a4,4,0,0,1-1.83-7.56c17.3-8.87,35.65-17.5,54.53-25.66a4,4,0,0,1,3.18,7.34c-18.72,8.09-36.91,16.65-54.06,25.44A4,4,0,0,1,2013.77,1661.62Zm753.76-25.45a4.08,4.08,0,0,1-1.13-.17l-10.53-3.1c-15.35-4.51-31.22-9.19-47.06-13.77a4,4,0,0,1,2.23-7.69c15.85,4.59,31.73,9.27,47.09,13.79l10.53,3.1a4,4,0,0,1-1.13,7.84Zm-643.72-22.32a4,4,0,0,1-1.38-7.76c18.37-6.74,37.57-13.25,57.06-19.34a4,4,0,0,1,2.39,7.63c-19.37,6-38.44,12.52-56.69,19.22A4,4,0,0,1,2123.81,1613.85Zm1162.8-.12a4,4,0,0,1-2.15-7.38,388.21,388.21,0,0,0,47.5-35.49,4,4,0,1,1,5.27,6,396.25,396.25,0,0,1-48.48,36.22A3.89,3.89,0,0,1,3286.61,1613.73ZM2652.17,1603a3.79,3.79,0,0,1-1.05-.14c-20.87-5.66-39.85-10.54-58-14.91a4,4,0,0,1,1.87-7.78c18.26,4.39,37.32,9.29,58.26,15a4,4,0,0,1-1,7.86Zm-413.8-25.08a4,4,0,0,1-1-7.86c9-2.38,18.13-4.71,27.25-6.95,10.23-2.5,20.85-4.66,31.57-6.43a4,4,0,1,1,1.3,7.89c-10.52,1.74-20.94,3.86-31,6.32-9.07,2.21-18.19,4.54-27.11,6.9A4,4,0,0,1,2238.37,1577.94Zm297-2.72a3.42,3.42,0,0,1-.77-.08c-20.41-4-40.24-7.31-59-9.86a4,4,0,1,1,1.08-7.92c18.87,2.57,38.86,5.91,59.42,9.93a4,4,0,0,1-.77,7.93Zm-118.89-15.82h-.23c-12.71-.75-25.28-1.13-37.35-1.13-7.49,0-15,.15-22.23.44a4,4,0,0,1-.32-8c7.37-.29,15-.44,22.55-.44,12.23,0,24.95.39,37.82,1.15a4,4,0,0,1-.24,8ZM3376.4,1535a3.92,3.92,0,0,1-2.55-.93,4,4,0,0,1-.52-5.63,395,395,0,0,0,34.31-48.37,4,4,0,0,1,6.85,4.13,402.36,402.36,0,0,1-35,49.36A4,4,0,0,1,3376.4,1535Zm62-102.19a4,4,0,0,1-3.67-5.59,527.09,527.09,0,0,0,20.41-55.89,4,4,0,1,1,7.65,2.33,538.71,538.71,0,0,1-20.71,56.74A4,4,0,0,1,3438.41,1432.79Zm28.79-115.43a4,4,0,0,1-4-3.92c-.31-17.21-2.25-36.55-5.93-59.12a4,4,0,0,1,7.9-1.29c3.74,23,5.71,42.67,6,60.26a4,4,0,0,1-3.93,4.07Zm-17.85-118.52a4,4,0,0,1-3.89-3.1c-4-17.14-8.8-36.14-14.68-58.07a4,4,0,1,1,7.72-2.08c5.91,22,10.74,41.11,14.75,58.34a4,4,0,0,1-3,4.8A4.13,4.13,0,0,1,3449.35,1198.84Zm-30.7-116.1a4,4,0,0,1-3.85-2.92l-.72-2.55c-5.41-19.31-10.52-37.54-15.31-55.36a4,4,0,1,1,7.73-2.07c4.77,17.77,9.88,36,15.29,55.27l.71,2.55a4,4,0,0,1-2.77,4.93A3.66,3.66,0,0,1,3418.65,1082.74Zm-30.44-116.15a4,4,0,0,1-3.91-3.16c-1.41-6.54-2.67-12.78-3.73-18.56-2.19-11.93-5.29-24.92-9.47-39.72a4,4,0,1,1,7.7-2.18c4.25,15,7.4,28.28,9.64,40.46,1,5.69,2.28,11.85,3.68,18.31a4,4,0,0,1-3.06,4.76A4.17,4.17,0,0,1,3388.21,966.59ZM3458.15,872c-12,0-24.55-.11-37.23-.33a4,4,0,0,1,.07-8h.07c12.64.22,25.12.33,37.09.33,7.73,0,15.41,0,22.82-.13h.05a4,4,0,0,1,0,8C3473.62,872,3465.91,872,3458.15,872Zm82.84-2.1a4,4,0,0,1-.22-8c22.57-1.28,42.55-3.16,59.38-5.59a4,4,0,0,1,1.15,7.92c-17.07,2.46-37.28,4.36-60.08,5.66Zm-180,0h-.16c-20.34-.84-40.53-1.92-60-3.19a4,4,0,1,1,.52-8c19.43,1.27,39.57,2.33,59.84,3.18a4,4,0,0,1-.17,8Zm-119.76-8-.41,0-3.82-.4c-18-1.88-36.8-4.68-55.86-8.3a4,4,0,1,1,1.49-7.86c18.85,3.58,37.42,6.34,55.21,8.21l3.79.39a4,4,0,0,1-.4,8Zm115.38-11a4,4,0,0,1-3.78-2.69c-5.51-15.86-11.28-31.81-17.39-48.69l-2.81-7.79a4,4,0,0,1,7.52-2.72l2.82,7.79c6.11,16.9,11.89,32.87,17.42,48.78a4,4,0,0,1-2.46,5.09A3.83,3.83,0,0,1,3356.62,850.9Zm302.4-.44a4,4,0,0,1-1.22-7.82,452.84,452.84,0,0,0,55.39-21.49,4,4,0,1,1,3.41,7.23,460.1,460.1,0,0,1-56.37,21.89A4.24,4.24,0,0,1,3659,850.46Zm-535.6-10.54a4,4,0,0,1-1-.13c-18.54-4.9-37.44-10.46-57.77-17a4,4,0,0,1,2.45-7.62c20.19,6.48,39,12,57.36,16.86a4,4,0,0,1-1,7.87Zm-114.33-36.37a3.83,3.83,0,0,1-1.36-.24c-17-6.15-35.44-13.06-56.31-21.12a4,4,0,0,1,2.89-7.47c20.81,8,39.17,14.94,56.14,21.07a4,4,0,0,1-1.36,7.76Zm757.38-5.2a4,4,0,0,1-2.38-7.21,223.44,223.44,0,0,0,42.46-40.63,4,4,0,0,1,6.25,5,231.55,231.55,0,0,1-44,42.07A4,4,0,0,1,3766.47,798.35ZM2897,760.52a4,4,0,0,1-1.47-.28l-7.76-3.07c-15.75-6.24-32-12.69-48.06-18.95a4,4,0,0,1,2.91-7.45c16,6.26,32.34,12.72,48.1,19l7.76,3.07a4,4,0,0,1-1.48,7.72Zm419.42-22.75a4,4,0,0,1-3.78-2.72c-7.29-21.45-13.2-40.25-18.05-57.46a4,4,0,1,1,7.69-2.17c4.82,17.07,10.69,35.74,17.93,57.06a4,4,0,0,1-2.5,5.07A3.89,3.89,0,0,1,3316.39,737.77Zm-531.31-20.66a4,4,0,0,1-1.39-.25c-20.35-7.53-38.81-14.06-56.44-20a4,4,0,0,1,2.54-7.59c17.71,5.92,36.24,12.47,56.67,20a4,4,0,0,1-1.38,7.75Zm1055.73-11.22a4,4,0,0,1-3.61-5.7c9-19.14,14.92-37.43,18.1-55.9a4,4,0,0,1,7.89,1.36c-3.31,19.19-9.45,38.14-18.75,57.94A4,4,0,0,1,3840.81,705.89Zm-1169.56-26.5a4.09,4.09,0,0,1-1.09-.15c-20-5.64-39.47-10.51-58-14.46a4,4,0,0,1,1.68-7.82c18.65,4,38.32,8.89,58.45,14.58a4,4,0,0,1-1.08,7.85ZM2553.94,654.7a4.49,4.49,0,0,1-.51,0,580.63,580.63,0,0,0-59.31-4.6,4,4,0,0,1,.19-8,588.24,588.24,0,0,1,60.14,4.65,4,4,0,0,1-.51,8Zm730.76-32.61a4,4,0,0,1-3.94-3.3c-3.82-21.53-5.68-40.72-5.68-58.66V558.4a4,4,0,0,1,4-4h0a4,4,0,0,1,4,4v1.67c0,17.47,1.82,36.2,5.56,57.26a4,4,0,0,1-3.24,4.64A4.23,4.23,0,0,1,3284.7,622.09Zm574.76-32.83a4,4,0,0,1-3.93-3.32,178.78,178.78,0,0,0-19.44-55.09,4,4,0,0,1,7-3.82,186.46,186.46,0,0,1,20.29,57.56,4,4,0,0,1-3.95,4.67Zm-570.95-85.8a3.9,3.9,0,0,1-1.34-.23,4,4,0,0,1-2.43-5.11c.84-2.38,1.76-4.76,2.72-7.06a210.39,210.39,0,0,1,26.89-46.25,4,4,0,1,1,6.37,4.84,202.92,202.92,0,0,0-25.88,44.49c-.9,2.17-1.77,4.41-2.56,6.66A4,4,0,0,1,3288.51,503.46Zm521-22.36a4,4,0,0,1-3.4-1.89,517.61,517.61,0,0,0-33.84-48.88,4,4,0,0,1,6.27-5A525.33,525.33,0,0,1,3812.9,475a4,4,0,0,1-1.29,5.51A3.92,3.92,0,0,1,3809.51,481.1ZM3359,408a4,4,0,0,1-2.59-7,422.22,422.22,0,0,1,49-35.55,4,4,0,0,1,4.26,6.77,415.67,415.67,0,0,0-48.1,34.88A4,4,0,0,1,3359,408Zm375.39-19.77a4,4,0,0,1-2.68-1c-12.06-10.87-25.89-22.11-46.25-37.57a4,4,0,0,1,4.84-6.37c20.55,15.61,34.53,27,46.77,38a4,4,0,0,1-2.68,7Zm-274.86-45.53a4,4,0,0,1-2-7.48c2.2-1.24,4.25-2.42,6.17-3.55,13.67-8.06,30.74-14.2,50.74-18.25a4,4,0,1,1,1.58,7.84c-18.85,3.82-35.54,9.8-48.26,17.3-1.95,1.15-4.05,2.36-6.28,3.62A3.9,3.9,0,0,1,3459.54,342.72Zm174.71-18.12a4.06,4.06,0,0,1-1-.14,254.21,254.21,0,0,0-58.38-8,4,4,0,1,1,.2-8,262.62,262.62,0,0,1,60.25,8.32,4,4,0,0,1-1,7.87Z"/><path class="cls-2" d="M412.34,857.57h0c-17.58-.14-34.9-1-51.5-2.41q-4.4-.39-8.77-.84a4,4,0,0,1,.82-8c2.88.3,5.77.57,8.65.83,16.39,1.44,33.5,2.24,50.86,2.38a4,4,0,0,1,0,8Zm60-1.89a4,4,0,0,1-.26-8c18.84-1.28,38.3-3.18,59.48-5.8a4,4,0,0,1,1,7.94c-21.32,2.64-40.93,4.55-59.92,5.84ZM293.16,845.43a4.08,4.08,0,0,1-.77-.07c-18.88-3.7-38.62-8.36-58.67-13.85a4,4,0,1,1,2.12-7.72c19.85,5.44,39.4,10.06,58.09,13.72a4,4,0,0,1-.77,7.92Zm298.21-4.1a4,4,0,0,1-.62-8c20.75-3.33,41.52-7,59.1-10a4,4,0,0,1,1.39,7.88c-17.61,3.11-38.42,6.73-59.22,10.06A3.57,3.57,0,0,1,591.37,841.33Zm118.25-20.49a4,4,0,0,1-.67-7.94c23.12-4,42-7.07,59.31-9.67a4,4,0,0,1,1.19,7.91c-17.29,2.59-36.08,5.65-59.13,9.65A3.35,3.35,0,0,1,709.62,820.84Zm-532.2-6.78a4,4,0,0,1-1.27-.21c-17.9-6-36.41-12.71-56.59-20.43a4,4,0,0,1,2.85-7.47c20.08,7.68,38.49,14.33,56.29,20.32a4,4,0,0,1-1.28,7.79Zm650.93-10.6a4,4,0,0,1-.42-8c21.27-2.26,40.92-3.76,60.07-4.58a4,4,0,1,1,.34,8c-19,.82-38.46,2.3-59.56,4.55Zm175.47.13a4.9,4.9,0,0,1-.54,0c-17.8-2.42-36.41-4-55.29-4.82a4,4,0,1,1,.32-8c19.14.78,38,2.43,56.05,4.88a4,4,0,0,1-.54,8ZM65.23,771.5a4,4,0,0,1-1.51-.3c-18.14-7.46-35.82-14.89-55.4-23.14a4,4,0,1,1,3.1-7.37C31,748.93,48.65,756.36,66.76,763.8a4,4,0,0,1-1.53,7.7Z"/><rect class="cls-3" x="6.7" y="596.65" width="500" height="500" transform="translate(1.58 -0.48) rotate(0.11)"/><rect class="cls-3" x="506.7" y="597.58" width="500" height="500" transform="translate(1.59 -1.41) rotate(0.11)"/><path class="cls-2" d="M906.08,642.31S908,578,999.59,521.25c65.86-40.78,96.64-67.57,96.64-67.57,44.87-42.61,95.41-82.46,155.46-98.23,76.07-20,156.19,1.13,232.47,20.35,195.76,49.33,405.22,86.21,597,23.44,143.13-46.86,219.63-86.75,369-66.76,48.91,6.54,210.49,44.79,255.84,64.12,109.81,46.82,170.24,20,227.34,124.17,50.85,92.78,7.34,205.08,40.65,305.38,36.2,109,98.94,198.19,79.71,311.36-17.62,103.62-57.6,183-141.38,247.32-80.34,61.65-121.11,23.81-186.4,101-42.41,50.13-91.16,130-151.09,157.34-44.11,20.16-111.61,24.41-160.17,23-92.3-2.74-137.08-5-223.65-37-108.75-40.09-212-74-318.92-92.85-114.12-20.15-277.74-61.35-389.47-30.46-39.41,10.89-76.66,28.89-116.56,37.82-121.67,27.22-258-44.61-303.48-159.87-52.6-133.4,10.76-288.09-29.45-425.67-17-58-29.68-59.73-53.14-115.48-10.23-24.28-26.61-65-51.93-100.64-14.38-20.24-28.77-73.73-22-99.73"/><path class="cls-2" d="M416.52,403c22.16-4.31,47.26-14.11,69.41-18.41-5.27-11.8,1.77-29,20.26-42.44s43.92-26.06,66.46-29.78c17.23-2.84,28.42-3.94,41,5.18,13.32,9.66,25.34,32.1,31,47.52-11.12-10.53-33.87-7.22-49.59-1.76-14.45,5-51.1,19.79-64.49,27.18-22.21,12.26-26.43,19.85-24.63,29.23a76.28,76.28,0,0,1-20-35.13"/><path class="cls-2" d="M420.84,405.48a1149.35,1149.35,0,0,1,68.94-130.75l-4.32,2.47a1269.13,1269.13,0,0,0,195.69,7.24l-3.53-8.54a541.86,541.86,0,0,0-44.89,56.22c-3.68,5.3,5,10.3,8.64,5.05A521.38,521.38,0,0,1,684.69,283c2.78-3,1-8.72-3.54-8.53a1269.13,1269.13,0,0,1-195.69-7.24,4.92,4.92,0,0,0-4.32,2.48,1147.68,1147.68,0,0,0-68.93,130.75c-2.61,5.83,6,10.92,8.63,5.05Z"/><path class="cls-2" d="M499.13,416.32c1.24,16.65,18.08,22.37,32.55,20.62,16.42-2,33-4.37,48.53-10.13,21.66-8,45.71-18.45,61-36.51,5.9-7,16-20.34,7-28.8-4.68-4.41-11.77,2.65-7.07,7.07,4.23,4-10.09,18.29-12.81,20.81-8.11,7.54-18.72,13.58-28.61,18.48a174.33,174.33,0,0,1-45.13,15.59,250.8,250.8,0,0,1-25.42,3.76c-7.64.63-19.33-1.2-20-10.89-.47-6.38-10.48-6.43-10,0Z"/><path class="cls-2" d="M452.84,378.07l37.15,87,8.64-5.05c-4.09-9.13-18.21-8.64-22.88-.31-6.06,10.8,5,22.93,16.08,21.9,10.08-.93,18-9.08,17.26-19.25-.63-8.62-6.12-17.53-15.88-15.22-6.26,1.47-3.61,11.12,2.66,9.64,2.26-.54,3,3.93,3.23,5.48.42,3.47-.4,5.54-3.33,7.58-3.71,2.59-10.47,2.79-11.49-2.87a3,3,0,0,1,5.71-1.9c2.65,5.9,11.13.77,8.64-5.05l-37.16-87c-2.52-5.9-11.13-.82-8.63,5Z"/><path class="cls-2" d="M478.51,380.67q-30.66,6.76-60.56,16.42c-6.1,2-3.49,11.63,2.66,9.64q29.88-9.64,60.55-16.42c6.29-1.38,3.63-11-2.65-9.64Z"/><path class="cls-2" d="M3479.44,492.25c-15.52,26-9.58,57.28-3.37,85.09,3.42,15.33,6.81,30.68,6.95,46.45a142.61,142.61,0,0,1-27.43,85.56c-2.7,3.73,6.23,8,9.09,6.12,9.66-6.4,21.72-7.17,33-6.69,11.88.51,23.59,2.79,35.3,4.68,15.44,2.48,31.06,3.39,46.65,4.3,7.41.43,15,1.46,22.36,1.45s10.43-4.29,13.68-10.23c10.08-18.46,20.84-38.63,22-60.07a204,204,0,0,0-2.39-41.16c-2.08-13.6-7.07-26.44-9.27-40a150,150,0,0,1,14.59-91.66c1.8-3.51-4.3-6.93-7.11-6.72l-82.34,6.32-41.17,3.16-10.29.79c-2.88.22-6.27,0-9,.86-3.84,1.24-5.58,5.62-8.22,8.28-3.61,3.64,5.48,9.82,8.48,6.8a48.56,48.56,0,0,0,3.71-4.51c1.68-2.15,2.4-2.89,5.17-3.1l19.12-1.47,39.69-3,79.4-6.1-7.12-6.71a154.69,154.69,0,0,0-16.64,79.92c.88,13.73,4,26.56,7.7,39.75,3.72,13.38,5.06,27.36,5.49,41.2.34,11,0,21.9-3.38,32.5-3.23,10.2-7.94,19.92-12.76,29.45q-2.19,4.31-4.46,8.55c-1.42,2.63-2.85,6.55-5.4,8.28s-6.31.8-9.15.59c-4.29-.32-8.59-.59-12.89-.85-15.47-.93-31-1.68-46.3-4-13.28-2-26.46-4.62-39.93-5.2-12.65-.54-26.12.71-36.93,7.88l9.09,6.12a147.92,147.92,0,0,0,27.79-79.26c.72-15.12-1.31-30-4.42-44.79-3.24-15.4-7.46-30.76-8.6-46.51-1.16-16.07.69-32.5,9.07-46.54,2.33-3.9-7.32-9.42-9.69-5.44Z"/><path class="cls-2" d="M3502.16,576.52l18.08-41.11,2.52-5.74c.19-.42.37-.85.57-1.27.05-.12.11-.24.17-.36s.43-.82.19-.38.09-.13.12-.18.22-.34.34-.49a5.8,5.8,0,0,1,.8-.84l-.58.46a3.81,3.81,0,0,1,1.29-.68l-.71.19a3.43,3.43,0,0,1,.56-.08c.09,0,.67,0,.11,0s0,0,.09.06c.57.13-.65-.32-.29-.13s.27.38-.32-.27a2.69,2.69,0,0,0,.35.33s-.67-.87-.38-.41c.51.81-.34-.68-.18-.31.06.13.14.26.21.4.17.36.22.9-.15-.38.09.29.21.59.29.89l.09.36c.2.72-.18-1-.06-.31.07.41.13.83.18,1.25.47,3.82.79,7.67,1,11.51,0,.92.07,1.84.1,2.75l0,1.52c0,.22,0,.88,0,0,0,.27,0,.55,0,.82q0,3-.1,6-.22,5.77-.88,11.53-.75,6.55-2.09,13a5.55,5.55,0,0,0,.65,3.07,5.73,5.73,0,0,0,2.07,2.35,2.39,2.39,0,0,0,2.28.26,2.7,2.7,0,0,0,1.16-2,152.22,152.22,0,0,0,2-48.6c-.48-4-1.71-8.72-5.46-10.95a5.1,5.1,0,0,0-5.3-.17,9.42,9.42,0,0,0-3.26,4.16c-1.75,3.69-3.3,7.5-5,11.24l-5,11.48-11.24,25.58a4.55,4.55,0,0,0,0,2.85,6.46,6.46,0,0,0,1.73,2.82c1.3,1.12,3.18,1.59,4-.29Z"/><path class="cls-2" d="M3504.36,553.82a149.47,149.47,0,0,1,20.4,1,5.08,5.08,0,0,0,2-.42,19.86,19.86,0,0,0,3-1.3,10.05,10.05,0,0,0,2.18-1.38c.15-.14.68-.63.16-.7a149.47,149.47,0,0,0-20.4-1,12.1,12.1,0,0,0-5,1.73,9.71,9.71,0,0,0-2.19,1.37c-.11.11-.71.71-.16.7Z"/><path class="cls-2" d="M3537.28,524c-.23,4.12,1.22,8.06,2.63,11.85a59.48,59.48,0,0,1,3,11.1l-.14-.84c1.58,9.82,1.41,20.13,5.26,29.46a4.39,4.39,0,0,0,4.09,2.38,6.26,6.26,0,0,0,6-3.92c.67-1.59,1.2-3.26,1.79-4.88l3.86-10.54,7.66-21,4.3-11.74c.71-1.94-1.15-3.59-2.92-3.92s-4.57.08-5.31,2.1L3553,563.84l-2.05,5.6c-.32.86-.61,1.73-.95,2.58,0,.11-.09.23-.14.34-.3.64-.13,0,.08-.08,0,0-.6.62,0,.1.26-.22.29-.25.08-.09a4,4,0,0,1,2.25-.66l4.09,2.39a48.54,48.54,0,0,1-2.88-10.59l.14.84c-.79-4.82-1.14-9.69-1.75-14.53a66.74,66.74,0,0,0-3.39-14.83,46.8,46.8,0,0,1-2.52-8.09l.14.84a16,16,0,0,1-.2-3.53c.11-2.07-2.5-3.25-4.23-3.22s-4.22.9-4.34,3.07Z"/><path class="cls-2" d="M3584.1,526.68l15.55,1.49c2,.19,2.63-2.16,2.1-3.69a5.6,5.6,0,0,0-4.51-3.89l-15.55-1.49c-2-.19-2.63,2.16-2.1,3.69a5.6,5.6,0,0,0,4.51,3.89Z"/><path class="cls-2" d="M3586,523.35q-1.07,19.1-2.88,38.15-.24,2.61-.51,5.22c-.08.9-.18,1.79-.27,2.68,0,.44-.08.88-.14,1.31a3,3,0,0,0-.08.46l.11-.45a2.68,2.68,0,0,1-.19.42l.5-.77a2.61,2.61,0,0,1-.4.47l.73-.57c-.19.14-.59.2-.09.13a2.66,2.66,0,0,1,2.29.32c-1.6-.88-4.27-1-5,1.09a4.56,4.56,0,0,0,2.28,5.32c2.56,1.41,5.88.88,7.16-2,.75-1.68.71-3.79.9-5.59q.53-5.21,1-10.44,1-10.65,1.69-21.33.4-6,.75-12a4.94,4.94,0,0,0-3.51-4.86,3.66,3.66,0,0,0-2.83.18,2.93,2.93,0,0,0-1.46,2.24Z"/><path class="cls-2" d="M3576.08,579c1.49-.13,3-.25,4.47-.34l2.23-.12,1.12,0,.56,0c.78,0-.64,0-.11,0,3-.07,6.06-.08,9.1,0,2,.06,4.39-1.18,4.36-3.51a4.42,4.42,0,0,0-4.12-4.25,163.58,163.58,0,0,0-19.55.6,3.69,3.69,0,0,0-3.16,4.48,4.66,4.66,0,0,0,5.1,3.2Z"/><path class="cls-2" d="M3522.63,607.69q39.66,2.52,79.4,1.39c3.35-.1,2.16-3.74.89-5.49-1.85-2.55-5.45-5.31-8.79-5.21q-39.72,1.13-79.4-1.39c-3.44-.22-2,3.94-.89,5.49a12.47,12.47,0,0,0,8.79,5.21Z"/><path class="cls-2" d="M3523.93,638.16q40.07,2.54,80.23,1.4c2-.06-3.39-4.09-3.6-4.23-2.42-1.5-5.6-3.41-8.57-3.33q-39.28,1.13-78.55-1.37c-3-.2.48,2.64,1.28,3.22,2.43,1.76,6.09,4.11,9.21,4.31Z"/><path class="cls-2" d="M3512.82,671.74q39.64,2.52,79.39,1.38c1.72,0-2.22-4.41-2.55-4.78-1.29-1.42-4.79-5.87-7.08-5.81q-39.7,1.14-79.39-1.38c-1.72-.11,2.27,4.48,2.54,4.77,1.45,1.6,4.63,5.66,7.09,5.82Z"/><image width="2544" height="3504" transform="translate(3236.69 1214.16) rotate(8.77) scale(0.14)" xlink:href="../AVI%20copie.png"/></g></g></svg>