<svg xmlns="http://www.w3.org/2000/svg" viewBox="0 0 327.69 274.1"><defs><style>.cls-1{fill:#1d66af;}</style></defs><title>acces</title><g id="Calque_2" data-name="Calque 2"><g id="Calque_1-2" data-name="Calque 1"><path class="cls-1" d="M170.36,0a106,106,0,1,0,106,106A106.11,106.11,0,0,0,170.36,0Zm0,202.76A96.77,96.77,0,1,1,267.14,106,96.88,96.88,0,0,1,170.36,202.76Z"/><path class="cls-1" d="M216.26,20.36c7.47,12.29,1.77,28.31-10.66,34.82-5.74,3-12.24,3.91-17.6,7.77a17.35,17.35,0,0,0-5.26,5.59,28.27,28.27,0,0,0-1.56,3.67c-.23.62-.43,1.26-.69,1.86-.63,1.5-.4,1.62-1.35,1.91-2.58.8-6.58-2.26-8.39-3.81-2.63-2.26-4.25-5.61-6.9-7.77-4.29-3.5-11.14.17-14.39,3.59-4.06,4.27-5.67,11.46-6.48,17.11a52,52,0,0,0,1,19.73c2.74,11.21,10.41,25.61,23.54,26,3.62.11,7.41-.95,10.85.6,2.88,1.29,4.78,3.9,6.1,6.68,2.53,5.38,2.68,11.3,3.89,17,1.15,5.43,3.5,10.95,8.77,13.52s11.34,1.47,16.41-.65c5.62-2.37,10.5-6.33,13.1-11.94,2.69-5.82,2.14-11.84.83-18-.9-4.21-2.16-8.52-1.77-12.88A21.41,21.41,0,0,1,227.1,120c.68-1.94,1.41-1.69,3.47-.59,3.1,1.66,5,4.85,8.27,6.29a17.52,17.52,0,0,0,8.89,1.08c15.48-1.8,24-14.19,28.94-27.68.69-1.88-3.89-.56-4.38-.39-1.88.67-4.71,2-5.46,4-2.11,5.77-4.69,13.41-10,17.14-5.61,4-11.06-.8-15.19-4.27-8.34-7-22.7.93-25.34,10.41-3.39,12.2,7.91,25.6-1.59,36.73-4.7,5.49-12.73-1.57-14.8-6.2-2.27-5.06-2.4-10.67-3.5-16-1-4.76-2.81-9.79-6.72-12.92-5.52-4.42-12.06-1.09-18.18-2.9-11.91-3.53-17.77-19.79-19-30.85a49.3,49.3,0,0,1,1.77-19.32c.42-1.37.88-2.73,1.42-4.06.16-.38,1.27-2.22,1.14-2.51l-1.58.5c-1.76,0-2.06.42-.92,1.09.82,2.18,4.4,5.29,6.13,6.93,7.94,7.53,22.18,6.77,28.36-3,1.63-2.58,1.91-5.94,3.73-8.38s5.89-3,8.77-4.08a54.61,54.61,0,0,0,17-10c9.93-8.76,14.89-23.28,7.6-35.28-1.46-2.41-11,2.63-9.77,4.67Z"/><path class="cls-1" d="M129.61,15.51c-3-5.33-9.74-1.54-11.27,3-1,2.84-.66,6.42-.85,9.36l-.64,10c-.39,5.94-1.69,12.64-.48,18.54.49,2.37,2.74,5.09,2.4,7.52s-3.36,3.49-5.36,4c-5.36,1.32-11.07.32-16.19,2.76-4.66,2.22-7.34,6.7-8,11.71a41.16,41.16,0,0,0-.15,6c0,1.34.47,4.5-.47,5.67.43-.53-1.86.23-2,.25a34.57,34.57,0,0,1-4.43.41,47.6,47.6,0,0,1-10.58-1c-5.32-1-9.5,8.6-3.18,9.81,9.65,1.84,25.65,3,29.44-8.78,1.37-4.25.39-8.57.88-12.9.22-1.94.43-2.44,2.39-2.9,2.79-.67,5.83-.46,8.66-.81,10.34-1.3,22.1-9.86,17.67-21.6-1.06-2.8-1.86-5-1.75-8.05.12-3.52.44-7,.67-10.56L127,28.7l.3-4.62.2-3.08c.22-1.65.22-2,0-1.17l-3.16,2.76-1,.29L120.51,21l.33.59c3,5.22,11.48-1.36,8.77-6.11Z"/><path class="cls-1" d="M85.91,135.22a39.39,39.39,0,0,1,3.45-7.13c1.74-2.66,2.13-3,5.25-1.36,5.2,2.73,7.16,9,8.28,14.36,1.21,5.77,1.93,11.79,5.77,16.53a28.9,28.9,0,0,0,9.4,7.26c7.69,4,16.52,5.7,23.69,10.67,10.59,7.37,8.45,19.61,5.29,30.45-.63,2.15,3.93,1,4.62.73,2.05-.74,4.57-2.2,5.22-4.43,2.85-9.77,5.28-21.17-2.57-29.32-5.6-5.82-13.66-8.15-21-11-8-3.18-15.62-7.13-18.55-15.8-3-9-2.47-22.81-13.76-26.17-11.69-3.47-20.77,8.13-24.48,17.51-1.55,3.92,8.25.52,9.35-2.26Z"/><path class="cls-1" d="M13.08,136a154.15,154.15,0,0,1-2.16-25.7c0-1.82,0-3.64.1-5.46A5.46,5.46,0,1,0,.1,104.48c-.07,1.94-.1,3.89-.1,5.84a166.5,166.5,0,0,0,2.3,27.53,5.46,5.46,0,0,0,5.38,4.55,5.82,5.82,0,0,0,.92-.08A5.47,5.47,0,0,0,13.08,136Z"/><path class="cls-1" d="M35.73,193.85A153.1,153.1,0,0,1,21.41,166.1a5.46,5.46,0,1,0-10.16,4,163.64,163.64,0,0,0,15.33,29.73,5.47,5.47,0,0,0,4.58,2.47,5.58,5.58,0,0,0,3-.88A5.47,5.47,0,0,0,35.73,193.85Z"/><path class="cls-1" d="M137.2,260.94a152.89,152.89,0,0,1-30-8.53,5.46,5.46,0,1,0-4.05,10.14,162.09,162.09,0,0,0,32.17,9.14,5.17,5.17,0,0,0,.95.09,5.46,5.46,0,0,0,.95-10.84Z"/><path class="cls-1" d="M205.88,263.17a5.46,5.46,0,0,0-6.57-4.05,153.86,153.86,0,0,1-31,4.06,5.46,5.46,0,0,0,.15,10.92h.16a164.66,164.66,0,0,0,33.17-4.36A5.46,5.46,0,0,0,205.88,263.17Z"/><path class="cls-1" d="M79.52,237.91a154.72,154.72,0,0,1-24.15-19.8,5.46,5.46,0,1,0-7.74,7.71A165.61,165.61,0,0,0,73.49,247a5.46,5.46,0,0,0,6-9.11Z"/><path class="cls-1" d="M250.44,243.06a5.47,5.47,0,0,0-7.5-1.84A152.76,152.76,0,0,1,229,248.7a5.46,5.46,0,0,0,2.34,10.4,5.55,5.55,0,0,0,2.33-.52,164.41,164.41,0,0,0,14.92-8A5.47,5.47,0,0,0,250.44,243.06Z"/><path class="cls-1" d="M326.54,188.89a5.45,5.45,0,0,0-7.66-1l-49.16,38.23a5.5,5.5,0,0,0-2.1,4.31v16.39a5.46,5.46,0,1,0,10.92,0V233.14l47-36.59A5.46,5.46,0,0,0,326.54,188.89Z"/><path class="cls-1" d="M274.81,225.29l-16.39-5.46A5.46,5.46,0,1,0,255,230.19l16.38,5.46a5.46,5.46,0,0,0,3.46-10.36Z"/><path class="cls-1" d="M316.38,233.9l-10.93-27.31a5.42,5.42,0,0,0-2.26-2.65l-27.31-16.39a5.46,5.46,0,0,0-5.62,9.37L296,212.36,306.23,238a5.47,5.47,0,0,0,5.08,3.44,5.35,5.35,0,0,0,2-.4A5.46,5.46,0,0,0,316.38,233.9Z"/></g></g></svg>