<svg xmlns="http://www.w3.org/2000/svg" viewBox="0 0 82.74 82.74"><defs><style>.cls-1{fill:#1b66a9;stroke:#fff;}.cls-1,.cls-2{stroke-miterlimit:10;}.cls-2{fill:#fff;stroke:#1b66a9;}</style></defs><g id="Calque_2" data-name="Calque 2"><g id="Calque_1-2" data-name="Calque 1"><g id="Calque_2-2" data-name="Calque 2"><g id="Calque_1-2-2" data-name="Calque 1-2"><circle class="cls-1" cx="41.37" cy="41.37" r="40.87"/><path class="cls-2" d="M78.5,41.82c-.51.29-1,.53-1.49.84-5,3.46-5,3.48-8.4-1.31-.46-.64-.8-1.59-1.77-1.26s-1,1.2-1.13,1.95a133.94,133.94,0,0,0-2.84,15,9.27,9.27,0,0,1-3.23,6.89,4.66,4.66,0,0,1-7.94-2.21C51,59.26,52,56.47,51,54.36S46.59,53.08,45.17,51c-2.57-3.62-7.29-5-9.31-9.31a11,11,0,0,1-.6-9.42c.45-1,.76-2.22,1.16-3.19,2.21-5.5,2.39-5.54,6-1.2,2,2.4,4.43,2.06,5.32-1a8.85,8.85,0,0,1,5.63-6.3c4.92-2,5.6-3.56,4.3-8.95-.31-1.33-.6-2.64-.91-4C68.28,12.77,75,21.77,77.85,33.82a22,22,0,0,1,.65,8"/><path class="cls-2" d="M5.42,51.21c2.45-.94,4.88-2,7.35-2.83s4.6.21,4.3,3c-.38,5.68,2.65,8.3,7.53,10.06S33.19,66,34,71.42a6.45,6.45,0,0,1-1.27,5.76c-13.17-2.6-24.82-13.69-27.34-26"/><path class="cls-2" d="M22.06,9.48c3.63,5.4,3.26,9.88-1.14,14.52-2.2,2.37-5.27,4.4-4.09,8.48.36,1.23-.94,2.49-2.19,3-3.34,1.32-6.71,2.58-10.07,3.85A35.57,35.57,0,0,1,22.15,9.48"/></g></g></g></g></svg>