<svg xmlns="http://www.w3.org/2000/svg" xmlns:xlink="http://www.w3.org/1999/xlink" viewBox="0 0 439.14 215.12"><defs><style>.cls-1{fill:#fff;}.cls-2{fill:url(#Dégradé_sans_nom_12);}.cls-3{fill:#1d66af;}.cls-4{fill:#5db67d;}.cls-5{fill:url(#Dégradé_sans_nom_12-2);}.cls-6{fill:url(#Dégradé_sans_nom_12-3);}.cls-7{fill:url(#Dégradé_sans_nom_12-4);}.cls-8{fill:url(#Dégradé_sans_nom_12-5);}.cls-9{fill:url(#Dégradé_sans_nom_12-6);}.cls-10{fill:url(#Dégradé_sans_nom_12-7);}</style><linearGradient id="Dégradé_sans_nom_12" x1="213.98" y1="66.75" x2="439.14" y2="66.75" gradientUnits="userSpaceOnUse"><stop offset="0" stop-color="#1b66ae"/><stop offset="1" stop-color="#1c66ad"/></linearGradient><linearGradient id="Dégradé_sans_nom_12-2" x1="235.77" y1="102.55" x2="278.62" y2="102.55" xlink:href="#Dégradé_sans_nom_12"/><linearGradient id="Dégradé_sans_nom_12-3" x1="229.33" y1="105.88" x2="262.72" y2="105.88" xlink:href="#Dégradé_sans_nom_12"/><linearGradient id="Dégradé_sans_nom_12-4" x1="229.33" y1="94.39" x2="262.72" y2="94.39" xlink:href="#Dégradé_sans_nom_12"/><linearGradient id="Dégradé_sans_nom_12-5" x1="213.98" y1="30.74" x2="402.88" y2="30.74" xlink:href="#Dégradé_sans_nom_12"/><linearGradient id="Dégradé_sans_nom_12-6" x1="397.89" y1="37.78" x2="422.26" y2="37.78" xlink:href="#Dégradé_sans_nom_12"/><linearGradient id="Dégradé_sans_nom_12-7" x1="42.96" y1="127.79" x2="290.19" y2="127.79" xlink:href="#Dégradé_sans_nom_12"/></defs><title>impayé</title><g id="Calque_2" data-name="Calque 2"><g id="Calque_1-2" data-name="Calque 1"><path class="cls-1" d="M400.75,27.47c-17,9.23-40.3,7-54.95-5.29C337.46,15.19,331,5,320,2.86c-6.51-1.25-13.15.74-19.69,1.81-8.77,1.44-17.79,1.26-26.49,3-21.59,4.4-38.19,20-53.46,34.95-1.59,1.56-3.23,3.19-3.92,5.24-1.54,4.62,2.65,9.58,7.65,10.89s10.33-.09,15.15-1.88a88.59,88.59,0,0,0,29.94-18.52L259.05,47c15.5.19,31-6,41.58-16.51a62.29,62.29,0,0,1-13.35,14.56c21.82,32.69-2.08,68.57,38.41,76,0,0,9.54,8.75,4.7,9.65,15.51-2.89,88.14-20.3,106.57-22L413.5,32.21a8.3,8.3,0,0,0-2.13-4c-3.75-3.3-8-4.19-11.3-.85"/><path class="cls-2" d="M324.49,123.27a10.81,10.81,0,0,1,2.38,2.44,19.7,19.7,0,0,1,1.64,2c.26.37.51.75.74,1.14.24.9.53.71.86-.57-2.64.75-2.44,5.51.56,4.93,18-3.47,88.25-20.17,106.57-22,1.63-.16,2.18-2.18,1.78-3.47q-8.38-27.35-16.76-54.69l-4.07-13.28c-1.13-3.68-1.84-7.93-3.7-11.31a10.29,10.29,0,0,0-15.75-3.1c-2.18,1.86.23,6,2.66,3.9,8.62-7.36,11.87,9.91,13.39,14.88Q418.15,55.1,421.5,66l13.41,43.75,1.77-3.48c-18.32,1.82-88.58,18.52-106.57,22l.56,4.93c7.45-2.14.14-11.68-3.55-14.07-2-1.29-5.18-1.32-7.48-1.87-3.11-.75,11.2-3.82,8.16-4.82-6.26-2.06,10.55-14.32,4.7-17.38-23.33-12.19-28.91-29.92-43.44-51.56l-.45,3.5a68.42,68.42,0,0,0,13.75-15c1.34-2-.92-5.52-3.07-3.44a57.26,57.26,0,0,1-39.92,16l1,4.43,10.13-8.63-2.66-3.91A88,88,0,0,1,245,51.86a54.26,54.26,0,0,1-12.86,4.55c-4.66.85-12,.29-13.59-5.28-1.24-4.21,5.25-8.61,7.95-11.2,3.26-3.12,6.57-6.21,10-9.16a107.06,107.06,0,0,1,21.63-15,71.49,71.49,0,0,1,26.05-7c4.95-.45,9.93-.7,14.85-1.41s9.57-2,14.44-2.35c9.3-.61,15.85,4.41,22.11,10.63,5.37,5.34,10.5,10.6,17.29,14.13a53.56,53.56,0,0,0,48.71,0c2.49-1.3,1.07-6-1.67-4.56h0c-16.12,8.45-37.37,7.12-51.81-4.26-6.69-5.27-11.71-12.41-19-17-8.81-5.54-17.9-3.71-27.58-2-10.61,1.88-21.55,1.38-32,4.25A80.64,80.64,0,0,0,244.49,18.5,184.57,184.57,0,0,0,222.88,37c-5.39,5.19-12.47,11.4-6.83,19.17,6.21,8.54,17.8,5.55,26,2.27a91.71,91.71,0,0,0,28.43-18.06c2.08-1.93-.21-6-2.66-3.91l-10.13,8.64c-1.29,1.1-1.16,4.43,1,4.43a61.74,61.74,0,0,0,43.22-17L298.89,29A64.31,64.31,0,0,1,286,43.12a2.75,2.75,0,0,0-.44,3.51c12.6,18.78,27.95,36,47,48.45,9.43,6.17-16,19-5.28,22.4"/><rect class="cls-3" y="45.69" width="36.67" height="106.69" rx="5.5"/><path class="cls-1" d="M218.08,61.47C230,49,248.78,45.57,265.9,47.41s33.36,8.19,50,12.68,34.58,7,50.82,1.33l-1.06,67.44c0,2.49-.11,5.11-1.36,7.27a14.13,14.13,0,0,1-4.55,4.28c-17,11.62-37.36,19.69-57.93,18.11-15-1.15-29.14-7.3-43.56-11.65S227.81,140,214,146q6-43.06,8.29-86.54"/><path class="cls-4" d="M222.21,64.61c12.36-12.67,31.88-15,48.59-12.35C292.18,55.59,312.09,65,333.54,68c11.9,1.67,24.08,1.59,35.56-2.33L362,60.25l-.78,49.05L361,121.56c-.05,3.37.58,7.65-.65,10.86-1,2.68-3.93,4.16-6.23,5.65-3.27,2.14-6.64,4.13-10.1,5.94-12.26,6.42-26,10.64-39.92,10.32-15.33-.36-29.68-6.62-44.11-11.12-15.46-4.82-33-7.94-48.41-1.44l7,6.46q6-43.6,8.43-87.59c.26-4.81-9.15-8.31-9.47-2.34q-2.28,42.9-8.15,85.5c-.44,3.2,3.34,8,7,6.46,14.2-6,29.59-3,43.79,1.39,15,4.67,29.71,10.82,45.61,11.4,14.81.54,29.37-3.63,42.56-10.14,3.24-1.6,6.4-3.36,9.48-5.24s6.58-3.88,9.15-6.56,3.19-5.93,3.37-9.41c.2-3.95.14-7.93.2-11.89l.91-57.22c.05-3.11-4.08-6.46-7.13-5.42-21.09,7.21-43.08.52-63.5-5.7-19.45-5.92-39.7-11.62-60.12-7.35A51.68,51.68,0,0,0,214,58.34c-1.79,1.82.26,5,1.81,6.18,1.93,1.47,4.64,1.94,6.44.09Z"/><path class="cls-1" d="M198.94,50c11.9-12.43,30.7-15.9,47.81-14.06s33.36,8.2,50,12.68,34.59,7,50.83,1.33l-1.07,67.44c0,2.49-.11,5.11-1.36,7.27a14,14,0,0,1-4.55,4.28c-17,11.62-37.36,19.69-57.92,18.11-15-1.15-29.14-7.3-43.57-11.65s-30.43-6.85-44.26-.86q6-43.07,8.29-86.54"/><path class="cls-4" d="M203.06,53.12c12.37-12.66,31.88-14.95,48.59-12.35C273,44.1,292.94,53.5,314.39,56.51c11.9,1.67,24.09,1.59,35.56-2.33l-7.13-5.42-.77,49.05-.2,12.26c-.05,3.37.59,7.65-.64,10.86-1,2.68-3.94,4.16-6.23,5.65-3.28,2.14-6.65,4.13-10.11,5.94-12.26,6.43-26,10.64-39.92,10.32-15.33-.36-29.68-6.62-44.1-11.11-15.47-4.82-32.95-7.95-48.41-1.45l7,6.46q6-43.61,8.43-87.59c.25-4.8-9.15-8.31-9.47-2.34q-2.29,42.9-8.15,85.5c-.45,3.21,3.33,8,7,6.46,14.2-6,29.59-3,43.78,1.39,15,4.67,29.71,10.82,45.61,11.4,14.81.54,29.38-3.62,42.57-10.14,3.23-1.6,6.39-3.36,9.47-5.24s6.59-3.88,9.16-6.56,3.18-5.93,3.36-9.41c.2-3.95.14-7.93.2-11.89l.91-57.22c0-3.11-4.08-6.46-7.13-5.42-21.08,7.21-43.07.53-63.5-5.69-19.45-5.93-39.7-11.62-60.11-7.36a51.68,51.68,0,0,0-26.74,14.22c-1.79,1.83.26,5,1.81,6.18,1.93,1.47,4.64,1.94,6.44.09Z"/><path class="cls-1" d="M187.45,65.3c11.9-12.43,30.7-15.9,47.81-14.06s33.36,8.19,50,12.68,34.59,7,50.83,1.33L335,132.69c0,2.49-.11,5.11-1.36,7.27a14,14,0,0,1-4.55,4.28c-17,11.62-37.36,19.69-57.92,18.11-15-1.15-29.14-7.3-43.57-11.66s-30.43-6.84-44.26-.85c4-28.71,3.7-57.51,5.22-86.46"/><path class="cls-4" d="M191.58,68.44c12.36-12.67,31.87-14.95,48.59-12.35,21.38,3.32,41.28,12.73,62.74,15.74,11.89,1.66,24.08,1.59,35.55-2.33l-7.13-5.42-.77,49.05-.19,12.26c-.06,3.37.58,7.65-.65,10.86-1,2.68-3.94,4.15-6.23,5.65-3.27,2.14-6.64,4.13-10.11,5.94-12.25,6.42-26,10.64-39.92,10.32-15.32-.36-29.68-6.62-44.1-11.12-15.46-4.82-33-7.94-48.41-1.45l7,6.46c4-29,3.84-58.3,5.36-87.5.25-4.8-9.16-8.3-9.47-2.33-1.48,28.47-1.2,57.11-5.08,85.41-.44,3.2,3.33,8,7,6.46,14.2-6,29.59-3,43.78,1.39,15,4.67,29.71,10.82,45.61,11.4,14.81.54,29.38-3.63,42.57-10.14,3.24-1.6,6.4-3.36,9.47-5.24s6.59-3.88,9.16-6.56,3.18-5.93,3.36-9.41c.2-3.95.14-7.94.21-11.89l.9-57.22c.05-3.11-4.08-6.46-7.13-5.42-21.08,7.21-43.07.52-63.49-5.7-19.46-5.92-39.71-11.62-60.12-7.35a51.73,51.73,0,0,0-26.74,14.21c-1.78,1.83.26,5,1.81,6.19,1.94,1.47,4.64,1.94,6.45.09Z"/><path class="cls-5" d="M275.32,77.46a28.37,28.37,0,0,0-35.48,12.25c-6.94,12.39-5.58,31.05,8.59,37.66,8.4,3.92,17.47,2.27,26.17.41,2.35-.51,2.14-3.87,1.29-5.46a5.22,5.22,0,0,0-5.74-2.86c-6.68,1.42-15,3.35-21.3-.52-5.35-3.31-5.41-11-4.2-16.5A23.87,23.87,0,0,1,255.57,86.9c5.33-3.09,12.24-4,18-1.68,1.95.8,4.39.47,4.94-1.9a5.61,5.61,0,0,0-3.2-5.86Z"/><path class="cls-6" d="M236,109.84a171.36,171.36,0,0,1,25.43-.48c2,.11,1.34-1.92.59-3-1-1.49-3.13-4-5.14-4.11a181,181,0,0,0-26.75.45c-1.9.17.3,3.46.75,4C232,108,234,110,236,109.84Z"/><path class="cls-7" d="M236,98.35a174.11,174.11,0,0,1,25.43-.48c2,.11,1.34-1.91.59-3.05-1-1.49-3.13-4-5.14-4.11a181,181,0,0,0-26.75.45c-1.9.17.3,3.47.75,4C232,96.53,234,98.54,236,98.35Z"/><path class="cls-1" d="M345.8,22C337.46,15,331,4.75,320,2.64c-6.51-1.25-13.15.73-19.69,1.81-8.77,1.44-17.79,1.25-26.49,3-21.59,4.41-38.19,20-53.46,35-1.59,1.55-3.23,3.19-3.92,5.24-1.54,4.62,2.65,9.58,7.65,10.88s10.33-.09,15.15-1.88a88.56,88.56,0,0,0,29.94-18.51L259.05,46.8c15.5.18,31-6,41.58-16.52"/><path class="cls-8" d="M302.36,31.78c1.34-2-.92-5.53-3.07-3.45a57.27,57.27,0,0,1-39.92,16l1,4.43,10.13-8.64-2.66-3.9A88.25,88.25,0,0,1,245,51.64a54.26,54.26,0,0,1-12.86,4.55c-4.66.84-12,.29-13.59-5.29-1.24-4.21,5.25-8.61,7.95-11.19,3.26-3.13,6.57-6.21,10-9.16a106.65,106.65,0,0,1,21.63-15,71.3,71.3,0,0,1,26.05-7c4.95-.45,9.93-.7,14.85-1.42s9.57-2,14.44-2.34c9.3-.61,15.85,4.41,22.11,10.63,5.37,5.34,10.5,10.6,17.29,14.13a53.56,53.56,0,0,0,48.71,0c2.49-1.31,1.07-6-1.67-4.57h0c-16.12,8.45-37.37,7.13-51.81-4.25-6.69-5.27-11.71-12.42-19-17-8.81-5.54-17.9-3.71-27.58-2C290.93,3.6,280,3.1,269.55,6a80.86,80.86,0,0,0-25.06,12.31,185.61,185.61,0,0,0-21.61,18.47c-5.39,5.19-12.47,11.4-6.83,19.16,6.21,8.55,17.8,5.56,26,2.28a91.74,91.74,0,0,0,28.43-18.07c2.08-1.93-.21-6-2.66-3.9l-10.13,8.64c-1.29,1.1-1.16,4.43,1,4.43a61.74,61.74,0,0,0,43.22-17l-3.07-3.45A64.76,64.76,0,0,1,286,42.9"/><path class="cls-9" d="M422.26,52.85q-2-6.65-4.07-13.28c-1.13-3.68-1.84-7.93-3.7-11.31a10.3,10.3,0,0,0-15.75-3.11c-2.18,1.86.23,6,2.66,3.91C410,21.7,413.27,39,414.79,43.93"/><path class="cls-10" d="M43,134.53V62.15c8.19-.58,30.61,2.28,38.82,2.58,7.44.27,14.16-3.77,20.49-7.41,22.9-13.14,50.35-16.4,77.21-15.43a19.57,19.57,0,0,1,9.3,2.89c6.66,3.87,6.23,5.23,4.91,12.44s-3.42,15.14.56,21.44c2.77,4.39,7.9,6.9,12.53,9.6,20.77,12.14,35.47,32,56.62,43.55,5.71,3.11,11.85,5.6,17.06,9.4s9.54,9.27,9.72,15.44c.28,9.49-4.4,14.6-14.52,15.52s-25.41-6.69-34.13-11.58c-13-7.29-21.72-11.58-34.64-21.08l56.36,32.66c1.81,5,4.9,15.19,1.71,19.53s-8.49,6.29-14.12,6.52c-4.69.19-15.52-5.79-21.72-8.68-16.29-7.6-23.14-15.3-37.23-26.06l54.56,36.44-4.16,3.52a22.72,22.72,0,0,1-6.43,4.26c-3.85,1.46-8.21.84-12.31.19-10.8-1.7-21.87-8-31.66-12.56-6.21-2.9-11.11-8.64-18.62-14.48l41,26.63c-8.14,9-23.3,6.74-35.47,3.73-8.28-2.05-16.63-4.12-24.22-7.82-15.41-7.51-26.28-20.93-37.66-33.19S92.08,145.9,75,143c-11-1.88-23.72-.26-31.77-7.43"/><path class="cls-1" d="M45.45,134.77V62.39l-1.94,1c10.27-.61,20.79,1.17,31,2.05,4.87.42,9.73.93,14.54-.24,6.49-1.58,12-5.35,17.83-8.45C120.51,49.45,135.75,45.62,151,44a194.12,194.12,0,0,1,23.12-1c4.57.05,8.7.18,12.78,2.5,2.33,1.32,4.79,2.71,5,5.61.52,6-2.52,12.24-2.52,18.34a17.23,17.23,0,0,0,7,14.27c5.31,4.07,11.5,6.89,16.94,10.83,5.88,4.26,11.35,9.07,16.79,13.89,10.24,9.09,20.48,18.35,32.67,24.79,11.13,5.88,29.76,13.85,23.89,30-5.58,15.36-28.31,4.57-37.69-.21-13.92-7.1-27.73-14.93-40.36-24.14l-3.68,1.36,40.67,23.57L256.47,170c1.29.74,3.93,1.65,4.89,2.83a16.79,16.79,0,0,0,.48,2.48c.49,1.56.93,3.14,1.28,4.74.76,3.49,1.5,7.91-.53,11.11-2.36,3.74-8,6-12.3,5.85-3.36-.15-7-2.23-10-3.62-8.25-3.84-16.58-7.75-24.08-12.94-7.71-5.33-14.7-11.65-22.13-17.36l-4,1.08,54.55,36.45-.25-1.5a88.11,88.11,0,0,1-7.18,5.92c-3.39,2.29-6.81,2.52-10.74,2.06-7-.8-13.49-3.36-19.82-6.26-5.58-2.57-11.79-5-16.87-8.51s-9.43-8-14.26-11.87l-4,1.08,41,26.63-.53-1.23c-8.89,9.18-23.65,5.36-34.52,2.64-14.35-3.59-26.82-8.63-37.94-18.62-17.81-16-31.2-38.11-54.67-46.63a69.14,69.14,0,0,0-18.47-3.51c-7.24-.57-15.07-.79-20.91-5.66-1.16-1-6-.51-4.42.8,9.82,8.18,22.84,6,34.55,8.37,14.8,3,26.77,13.26,36.92,23.87,9.51,9.93,18.17,20.74,29.24,29C153.29,205.92,167,209.87,181,213c11.69,2.62,26.52,4.51,35.71-5,.43-.44-.2-1-.53-1.23l-41-26.62c-1-.64-5.69-.21-4.05,1.08,5.65,4.47,10.71,10.05,17,13.69a165.67,165.67,0,0,0,21.47,10.14c6.6,2.65,13.7,4.62,20.86,4.72,7.8.11,12.52-4.28,18.19-9.07.63-.53.36-1.08-.25-1.49L193.73,162.8c-1-.68-5.67-.16-4,1.08,7.06,5.43,13.73,11.36,20.95,16.57s15.25,9.08,23.29,13c5.9,2.87,12.3,6.45,19.07,5.87s15.12-4,15.79-11.58c.32-3.52-.55-7.23-1.48-10.6-.53-1.94-.89-4.43-2.4-5.78-1.76-1.57-4.54-2.63-6.57-3.8L229.82,151l-21.09-12.21c-1.2-.7-6-.34-3.68,1.36,12.34,9,25.78,16.58,39.32,23.61,10.66,5.54,23.53,11.66,35.86,9,4.63-1,9-3.36,11-7.84a17.9,17.9,0,0,0-1.3-16.5c-3.86-6.22-10.34-10-16.69-13.24A136.73,136.73,0,0,1,252.8,123c-12.23-9.2-22.8-20.39-35.15-29.45-6-4.38-13.66-7.33-18.93-12.53-6.47-6.36-4-15.7-2.54-23.56.8-4.31,1.64-8-2.08-11.05-5-4.13-11-5.64-17.37-5.81-16.21-.44-32.63.65-48.38,4.7a115.45,115.45,0,0,0-23.74,8.82C96.48,58.26,89.08,64,79.5,63.4c-12.28-.8-24.77-3.19-37.09-2.47-.51,0-1.94.2-1.94,1v72.37c0,1.75,5,2.09,5,.48Z"/></g></g></svg>