<?xml version="1.0" encoding="utf-8"?>
<!-- Generator: Adobe Illustrator 25.0.0, SVG Export Plug-In . SVG Version: 6.00 Build 0)  -->
<svg version="1.1" id="Calque_1" xmlns="http://www.w3.org/2000/svg" xmlns:xlink="http://www.w3.org/1999/xlink" x="0px" y="0px"
	 viewBox="0 0 690 194" style="enable-background:new 0 0 690 194;" xml:space="preserve">
<style type="text/css">
	.st0{fill:#5DB67D;}
	.st1{fill:#1B66AE;}
	.st2{clip-path:url(#SVGID_2_);}
	.st3{clip-path:url(#SVGID_4_);fill:none;stroke:#1B66AA;stroke-width:4;stroke-miterlimit:10;}
	.st4{clip-path:url(#SVGID_4_);fill:#5DB67D;}
	.st5{clip-path:url(#SVGID_6_);}
	.st6{clip-path:url(#SVGID_10_);fill:#1B66AA;}
	.st7{clip-path:url(#SVGID_10_);fill:#5DB67D;}
</style>
<g id="Calque_2_1_">
	<g id="Calque_1-2">
		<g id="nom">
			<path class="st0" d="M623.8,55.7c-0.3,0.3-0.6,0.9-1.2,1.2c-15.8,23.2-31.5,46.4-47.3,69.6c-0.3,0.9-1.2,1.2-2.4,1.2
				c-3.9,0-8,0-12.2,0c0.3-0.6,0.6-0.9,0.9-1.5c6.5-9.5,12.8-19,19.3-28.2c0.6-0.6,0.6-1.5,0.3-2.4c-4.2-13.1-8.3-26.2-12.2-39.2
				c-0.3-0.6-0.3-1.2-0.6-1.8h5.9c2.4,0,4.5,0,6.8,0c1.2,0,1.5,0.3,1.8,1.2c2.4,8.6,5.1,17.2,7.7,25.9l0.3,0.9
				c0.3-0.6,0.6-0.9,0.9-1.2c5.6-8.6,11.3-17.2,17.2-25.9c0.3-0.6,1.2-1.2,2.1-1.2c4.2,0,8.3,0,12.5,0L623.8,55.7L623.8,55.7z"/>
			<path class="st1" d="M459.1,126.1h-13.1v-7.7c-0.3,0-0.6,0.3-0.6,0.3c-13.1,13.7-33.9,10.7-45.5,0c-19.9-17.8-14.6-52,12.8-61.2
				c11.9-4.2,23.2-1.8,32.4,7.1l0.9,0.6V25.1h13.1V126.1L459.1,126.1z M446.1,91.9c0-2.1,0-4.2-0.3-5.9
				c-2.7-11.3-14.9-18.7-26.5-16.3c-12.2,2.7-20.2,14.6-17.5,27.1V97c2.7,12.2,14.6,19.9,26.8,17.2c5.4-1.2,9.8-4.2,13.1-8.3
				C444.9,101.8,446.7,96.7,446.1,91.9L446.1,91.9z"/>
			<path class="st1" d="M530.5,70.5l-41.3,40.7c1.5,1.5,3.6,2.4,5.6,2.7c5.4,0.9,10.7,0.9,15.8-1.5c3.6-1.8,6.8-4.2,9.2-7.4
				c0.3-0.9,1.5-0.9,2.1-0.6l0,0c3.9,1.5,7.7,3,11.6,4.2c-8.6,14-21.4,22-39.5,18.7c-14-2.4-27.3-15.2-28.8-32.1
				c-1.5-15.8,7.7-31.2,22.6-37.2C501.7,53,518.9,55.4,530.5,70.5z M511.2,71.1c-5.1-4.2-19-1.5-25.6,4.8
				c-6.5,6.2-9.2,20.5-5.4,25.6L511.2,71.1z"/>
			<path class="st1" d="M230.9,93.1c0.6,2.4,0.9,4.8,1.5,7.1c1.8,7.1,6.2,11.9,13.4,13.7c10.1,2.4,19.9-3.9,22.3-14
				c1.5-6.2-0.6-12.8-5.1-17.2c-3.9-3.9-8.3-6.8-13.4-8.6c-5.9-2.1-11.3-5.4-16.1-9.5c-7.1-6.8-9.2-15.5-5.9-24.7
				s9.8-14.6,19.6-15.8c11.3-1.2,20.5,4.5,24.7,15.5c0.3,1.2,0.9,2.1,1.2,3.6L261.2,48c-0.9-1.8-1.5-3.3-2.1-4.8
				c-1.8-3.9-5.9-6.2-10.1-5.6c-4.2,0-7.7,2.7-9.2,6.8c-1.8,3.9-0.6,8.6,2.7,11.6c3,3,6.5,5.1,10.7,6.5c9.2,3.3,17.2,8.3,22.9,16.3
				c9.8,14.3,6.2,33.9-8,43.7c-3.9,2.7-8,4.2-12.2,5.1c-17.5,3-32.7-7.4-36.6-25.3c-0.9-3.9-0.9-3.9,2.7-5.1L230.9,93.1z"/>
			<path class="st1" d="M324.5,61.3h13.1v38.3c-0.3,6.5,4.2,12.5,10.7,14c7.4,1.8,15.2-2.7,17.2-10.1l0,0c0.3-1.2,0.3-2.4,0.3-3.3
				c-0.3-12.2,0-24.7,0-36.9c0-1.8,0-1.8,1.8-1.8h10.1c0.9,0,1.2,0.3,1.2,1.2c0,13.7,0.3,27.3-0.3,41c-0.3,12.2-10.1,22.3-22.3,23.8
				c-7.7,0.9-15.2,0-21.4-4.8c-6.8-4.8-10.7-12.8-10.4-20.8c-0.3-13.1,0-26.2,0-39.2C324.5,61.6,324.5,61.6,324.5,61.3z"/>
			<path class="st1" d="M293.3,74.4h-11.6V61.3h11.6V37h13.1v24.4h11.6v13.1h-11.6v52h-13.1V74.4z"/>
			<path class="st0" d="M541.2,25.7h13.1v101.1h-13.1V25.7z"/>
		</g>
		<path class="st1" d="M239.2,146.6c8,0,13.4,5.6,13.4,14.6s-5.4,14.6-13.4,14.6s-13.4-5.6-13.4-14.6
			C225.8,152.6,230.9,146.6,239.2,146.6z M239.2,172.5c5.9,0,9.5-4.5,9.5-11.3c0-6.8-3.9-11.3-9.5-11.3c-5.9,0-9.5,4.5-9.5,11.3
			C229.7,168,233.2,172.5,239.2,172.5L239.2,172.5z"/>
		<path class="st1" d="M256.4,161.2c0-3.3,2.7-5.4,6.8-5.4c1.8,0,3.9,0.3,5.4,1.5c0.9,0.6,1.2,1.2,1.2,1.8c0,0.9-0.6,1.8-1.5,1.8
			c-0.3,0-0.9-0.3-1.5-0.6c-1.2-0.6-2.4-1.2-3.9-1.2c-2.1,0-3.3,0.9-3.3,2.1c0,3.6,10.4,2.4,10.4,8.9c0,3.6-2.7,5.6-7.1,5.6
			c-2.1,0-4.2-0.6-5.6-1.8c-0.9-0.6-1.2-1.2-1.2-1.8c0-0.9,0.6-1.8,1.5-1.8c0.3,0,0.6,0.3,1.5,0.6c1.2,0.9,2.7,1.2,4.2,1.2
			c2.1,0,3.6-0.9,3.6-2.4C266.5,166.3,256.4,167.7,256.4,161.2z"/>
		<path class="st1" d="M290,172.2c0,0.6-0.3,1.2-1.2,1.8c-1.8,1.2-3.9,1.8-5.9,1.8c-5.6,0-9.2-3.9-9.2-9.8s3.3-9.8,8.6-9.8
			c5.1,0,8,3.6,8,8.3c0,2.4-0.9,2.4-2.4,2.4h-11c0.3,3.6,2.1,5.6,5.9,5.6c1.5,0,2.7-0.3,3.9-1.2c0.3-0.3,0.9-0.6,1.5-0.6
			C289.1,170.7,290,171.3,290,172.2L290,172.2z M277.2,164.2h9.5c0-3.3-1.8-5.4-4.8-5.4C279.3,158.8,277.5,160.6,277.2,164.2
			L277.2,164.2z"/>
		<path class="st1" d="M295.4,159.4c-0.6,0-1.5-0.3-1.5-1.2v-0.3c0-0.6,0.3-1.5,1.2-1.5h0.3H307c1.2,0,1.5,0.6,1.5,1.5
			s-0.3,1.8-1.2,2.4l-9.2,12.2h9.5c0.6,0,1.5,0.3,1.5,1.2v0.3c0,0.6-0.3,1.5-1.2,1.5h-0.3h-12.2c-1.2,0-1.5-0.3-1.5-1.5
			s0.3-1.2,1.2-2.4l9.2-12.2H295.4z"/>
		<path class="st1" d="M335.2,157.6c0.6-1.2,0.9-1.8,2.1-1.8c1.2,0,1.8,0.3,1.8,1.2c0,0.3,0,0.9-0.3,1.2l-6.5,15.2
			c-0.6,1.2-1.2,1.8-2.4,1.8c-1.5,0-2.1-0.6-2.4-1.8l-6.2-15.2c-0.3-0.3-0.3-0.9-0.3-1.2c0-0.6,0.3-1.2,1.8-1.2
			c1.2,0,1.8,0.3,2.1,1.8l5.4,13.7L335.2,157.6z"/>
		<path class="st1" d="M350.9,155.9c5.6,0,9.5,3.9,9.5,9.8c0,5.9-3.6,10.1-9.5,10.1s-9.2-3.9-9.2-9.8S345.3,155.9,350.9,155.9z
			 M350.9,172.8c3.6,0,5.6-2.7,5.6-6.8s-2.1-7.1-5.6-7.1s-5.6,2.7-5.6,6.8C345.3,170.1,347.7,172.8,350.9,172.8z"/>
		<path class="st1" d="M376.8,173.4c0,0.6-0.3,1.2-0.9,1.2c-1.2,0.6-2.4,0.9-3.9,0.9c-2.1,0.3-3.9-0.9-5.1-2.7
			c-0.6-1.5-0.9-3.3-0.9-5.1v-8.3h-2.4c-0.6,0-1.5-0.3-1.5-1.2v-0.3c0-0.6,0.3-1.5,1.2-1.5h0.3h2.4v-4.8c0-0.9,0.6-1.5,1.8-1.5
			s1.8,0.6,1.8,1.5v4.8h4.8c0.6,0,1.5,0.3,1.5,1.2v0.3c0,0.6-0.3,1.5-1.2,1.5h-0.3h-4.8v8.3c0,1.2,0,2.4,0.3,3.3
			c0.3,0.9,1.2,1.2,2.4,1.2c0.6,0,1.2,0,1.8-0.3c0.3-0.3,0.6-0.3,0.9-0.3C376.5,171.6,376.8,172.8,376.8,173.4z"/>
		<path class="st1" d="M384.8,174c0,0.9-0.6,1.5-1.8,1.5c-1.2,0-1.8-0.6-1.8-1.5v-16.3c0-0.9,0.6-1.5,1.8-1.5c1.2,0,1.8,0.6,1.8,1.5
			v2.1c0.9-2.4,3.3-3.9,5.9-3.9c1.2,0,1.8,0.6,1.8,1.8c0,1.2-0.6,1.8-1.8,1.8c-2.7,0-4.5,1.2-5.4,3.3L384.8,174L384.8,174z"/>
		<path class="st1" d="M410.1,172.2c0,0.6-0.3,1.2-1.2,1.8c-1.8,1.2-3.9,1.8-5.9,1.8c-5.6,0-9.2-3.9-9.2-9.8s3.3-9.8,8.6-9.8
			c5.1,0,8,3.6,8,8.3c0,2.4-0.9,2.4-2.4,2.4h-11c0.3,3.6,2.1,5.6,5.9,5.6c1.5,0,2.7-0.3,3.9-1.2c0.3-0.3,0.9-0.6,1.5-0.6
			C409.2,170.7,410.1,171.3,410.1,172.2z M397.3,164.2h9.5c0-3.3-1.8-5.4-4.8-5.4C399.4,158.8,397.6,160.6,397.3,164.2z"/>
		<path class="st1" d="M430.6,158.8c-1.5,0-2.7,0.3-3.9,1.2c-0.6,0.3-1.2,0.6-1.5,0.6c-0.9,0-1.5-0.9-1.5-1.8c0-0.6,0.3-1.2,1.2-1.5
			c1.8-1.2,3.9-1.5,5.9-1.5c2.7,0,4.8,0.9,5.9,2.4c0.9,1.5,1.2,3,1.2,4.8v11c0,1.2-0.3,1.5-1.8,1.5c-1.2,0-1.5-0.3-1.5-1.2v-1.2
			c-1.5,1.5-3.6,2.4-5.6,2.4c-3.9,0-5.9-2.1-5.9-5.4c0-3.9,3.3-5.9,11.6-6.5V163C434.5,160.3,433.3,158.8,430.6,158.8z M426.7,169.8
			c0,1.5,1.2,2.7,3.6,2.7c1.5,0,3.3-0.6,4.5-1.8v-5.1C429.1,166.6,426.7,167.5,426.7,169.8L426.7,169.8z"/>
		<path class="st1" d="M456.5,157.6c0.6-1.2,0.9-1.8,2.1-1.8s1.8,0.3,1.8,1.2c0,0.3,0,0.9-0.3,1.2l-6.5,15.2
			c-0.6,1.2-1.2,1.8-2.4,1.8c-1.2,0-2.1-0.6-2.4-1.8l-6.2-15.2c-0.3-0.3-0.3-0.9-0.3-1.2c0-0.6,0.3-1.2,1.8-1.2
			c1.2,0,1.8,0.3,2.1,1.8l5.4,13.7L456.5,157.6z"/>
		<path class="st1" d="M479.1,172.2c0,0.6-0.3,1.2-1.2,1.8c-1.8,1.2-3.9,1.8-5.9,1.8c-5.6,0-9.2-3.9-9.2-9.8s3.3-9.8,8.6-9.8
			c5.1,0,8,3.6,8,8.3c0,2.4-0.9,2.4-2.1,2.4h-11c0.3,3.6,2.1,5.6,5.9,5.6c1.5,0,2.7-0.3,3.9-1.2c0.3-0.3,0.9-0.6,1.5-0.6
			C478.5,170.7,479.1,171.3,479.1,172.2L479.1,172.2z M466.6,164.2h9.5c0-3.3-1.8-5.4-4.8-5.4C468.7,158.8,466.9,160.6,466.6,164.2z
			"/>
		<path class="st1" d="M488,157.6v1.5c1.5-2.1,3.9-3.3,6.2-3c2.1-0.3,4.2,0.9,5.4,2.4c0.9,1.5,1.2,3.3,1.2,5.1V174
			c0,0.9-0.6,1.5-1.8,1.5c-1.2,0-1.8-0.6-1.8-1.5v-9.8c0-1.2-0.3-2.4-0.9-3.6c-0.9-1.2-2.1-1.8-3.6-1.5c-1.8,0-3.6,0.9-4.8,2.4v12.2
			c0,0.9-0.6,1.5-1.8,1.5c-1.2,0-1.8-0.6-1.8-1.5v-16.3c0-0.9,0.6-1.5,1.8-1.5C487.4,155.9,488,156.7,488,157.6z"/>
		<path class="st1" d="M508.5,152c-1.2,0-2.4-1.2-2.4-2.4c0-1.2,1.2-2.4,2.4-2.4c1.2,0,2.4,1.2,2.4,2.4
			C510.9,151.1,510,152,508.5,152C508.8,152,508.5,152,508.5,152z M510.3,174c0,0.9-0.6,1.5-1.8,1.5c-1.2,0-1.8-0.6-1.8-1.5v-16.3
			c0-0.9,0.6-1.5,1.8-1.5c1.2,0,1.8,0.6,1.8,1.5V174z"/>
		<path class="st1" d="M520.1,174c0,0.9-0.6,1.5-1.8,1.5s-1.8-0.6-1.8-1.5v-16.3c0-0.9,0.6-1.5,1.8-1.5c1.2,0,1.8,0.6,1.8,1.5v2.1
			c0.9-2.4,3.3-3.9,5.9-3.9c1.2,0,1.8,0.6,1.8,1.8c0,1.2-0.6,1.8-1.8,1.8c-2.7,0-4.5,1.2-5.4,3.3L520.1,174z"/>
	</g>
</g>
<g id="Cameroon">
	<defs>
		<rect id="SVGID_1_" x="33.3" y="-4.6" width="196.3" height="196.3"/>
	</defs>
	<clipPath id="SVGID_2_">
		<use xlink:href="#SVGID_1_"  style="overflow:visible;"/>
	</clipPath>
	<g class="st2">
		<defs>
			<rect id="SVGID_3_" x="33.3" y="-4.6" width="196.3" height="196.3"/>
		</defs>
		<clipPath id="SVGID_4_">
			<use xlink:href="#SVGID_3_"  style="overflow:visible;"/>
		</clipPath>
		<path class="st3" d="M134,19.2c2.9,1.3,5.8,2.4,8.7,3.8c5.3,2.6,10.5,5.3,15.6,8.1c7.6,4.2,15,8.6,22.4,13.2
			c0.2,0.1,0.3,0.3,0.5,0.4c-4.2-0.3-8.3-0.7-12.5-1c-16.1-1.2-32.1-2.4-48.2-3.7c-0.7-0.1-1.4,0.2-1.9,0.6
			c-11.2,9.3-22.4,18.7-33.6,28c-4.8,4-9.7,8.1-14.5,12.1c0-5.7,0.3-11.4,0.7-17.1c0.1-1.9,0.5-3.7,0.5-5.5c0.1-3.3,2-5.3,4.5-7.2
			c8.2-6,16.9-11.3,25.6-16.4c8.6-5,17.2-9.9,26.4-13.9c1.3-0.6,2.7-1,4.1-1.6L134,19.2z"/>
		<path class="st3" d="M87.4,135.2c-3.6-2.1-9.3-6.4-12.7-8.8c-1.9-1.4-2.5-3.5-2.8-5.6c-0.5-2.5-0.7-5.1-0.8-7.7
			c0-2.7-0.3-5.4-0.3-8.1c-0.1-6.8-0.3-13.6-0.2-20.4h1l19.9,1.6l42.5,3.3c0.8,0.1,1.6-0.2,2.2-0.7c12.8-10.3,25.3-20.9,37.9-31.5
			l11.7-9.8c1.8,1.4,3.6,2.7,5.4,4c2.3,1.6,3.1,3.7,3.4,6.3c0.6,5.2,0.9,10.5,1.1,15.8c0.5,10.2,0.4,20.3,0.2,30.5
			c-0.1,5.3-0.5,10.6-1,15.8c-0.3,3.2-2,5.3-4.5,7.1c-8.6,6.3-17.7,11.8-26.9,17.1c-5.7,3.3-11.5,6.5-17.3,9.5
			c-2.9,1.5-5.8,2.8-8.7,4.2c-3,1.4-5.9,1-8.9-0.3c-5.1-2.3-10.1-4.9-15-7.5c-4.5-2.4-8.9-4.9-13.3-7.5c-4.1-1.9-0.5-0.4-0.7-0.5"/>
		<path class="st4" d="M85,133.4c-0.5-2.9-1.5-5.7-1.8-8.6c-0.2-1.6-0.4-3.3-0.6-5c-0.1-0.7,0.1-1,0.8-0.8c2.5,0.5,5-0.4,6.6-2.3
			c0.6-0.7,0.9-0.1,1.1,0.3c3,4.8,5.2,9.9,5.6,15.5c0.1,0.8,0.2,1.5,0.5,2.2c0.9,2.4,1.7,4.9,2.3,7.4c0.2,1.2,0.3,2.3,0.2,3.5
			c0,0.4-0.1,0.7-0.3,1c-0.2,0.2-0.4,0.2-0.6,0.3c-0.3,0-0.2-0.3-0.2-0.5c0-0.2,0-0.5,0-0.7c0-0.8-0.5-0.8-1.1-0.8
			c-0.8,0-0.5,0.6-0.4,1c0,0.4,0.4,0.8,0.1,1.1c-0.3,0.3-0.8-0.1-1.2-0.2c-1.2-0.3-2.5-0.4-3.2-1.7c0.1,0.6,0.2,1.2,0.2,1.8
			c0,0.4,0,0.8-0.4,0.9c-0.4,0.1-0.7,0-1-0.2c-0.6-0.5-1-1.2-1.3-1.9C87.9,141.9,86.4,137.7,85,133.4"/>
	</g>
	<g class="st2">
		<defs>
			<path id="SVGID_5_" d="M118.6,40.8c-11.2,9.4-22.4,18.7-33.6,28L70.5,80.9l-3.6,3.2c1.3,0.5,2.5,0.1,3.6,0.5h1
				c6.6,0.5,13.3,1.1,19.9,1.6l42.5,3.3c0.8,0.1,1.6-0.2,2.2-0.7c12.8-10.4,25.3-20.9,37.9-31.5l11.7-9.8l2.3-2.2l-6.8-0.6
				c-4.2-0.4-8.3-0.7-12.5-1c-16.1-1.2-32.1-2.4-48.2-3.7c-0.1,0-0.2,0-0.2,0C119.6,40.1,119,40.4,118.6,40.8"/>
		</defs>
		<clipPath id="SVGID_6_">
			<use xlink:href="#SVGID_5_"  style="overflow:visible;"/>
		</clipPath>
		<g class="st5">
			<defs>
				<rect id="SVGID_7_" x="57.8" y="20.7" width="139.2" height="92.8"/>
			</defs>
			<clipPath id="SVGID_8_">
				<use xlink:href="#SVGID_7_"  style="overflow:visible;"/>
			</clipPath>
			<g style="clip-path:url(#SVGID_8_);">
				
					<image style="overflow:visible;" width="900" height="600" xlink:href="BF87E2FAA0E3F7E2.png"  transform="matrix(0.1547 0 0 0.1547 57.8212 20.6819)">
				</image>
			</g>
		</g>
	</g>
	<g class="st2">
		<defs>
			<rect id="SVGID_9_" x="33.3" y="-4.6" width="196.3" height="196.3"/>
		</defs>
		<clipPath id="SVGID_10_">
			<use xlink:href="#SVGID_9_"  style="overflow:visible;"/>
		</clipPath>
		<path class="st6" d="M171.8,64.7c0.4,0.4,0.7,1,0.8,1.6c2.5,7.7,4.9,15.3,7.2,23c0.4,1.3,0.2,2.6-0.5,3.8
			c-2.3,4.1-5.4,7.6-8.7,10.9c-9.3,9.2-20.3,15.3-33.3,17.7c-10.6,1.9-21.6,1.2-31.9-2.1c-0.1,0-0.2,0-0.3-0.1c-7.1-3-5.7-1.7-7.7-8
			c-2.1-6.3-3.9-12.4-5.9-18.7c-0.1-0.4-0.2-0.9-0.4-1.3c-0.3-1-0.1-1.4,1-1.3c4.2,0.4,8.3,0.7,12.5,1l24.4,1.9
			c1.8,0.1,3.6,0.2,5.4,0.4c1.2,0.2,2.5-0.2,3.4-1.1c10.8-9,21.6-17.9,32.5-26.8L171.8,64.7z"/>
		<path class="st7" d="M81,113c-0.1-0.9,0.2-1.8,0.8-2.5c0.6-0.8,0.6-1.5,0.3-2.4c-1.8-5.6-3.5-11.1-5.2-16.7c-0.2-0.6-1.1-1.6,0-2
			c1.1-0.5,1.8,0,2.3,1.5c1.8,5.5,3.5,11,5.3,16.6c0.2,0.8,0.8,1.5,1.6,1.7c2.2,0.6,3.6,2.8,3.1,5.1c-0.1,0.2-0.1,0.4-0.2,0.6
			c-0.8,2-3,3.1-5.1,2.4l-0.1,0C82,116.5,81,114.8,81,113"/>
	</g>
</g>
</svg>
