<svg version="1.1" id="prefix__Calque_1" xmlns="http://www.w3.org/2000/svg" x="0" y="0" viewBox="0 0 224 116" xml:space="preserve"><style>.prefix__st0{fill:#5db67d}.prefix__st1{fill:#fff}.prefix__st2{fill:#1b66ae}</style><g id="prefix__Calque_2_1_"><g id="prefix__Calque_1-2"><g id="prefix__icone"><path class="prefix__st0" d="M41.1 31.6c1 .5 2 .8 3 1.3 1.8.9 3.6 1.8 5.3 2.8 2.6 1.4 5.2 3 7.7 4.5.1 0 .1.1.2.1L53 40l-16.5-1.3c-.2 0-.5.1-.6.2-3.8 3.2-7.7 6.4-11.5 9.6-1.7 1.4-3.3 2.8-5 4.2 0-2 .1-3.9.2-5.9 0-.6.2-1.3.2-1.9 0-1.1.7-1.8 1.5-2.5 2.8-2 5.8-3.9 8.8-5.6 2.9-1.8 5.9-3.4 9-4.8.5-.2.9-.4 1.4-.5l.6.1zM24.3 70.7c-1.2-.7-2.4-1.5-3.5-2.4-.7-.5-.8-1.2-1-1.9-.2-.9-.3-1.8-.3-2.6 0-.9-.1-1.8-.1-2.8 0-2.3-.1-4.7-.1-7h.3l6.8.6L41 55.7c.3 0 .5-.1.7-.2 4.4-3.5 8.7-7.2 13-10.8l4-3.4c.6.5 1.2.9 1.8 1.4.7.5 1.1 1.3 1.2 2.1.2 1.8.3 3.6.4 5.4.2 3.5.1 7 .1 10.4-.1 1.8-.1 3.6-.4 5.4-.1 1-.7 1.9-1.5 2.5-3 2.1-6 4.1-9.2 5.9-2 1.1-3.9 2.2-5.9 3.2-1 .5-2 .9-3 1.4-1 .5-2 .4-3-.1-1.8-.8-3.4-1.7-5.1-2.6-1.5-.8-3-1.7-4.6-2.5-.1-.1-.2-.1-.3-.2-.2-.8-.5-1.7-.8-2.5-.1-.2-.1-.5-.2-.8-.2-1.9-.9-3.7-1.9-5.3-.1-.2-.2-.4-.4-.1-.5.7-1.4 1-2.3.8-.2-.1-.3.1-.3.3.1.6.1 1.1.2 1.7.3 1.1.7 2 .8 3zm29.8-23.6l-.4.4c-3.7 3.1-7.4 6.1-11.1 9.2-.3.3-.7.4-1.2.4-.6-.1-1.2-.1-1.9-.1l-8.4-.6c-1.4-.1-2.9-.2-4.3-.3-.4 0-.5.1-.4.4.1.1.1.3.1.4.7 2.1 1.3 4.3 2 6.4.7 2.1.2 1.7 2.7 2.7h.1c3.5 1.1 7.3 1.3 10.9.7 4.3-.8 8.3-2.9 11.4-6.1 1.2-1.1 2.2-2.4 3-3.7.2-.4.3-.8.1-1.3-.8-2.6-1.6-5.2-2.5-7.9.1-.2 0-.4-.1-.6zM23 63.7c0 .6.3 1.2.9 1.4.7.3 1.5-.1 1.8-.8v-.1c.3-.7 0-1.6-.8-1.9-.1 0-.1-.1-.2-.1-.3-.1-.5-.3-.6-.6l-1.8-5.7c-.2-.5-.4-.7-.8-.5-.4.2-.1.5 0 .7l1.8 5.7c.1.3.1.6-.1.8-.1.5-.2.8-.2 1.1z"/><path class="prefix__st1" d="M58.8 41.3l-4 3.4c-4.3 3.6-8.6 7.2-13 10.8-.2.2-.5.3-.7.2l-14.6-1.1c-2.3-.2-4.6-.4-6.8-.6h-.3c-.4-.1-.8 0-1.2-.2l1.2-1.1 5-4.1c3.8-3.2 7.7-6.4 11.5-9.6.2-.2.4-.2.6-.2 5.5.4 11 .8 16.5 1.3l4.3.3 2.3.2-.8.7zM24.3 70.7c-.2-1-.5-2-.6-3-.1-.6-.1-1.1-.2-1.7 0-.2 0-.3.3-.3.8.2 1.7-.1 2.3-.8.2-.3.3 0 .4.1 1.1 1.6 1.7 3.4 1.9 5.3 0 .3.1.5.2.8.3.8.6 1.7.8 2.5.1.4.1.8.1 1.2 0 .1 0 .2-.1.4-.1.1-.1.1-.2.1s-.1-.1-.1-.2v-.2c0-.3-.2-.3-.4-.3-.3 0-.2.2-.1.4 0 .1.1.3 0 .4-.1.1-.3 0-.4-.1-.4-.1-.9-.1-1.1-.6 0 .2.1.4.1.6 0 .1 0 .3-.1.3s-.3 0-.4-.1c-.2-.2-.4-.4-.5-.6-.8-1.3-1.4-2.7-1.9-4.2z"/><path class="prefix__st1" d="M54.1 47.1c.1.1.2.3.3.5.8 2.6 1.7 5.2 2.5 7.9.1.4.1.9-.2 1.3-.8 1.4-1.8 2.6-3 3.7-3.1 3.2-7 5.3-11.4 6.1-3.6.7-7.4.4-10.9-.7h-.1c-2.4-1-1.9-.6-2.7-2.7-.7-2.2-1.4-4.3-2-6.4-.1-.1-.1-.3-.1-.4-.1-.3 0-.5.4-.4 1.4.1 2.9.2 4.3.3l8.4.6c.6 0 1.3.1 1.9.1.4.1.8-.1 1.1-.4 3.7-3.1 7.4-6.1 11.1-9.2l.4-.3zM23 63.7c0-.3.1-.6.3-.9.2-.2.2-.5.1-.8l-1.8-5.7c-.1-.2-.4-.5 0-.7s.6 0 .8.5l1.8 5.7c.1.3.3.5.6.6.8.2 1.2 1 1 1.7 0 .1 0 .1-.1.2-.2.7-1 1.1-1.7.8h-.1c-.6-.2-.9-.7-.9-1.4z"/></g><g id="prefix__nom"><path class="prefix__st0" d="M205.8 44.1c-.1.1-.2.3-.4.4l-15.9 23.4c-.1.3-.4.4-.8.4h-4.1c.1-.2.2-.3.3-.5 2.2-3.2 4.3-6.4 6.5-9.5.2-.2.2-.5.1-.8-1.4-4.4-2.8-8.8-4.1-13.2-.1-.2-.1-.4-.2-.6h4.3c.4 0 .5.1.6.4.8 2.9 1.7 5.8 2.6 8.7l.1.3c.1-.2.2-.3.3-.4 1.9-2.9 3.8-5.8 5.8-8.7.1-.2.4-.4.7-.4h4.2v.5z"/><path class="prefix__st2" d="M150.4 67.8H146v-2.6c-.1 0-.2.1-.2.1-4.4 4.6-11.4 3.6-15.3 0-6.7-6-4.9-17.5 4.3-20.6 4-1.4 7.8-.6 10.9 2.4l.3.2V33.8h4.4v34zM146 56.3c0-.7 0-1.4-.1-2-.9-3.8-5-6.3-8.9-5.5-4.1.9-6.8 4.9-5.9 9.1v.1c.9 4.1 4.9 6.7 9 5.8 1.8-.4 3.3-1.4 4.4-2.8 1.1-1.4 1.7-3.1 1.5-4.7zM174.4 49.1l-13.9 13.7c.5.5 1.2.8 1.9.9 1.8.3 3.6.3 5.3-.5 1.2-.6 2.3-1.4 3.1-2.5.1-.3.5-.3.7-.2 1.3.5 2.6 1 3.9 1.4-2.9 4.7-7.2 7.4-13.3 6.3-4.7-.8-9.2-5.1-9.7-10.8-.5-5.3 2.6-10.5 7.6-12.5 4.7-1.7 10.5-.9 14.4 4.2zm-6.5.2c-1.7-1.4-6.4-.5-8.6 1.6s-3.1 6.9-1.8 8.6l10.4-10.2zM73.6 56.7c.2.8.3 1.6.5 2.4.6 2.4 2.1 4 4.5 4.6 3.4.8 6.7-1.3 7.5-4.7.5-2.1-.2-4.3-1.7-5.8-1.3-1.3-2.8-2.3-4.5-2.9-2-.7-3.8-1.8-5.4-3.2-2.4-2.3-3.1-5.2-2-8.3 1.1-3.1 3.3-4.9 6.6-5.3 3.8-.4 6.9 1.5 8.3 5.2.1.4.3.7.4 1.2l-4 1.6c-.3-.6-.5-1.1-.7-1.6-.6-1.3-2-2.1-3.4-1.9-1.4 0-2.6.9-3.1 2.3-.6 1.3-.2 2.9.9 3.9 1 1 2.2 1.7 3.6 2.2 3.1 1.1 5.8 2.8 7.7 5.5 3.3 4.8 2.1 11.4-2.7 14.7-1.3.9-2.7 1.4-4.1 1.7-5.9 1-11-2.5-12.3-8.5-.3-1.3-.3-1.3.9-1.7l3-1.4zM105.1 46h4.4v12.9c-.1 2.2 1.4 4.2 3.6 4.7 2.5.6 5.1-.9 5.8-3.4.1-.4.1-.8.1-1.1-.1-4.1 0-8.3 0-12.4 0-.6 0-.6.6-.6h3.4c.3 0 .4.1.4.4 0 4.6.1 9.2-.1 13.8-.1 4.1-3.4 7.5-7.5 8-2.6.3-5.1 0-7.2-1.6-2.3-1.6-3.6-4.3-3.5-7-.1-4.4 0-8.8 0-13.2V46zM94.6 50.4h-3.9V46h3.9v-8.2H99V46h3.9v4.4H99v17.5h-4.4V50.4z"/><path class="prefix__st0" d="M178 34h4.4v34H178V34z"/></g><path class="prefix__st2" d="M76.4 74.7c2.7 0 4.5 1.9 4.5 4.9 0 3-1.8 4.9-4.5 4.9s-4.5-1.9-4.5-4.9c0-2.9 1.7-4.9 4.5-4.9zm0 8.7c2 0 3.2-1.5 3.2-3.8s-1.3-3.8-3.2-3.8c-2 0-3.2 1.5-3.2 3.8s1.2 3.8 3.2 3.8zM82.2 79.6c0-1.1.9-1.8 2.3-1.8.6 0 1.3.1 1.8.5.3.2.4.4.4.6 0 .3-.2.6-.5.6-.1 0-.3-.1-.5-.2-.4-.2-.8-.4-1.3-.4-.7 0-1.1.3-1.1.7 0 1.2 3.5.8 3.5 3 0 1.2-.9 1.9-2.4 1.9-.7 0-1.4-.2-1.9-.6-.3-.2-.4-.4-.4-.6 0-.3.2-.6.5-.6.1 0 .2.1.5.2.4.3.9.4 1.4.4.7 0 1.2-.3 1.2-.8-.1-1.2-3.5-.7-3.5-2.9zM93.5 83.3c0 .2-.1.4-.4.6-.6.4-1.3.6-2 .6-1.9 0-3.1-1.3-3.1-3.3 0-2 1.1-3.3 2.9-3.3 1.7 0 2.7 1.2 2.7 2.8 0 .8-.3.8-.8.8h-3.7c.1 1.2.7 1.9 2 1.9.5 0 .9-.1 1.3-.4.1-.1.3-.2.5-.2.3 0 .6.2.6.5zm-4.3-2.7h3.2c0-1.1-.6-1.8-1.6-1.8-.9 0-1.5.6-1.6 1.8zM95.3 79c-.2 0-.5-.1-.5-.4v-.1c0-.2.1-.5.4-.5h4c.4 0 .5.2.5.5s-.1.6-.4.8l-3.1 4.1h3.2c.2 0 .5.1.5.4v.1c0 .2-.1.5-.4.5H95.3c-.4 0-.5-.1-.5-.5s.1-.4.4-.8l3.1-4.1h-3zM108.7 78.4c.2-.4.3-.6.7-.6.4 0 .6.1.6.4 0 .1 0 .3-.1.4l-2.2 5.1c-.2.4-.4.6-.8.6-.5 0-.7-.2-.8-.6l-2.1-5.1c-.1-.1-.1-.3-.1-.4 0-.2.1-.4.6-.4.4 0 .6.1.7.6L107 83l1.7-4.6zM114 77.8c1.9 0 3.2 1.3 3.2 3.3s-1.2 3.4-3.2 3.4-3.1-1.3-3.1-3.3 1.2-3.4 3.1-3.4zm0 5.7c1.2 0 1.9-.9 1.9-2.3s-.7-2.4-1.9-2.4-1.9.9-1.9 2.3c0 1.5.8 2.4 1.9 2.4zM122.7 83.7c0 .2-.1.4-.3.4-.4.2-.8.3-1.3.3-.7.1-1.3-.3-1.7-.9-.2-.5-.3-1.1-.3-1.7V79h-.8c-.2 0-.5-.1-.5-.4v-.1c0-.2.1-.5.4-.5h.9v-1.6c0-.3.2-.5.6-.5.4 0 .6.2.6.5V78h1.6c.2 0 .5.1.5.4v.1c0 .2-.1.5-.4.5H120.3v2.8c0 .4 0 .8.1 1.1.1.3.4.4.8.4.2 0 .4 0 .6-.1.1-.1.2-.1.3-.1.5 0 .6.4.6.6zM125.4 83.9c0 .3-.2.5-.6.5-.4 0-.6-.2-.6-.5v-5.5c0-.3.2-.5.6-.5.4 0 .6.2.6.5v.7c.3-.8 1.1-1.3 2-1.3.4 0 .6.2.6.6 0 .4-.2.6-.6.6-.9 0-1.5.4-1.8 1.1l-.2 3.8zM133.9 83.3c0 .2-.1.4-.4.6-.6.4-1.3.6-2 .6-1.9 0-3.1-1.3-3.1-3.3 0-2 1.1-3.3 2.9-3.3 1.7 0 2.7 1.2 2.7 2.8 0 .8-.3.8-.8.8h-3.7c.1 1.2.7 1.9 2 1.9.5 0 .9-.1 1.3-.4.1-.1.3-.2.5-.2.3 0 .6.2.6.5zm-4.3-2.7h3.2c0-1.1-.6-1.8-1.6-1.8-.9 0-1.5.6-1.6 1.8zM140.8 78.8c-.5 0-.9.1-1.3.4-.2.1-.4.2-.5.2-.3 0-.5-.3-.5-.6 0-.2.1-.4.4-.5.6-.4 1.3-.5 2-.5.9 0 1.6.3 2 .8.3.5.4 1 .4 1.6v3.7c0 .4-.1.5-.6.5-.4 0-.5-.1-.5-.4v-.4c-.5.5-1.2.8-1.9.8-1.3 0-2-.7-2-1.8 0-1.3 1.1-2 3.9-2.2v-.2c-.1-.9-.5-1.4-1.4-1.4zm-1.3 3.7c0 .5.4.9 1.2.9.5 0 1.1-.2 1.5-.6v-1.7c-1.9.3-2.7.6-2.7 1.4zM149.5 78.4c.2-.4.3-.6.7-.6.4 0 .6.1.6.4 0 .1 0 .3-.1.4l-2.2 5.1c-.2.4-.4.6-.8.6s-.7-.2-.8-.6l-2.1-5.1c-.1-.1-.1-.3-.1-.4 0-.2.1-.4.6-.4.4 0 .6.1.7.6l1.8 4.6 1.7-4.6zM157.1 83.3c0 .2-.1.4-.4.6-.6.4-1.3.6-2 .6-1.9 0-3.1-1.3-3.1-3.3 0-2 1.1-3.3 2.9-3.3 1.7 0 2.7 1.2 2.7 2.8 0 .8-.3.8-.7.8h-3.7c.1 1.2.7 1.9 2 1.9.5 0 .9-.1 1.3-.4.1-.1.3-.2.5-.2.3 0 .5.2.5.5zm-4.2-2.7h3.2c0-1.1-.6-1.8-1.6-1.8-.9 0-1.5.6-1.6 1.8zM160.1 78.4v.5c.5-.7 1.3-1.1 2.1-1 .7-.1 1.4.3 1.8.8.3.5.4 1.1.4 1.7v3.5c0 .3-.2.5-.6.5-.4 0-.6-.2-.6-.5v-3.3c0-.4-.1-.8-.3-1.2-.3-.4-.7-.6-1.2-.5-.6 0-1.2.3-1.6.8v4.1c0 .3-.2.5-.6.5-.4 0-.6-.2-.6-.5v-5.5c0-.3.2-.5.6-.5.4 0 .6.3.6.6zM167 76.5c-.4 0-.8-.4-.8-.8s.4-.8.8-.8.8.4.8.8c0 .5-.3.8-.8.8.1 0 0 0 0 0zm.6 7.4c0 .3-.2.5-.6.5s-.6-.2-.6-.5v-5.5c0-.3.2-.5.6-.5.4 0 .6.2.6.5v5.5zM170.9 83.9c0 .3-.2.5-.6.5-.4 0-.6-.2-.6-.5v-5.5c0-.3.2-.5.6-.5.4 0 .6.2.6.5v.7c.3-.8 1.1-1.3 2-1.3.4 0 .6.2.6.6 0 .4-.2.6-.6.6-.9 0-1.5.4-1.8 1.1l-.2 3.8z"/></g></g><path fill="none" d="M0 0h224v116H0z"/></svg>