<?xml version="1.0" encoding="utf-8"?>
<!-- Generator: Adobe Illustrator 24.1.0, SVG Export Plug-In . SVG Version: 6.00 Build 0)  -->
<svg version="1.1" id="Calque_1" xmlns="http://www.w3.org/2000/svg" xmlns:xlink="http://www.w3.org/1999/xlink" x="0px" y="0px"
	 viewBox="0 0 224 116" style="enable-background:new 0 0 224 116;" xml:space="preserve">
<style type="text/css">
	.st0{fill:#5DB67D;}
	.st1{fill:#FFFFFF;}
	.st2{fill:#1B66AE;}
	.st3{fill:none;}
</style>
<g id="Calque_2_1_">
	<g id="Calque_1-2">
		<g id="icone">
			<path class="st0" d="M41.1,31.6c1,0.5,2,0.8,3,1.3c1.8,0.9,3.6,1.8,5.3,2.8c2.6,1.4,5.2,3,7.7,4.5c0.1,0,0.1,0.1,0.2,0.1L53,40
				l-16.5-1.3c-0.2,0-0.5,0.1-0.6,0.2c-3.8,3.2-7.7,6.4-11.5,9.6c-1.7,1.4-3.3,2.8-5,4.2c0-2,0.1-3.9,0.2-5.9c0-0.6,0.2-1.3,0.2-1.9
				c0-1.1,0.7-1.8,1.5-2.5c2.8-2,5.8-3.9,8.8-5.6c2.9-1.8,5.9-3.4,9-4.8c0.5-0.2,0.9-0.4,1.4-0.5L41.1,31.6L41.1,31.6z"/>
			<path class="st0" d="M24.3,70.7c-1.2-0.7-2.4-1.5-3.5-2.4c-0.7-0.5-0.8-1.2-1-1.9c-0.2-0.9-0.3-1.8-0.3-2.6
				c0-0.9-0.1-1.8-0.1-2.8c0-2.3-0.1-4.7-0.1-7h0.3l6.8,0.6l14.6,1.1c0.3,0,0.5-0.1,0.7-0.2c4.4-3.5,8.7-7.2,13-10.8l4-3.4
				c0.6,0.5,1.2,0.9,1.8,1.4c0.7,0.5,1.1,1.3,1.2,2.1c0.2,1.8,0.3,3.6,0.4,5.4c0.2,3.5,0.1,7,0.1,10.4c-0.1,1.8-0.1,3.6-0.4,5.4
				c-0.1,1-0.7,1.9-1.5,2.5c-3,2.1-6,4.1-9.2,5.9c-2,1.1-3.9,2.2-5.9,3.2c-1,0.5-2,0.9-3,1.4c-1,0.5-2,0.4-3-0.1
				c-1.8-0.8-3.4-1.7-5.1-2.6c-1.5-0.8-3-1.7-4.6-2.5c-0.1-0.1-0.2-0.1-0.3-0.2c-0.2-0.8-0.5-1.7-0.8-2.5c-0.1-0.2-0.1-0.5-0.2-0.8
				c-0.2-1.9-0.9-3.7-1.9-5.3c-0.1-0.2-0.2-0.4-0.4-0.1c-0.5,0.7-1.4,1-2.3,0.8c-0.2-0.1-0.3,0.1-0.3,0.3c0.1,0.6,0.1,1.1,0.2,1.7
				C23.8,68.8,24.2,69.7,24.3,70.7z M54.1,47.1l-0.4,0.4c-3.7,3.1-7.4,6.1-11.1,9.2c-0.3,0.3-0.7,0.4-1.2,0.4
				c-0.6-0.1-1.2-0.1-1.9-0.1l-8.4-0.6c-1.4-0.1-2.9-0.2-4.3-0.3c-0.4,0-0.5,0.1-0.4,0.4c0.1,0.1,0.1,0.3,0.1,0.4
				c0.7,2.1,1.3,4.3,2,6.4c0.7,2.1,0.2,1.7,2.7,2.7c0,0,0.1,0,0.1,0c3.5,1.1,7.3,1.3,10.9,0.7c4.3-0.8,8.3-2.9,11.4-6.1
				c1.2-1.1,2.2-2.4,3-3.7c0.2-0.4,0.3-0.8,0.1-1.3c-0.8-2.6-1.6-5.2-2.5-7.9C54.3,47.5,54.2,47.3,54.1,47.1z M23,63.7
				c0,0.6,0.3,1.2,0.9,1.4c0.7,0.3,1.5-0.1,1.8-0.8c0,0,0,0,0-0.1c0.3-0.7,0-1.6-0.8-1.9c-0.1,0-0.1-0.1-0.2-0.1
				c-0.3-0.1-0.5-0.3-0.6-0.6c-0.6-1.9-1.2-3.8-1.8-5.7c-0.2-0.5-0.4-0.7-0.8-0.5c-0.4,0.2-0.1,0.5,0,0.7c0.6,1.9,1.2,3.8,1.8,5.7
				c0.1,0.3,0.1,0.6-0.1,0.8C23.1,63.1,23,63.4,23,63.7z"/>
			<path class="st1" d="M58.8,41.3l-4,3.4c-4.3,3.6-8.6,7.2-13,10.8c-0.2,0.2-0.5,0.3-0.7,0.2l-14.6-1.1c-2.3-0.2-4.6-0.4-6.8-0.6
				h-0.3c-0.4-0.1-0.8,0-1.2-0.2l1.2-1.1l5-4.1c3.8-3.2,7.7-6.4,11.5-9.6c0.2-0.2,0.4-0.2,0.6-0.2c5.5,0.4,11,0.8,16.5,1.3l4.3,0.3
				l2.3,0.2L58.8,41.3z"/>
			<path class="st1" d="M24.3,70.7c-0.2-1-0.5-2-0.6-3c-0.1-0.6-0.1-1.1-0.2-1.7c0-0.2,0-0.3,0.3-0.3c0.8,0.2,1.7-0.1,2.3-0.8
				c0.2-0.3,0.3,0,0.4,0.1c1.1,1.6,1.7,3.4,1.9,5.3c0,0.3,0.1,0.5,0.2,0.8c0.3,0.8,0.6,1.7,0.8,2.5c0.1,0.4,0.1,0.8,0.1,1.2
				c0,0.1,0,0.2-0.1,0.4c-0.1,0.1-0.1,0.1-0.2,0.1c-0.1,0-0.1-0.1-0.1-0.2c0-0.1,0-0.1,0-0.2c0-0.3-0.2-0.3-0.4-0.3
				c-0.3,0-0.2,0.2-0.1,0.4c0,0.1,0.1,0.3,0,0.4c-0.1,0.1-0.3,0-0.4-0.1c-0.4-0.1-0.9-0.1-1.1-0.6c0,0.2,0.1,0.4,0.1,0.6
				c0,0.1,0,0.3-0.1,0.3c-0.1,0-0.3,0-0.4-0.1c-0.2-0.2-0.4-0.4-0.5-0.6C25.4,73.6,24.8,72.2,24.3,70.7z"/>
			<path class="st1" d="M54.1,47.1c0.1,0.1,0.2,0.3,0.3,0.5c0.8,2.6,1.7,5.2,2.5,7.9c0.1,0.4,0.1,0.9-0.2,1.3
				c-0.8,1.4-1.8,2.6-3,3.7c-3.1,3.2-7,5.3-11.4,6.1c-3.6,0.7-7.4,0.4-10.9-0.7c0,0-0.1,0-0.1,0c-2.4-1-1.9-0.6-2.7-2.7
				c-0.7-2.2-1.4-4.3-2-6.4c-0.1-0.1-0.1-0.3-0.1-0.4c-0.1-0.3,0-0.5,0.4-0.4c1.4,0.1,2.9,0.2,4.3,0.3l8.4,0.6
				c0.6,0,1.3,0.1,1.9,0.1c0.4,0.1,0.8-0.1,1.1-0.4c3.7-3.1,7.4-6.1,11.1-9.2L54.1,47.1z"/>
			<path class="st1" d="M23,63.7c0-0.3,0.1-0.6,0.3-0.9c0.2-0.2,0.2-0.5,0.1-0.8c-0.6-1.9-1.2-3.8-1.8-5.7c-0.1-0.2-0.4-0.5,0-0.7
				s0.6,0,0.8,0.5c0.6,1.9,1.2,3.8,1.8,5.7c0.1,0.3,0.3,0.5,0.6,0.6c0.8,0.2,1.2,1,1,1.7c0,0.1,0,0.1-0.1,0.2
				c-0.2,0.7-1,1.1-1.7,0.8l0,0h-0.1C23.3,64.9,23,64.4,23,63.7z"/>
		</g>
		<g id="nom">
			<path class="st0" d="M205.8,44.1c-0.1,0.1-0.2,0.3-0.4,0.4c-5.3,7.8-10.6,15.6-15.9,23.4c-0.1,0.3-0.4,0.4-0.8,0.4
				c-1.3,0-2.7,0-4.1,0c0.1-0.2,0.2-0.3,0.3-0.5c2.2-3.2,4.3-6.4,6.5-9.5c0.2-0.2,0.2-0.5,0.1-0.8c-1.4-4.4-2.8-8.8-4.1-13.2
				c-0.1-0.2-0.1-0.4-0.2-0.6h2c0.8,0,1.5,0,2.3,0c0.4,0,0.5,0.1,0.6,0.4c0.8,2.9,1.7,5.8,2.6,8.7l0.1,0.3c0.1-0.2,0.2-0.3,0.3-0.4
				c1.9-2.9,3.8-5.8,5.8-8.7c0.1-0.2,0.4-0.4,0.7-0.4c1.4,0,2.8,0,4.2,0L205.8,44.1L205.8,44.1z"/>
			<path class="st2" d="M150.4,67.8H146v-2.6c-0.1,0-0.2,0.1-0.2,0.1c-4.4,4.6-11.4,3.6-15.3,0c-6.7-6-4.9-17.5,4.3-20.6
				c4-1.4,7.8-0.6,10.9,2.4l0.3,0.2V33.8h4.4L150.4,67.8L150.4,67.8z M146,56.3c0-0.7,0-1.4-0.1-2c-0.9-3.8-5-6.3-8.9-5.5
				c-4.1,0.9-6.8,4.9-5.9,9.1c0,0,0,0.1,0,0.1c0.9,4.1,4.9,6.7,9,5.8c1.8-0.4,3.3-1.4,4.4-2.8C145.6,59.6,146.2,57.9,146,56.3
				L146,56.3z"/>
			<path class="st2" d="M174.4,49.1l-13.9,13.7c0.5,0.5,1.2,0.8,1.9,0.9c1.8,0.3,3.6,0.3,5.3-0.5c1.2-0.6,2.3-1.4,3.1-2.5
				c0.1-0.3,0.5-0.3,0.7-0.2l0,0c1.3,0.5,2.6,1,3.9,1.4c-2.9,4.7-7.2,7.4-13.3,6.3c-4.7-0.8-9.2-5.1-9.7-10.8
				c-0.5-5.3,2.6-10.5,7.6-12.5C164.7,43.2,170.5,44,174.4,49.1z M167.9,49.3c-1.7-1.4-6.4-0.5-8.6,1.6s-3.1,6.9-1.8,8.6L167.9,49.3
				z"/>
			<path class="st2" d="M73.6,56.7c0.2,0.8,0.3,1.6,0.5,2.4c0.6,2.4,2.1,4,4.5,4.6c3.4,0.8,6.7-1.3,7.5-4.7c0.5-2.1-0.2-4.3-1.7-5.8
				c-1.3-1.3-2.8-2.3-4.5-2.9c-2-0.7-3.8-1.8-5.4-3.2c-2.4-2.3-3.1-5.2-2-8.3c1.1-3.1,3.3-4.9,6.6-5.3c3.8-0.4,6.9,1.5,8.3,5.2
				c0.1,0.4,0.3,0.7,0.4,1.2l-4,1.6c-0.3-0.6-0.5-1.1-0.7-1.6c-0.6-1.3-2-2.1-3.4-1.9c-1.4,0-2.6,0.9-3.1,2.3
				c-0.6,1.3-0.2,2.9,0.9,3.9c1,1,2.2,1.7,3.6,2.2c3.1,1.1,5.8,2.8,7.7,5.5c3.3,4.8,2.1,11.4-2.7,14.7c-1.3,0.9-2.7,1.4-4.1,1.7
				c-5.9,1-11-2.5-12.3-8.5c-0.3-1.3-0.3-1.3,0.9-1.7L73.6,56.7z"/>
			<path class="st2" d="M105.1,46h4.4v12.9c-0.1,2.2,1.4,4.2,3.6,4.7c2.5,0.6,5.1-0.9,5.8-3.4l0,0c0.1-0.4,0.1-0.8,0.1-1.1
				c-0.1-4.1,0-8.3,0-12.4c0-0.6,0-0.6,0.6-0.6h3.4c0.3,0,0.4,0.1,0.4,0.4c0,4.6,0.1,9.2-0.1,13.8c-0.1,4.1-3.4,7.5-7.5,8
				c-2.6,0.3-5.1,0-7.2-1.6c-2.3-1.6-3.6-4.3-3.5-7c-0.1-4.4,0-8.8,0-13.2C105.1,46.1,105.1,46.1,105.1,46z"/>
			<path class="st2" d="M94.6,50.4h-3.9v-4.4h3.9v-8.2H99v8.2h3.9v4.4H99v17.5h-4.4V50.4z"/>
			<path class="st0" d="M178,34h4.4V68H178V34z"/>
		</g>
		<path class="st2" d="M76.4,74.7c2.7,0,4.5,1.9,4.5,4.9c0,3-1.8,4.9-4.5,4.9c-2.7,0-4.5-1.9-4.5-4.9C71.9,76.7,73.6,74.7,76.4,74.7
			z M76.4,83.4c2,0,3.2-1.5,3.2-3.8s-1.3-3.8-3.2-3.8c-2,0-3.2,1.5-3.2,3.8S74.4,83.4,76.4,83.4L76.4,83.4z"/>
		<path class="st2" d="M82.2,79.6c0-1.1,0.9-1.8,2.3-1.8c0.6,0,1.3,0.1,1.8,0.5c0.3,0.2,0.4,0.4,0.4,0.6c0,0.3-0.2,0.6-0.5,0.6
			c-0.1,0-0.3-0.1-0.5-0.2c-0.4-0.2-0.8-0.4-1.3-0.4c-0.7,0-1.1,0.3-1.1,0.7c0,1.2,3.5,0.8,3.5,3c0,1.2-0.9,1.9-2.4,1.9
			c-0.7,0-1.4-0.2-1.9-0.6c-0.3-0.2-0.4-0.4-0.4-0.6c0-0.3,0.2-0.6,0.5-0.6c0.1,0,0.2,0.1,0.5,0.2c0.4,0.3,0.9,0.4,1.4,0.4
			c0.7,0,1.2-0.3,1.2-0.8C85.6,81.3,82.2,81.8,82.2,79.6z"/>
		<path class="st2" d="M93.5,83.3c0,0.2-0.1,0.4-0.4,0.6c-0.6,0.4-1.3,0.6-2,0.6c-1.9,0-3.1-1.3-3.1-3.3c0-2,1.1-3.3,2.9-3.3
			c1.7,0,2.7,1.2,2.7,2.8c0,0.8-0.3,0.8-0.8,0.8h-3.7c0.1,1.2,0.7,1.9,2,1.9c0.5,0,0.9-0.1,1.3-0.4c0.1-0.1,0.3-0.2,0.5-0.2
			C93.2,82.8,93.5,83,93.5,83.3L93.5,83.3z M89.2,80.6h3.2c0-1.1-0.6-1.8-1.6-1.8C89.9,78.8,89.3,79.4,89.2,80.6L89.2,80.6z"/>
		<path class="st2" d="M95.3,79c-0.2,0-0.5-0.1-0.5-0.4c0,0,0-0.1,0-0.1c0-0.2,0.1-0.5,0.4-0.5c0,0,0.1,0,0.1,0h3.9
			c0.4,0,0.5,0.2,0.5,0.5c0,0.3-0.1,0.6-0.4,0.8l-3.1,4.1h3.2c0.2,0,0.5,0.1,0.5,0.4c0,0,0,0.1,0,0.1c0,0.2-0.1,0.5-0.4,0.5
			c0,0-0.1,0-0.1,0h-4.1c-0.4,0-0.5-0.1-0.5-0.5s0.1-0.4,0.4-0.8l3.1-4.1H95.3z"/>
		<path class="st2" d="M108.7,78.4c0.2-0.4,0.3-0.6,0.7-0.6c0.4,0,0.6,0.1,0.6,0.4c0,0.1,0,0.3-0.1,0.4l-2.2,5.1
			c-0.2,0.4-0.4,0.6-0.8,0.6c-0.5,0-0.7-0.2-0.8-0.6l-2.1-5.1c-0.1-0.1-0.1-0.3-0.1-0.4c0-0.2,0.1-0.4,0.6-0.4
			c0.4,0,0.6,0.1,0.7,0.6l1.8,4.6L108.7,78.4z"/>
		<path class="st2" d="M114,77.8c1.9,0,3.2,1.3,3.2,3.3s-1.2,3.4-3.2,3.4c-2,0-3.1-1.3-3.1-3.3S112.1,77.8,114,77.8z M114,83.5
			c1.2,0,1.9-0.9,1.9-2.3s-0.7-2.4-1.9-2.4c-1.2,0-1.9,0.9-1.9,2.3C112.1,82.6,112.9,83.5,114,83.5z"/>
		<path class="st2" d="M122.7,83.7c0,0.2-0.1,0.4-0.3,0.4c-0.4,0.2-0.8,0.3-1.3,0.3c-0.7,0.1-1.3-0.3-1.7-0.9
			c-0.2-0.5-0.3-1.1-0.3-1.7V79h-0.8c-0.2,0-0.5-0.1-0.5-0.4c0,0,0-0.1,0-0.1c0-0.2,0.1-0.5,0.4-0.5c0,0,0.1,0,0.1,0h0.8v-1.6
			c0-0.3,0.2-0.5,0.6-0.5c0.4,0,0.6,0.2,0.6,0.5V78h1.6c0.2,0,0.5,0.1,0.5,0.4c0,0,0,0.1,0,0.1c0,0.2-0.1,0.5-0.4,0.5
			c0,0-0.1,0-0.1,0h-1.6v2.8c0,0.4,0,0.8,0.1,1.1c0.1,0.3,0.4,0.4,0.8,0.4c0.2,0,0.4,0,0.6-0.1c0.1-0.1,0.2-0.1,0.3-0.1
			C122.6,83.1,122.7,83.5,122.7,83.7z"/>
		<path class="st2" d="M125.4,83.9c0,0.3-0.2,0.5-0.6,0.5c-0.4,0-0.6-0.2-0.6-0.5v-5.5c0-0.3,0.2-0.5,0.6-0.5c0.4,0,0.6,0.2,0.6,0.5
			v0.7c0.3-0.8,1.1-1.3,2-1.3c0.4,0,0.6,0.2,0.6,0.6c0,0.4-0.2,0.6-0.6,0.6c-0.9,0-1.5,0.4-1.8,1.1L125.4,83.9L125.4,83.9z"/>
		<path class="st2" d="M133.9,83.3c0,0.2-0.1,0.4-0.4,0.6c-0.6,0.4-1.3,0.6-2,0.6c-1.9,0-3.1-1.3-3.1-3.3c0-2,1.1-3.3,2.9-3.3
			c1.7,0,2.7,1.2,2.7,2.8c0,0.8-0.3,0.8-0.8,0.8h-3.7c0.1,1.2,0.7,1.9,2,1.9c0.5,0,0.9-0.1,1.3-0.4c0.1-0.1,0.3-0.2,0.5-0.2
			C133.6,82.8,133.9,83,133.9,83.3z M129.6,80.6h3.2c0-1.1-0.6-1.8-1.6-1.8C130.3,78.8,129.7,79.4,129.6,80.6z"/>
		<path class="st2" d="M140.8,78.8c-0.5,0-0.9,0.1-1.3,0.4c-0.2,0.1-0.4,0.2-0.5,0.2c-0.3,0-0.5-0.3-0.5-0.6c0-0.2,0.1-0.4,0.4-0.5
			c0.6-0.4,1.3-0.5,2-0.5c0.9,0,1.6,0.3,2,0.8c0.3,0.5,0.4,1,0.4,1.6v3.7c0,0.4-0.1,0.5-0.6,0.5c-0.4,0-0.5-0.1-0.5-0.4v-0.4
			c-0.5,0.5-1.2,0.8-1.9,0.8c-1.3,0-2-0.7-2-1.8c0-1.3,1.1-2,3.9-2.2v-0.2C142.1,79.3,141.7,78.8,140.8,78.8z M139.5,82.5
			c0,0.5,0.4,0.9,1.2,0.9c0.5,0,1.1-0.2,1.5-0.6v-1.7C140.3,81.4,139.5,81.7,139.5,82.5L139.5,82.5z"/>
		<path class="st2" d="M149.5,78.4c0.2-0.4,0.3-0.6,0.7-0.6c0.4,0,0.6,0.1,0.6,0.4c0,0.1,0,0.3-0.1,0.4l-2.2,5.1
			c-0.2,0.4-0.4,0.6-0.8,0.6s-0.7-0.2-0.8-0.6l-2.1-5.1c-0.1-0.1-0.1-0.3-0.1-0.4c0-0.2,0.1-0.4,0.6-0.4c0.4,0,0.6,0.1,0.7,0.6
			l1.8,4.6L149.5,78.4z"/>
		<path class="st2" d="M157.1,83.3c0,0.2-0.1,0.4-0.4,0.6c-0.6,0.4-1.3,0.6-2,0.6c-1.9,0-3.1-1.3-3.1-3.3c0-2,1.1-3.3,2.9-3.3
			c1.7,0,2.7,1.2,2.7,2.8c0,0.8-0.3,0.8-0.7,0.8h-3.7c0.1,1.2,0.7,1.9,2,1.9c0.5,0,0.9-0.1,1.3-0.4c0.1-0.1,0.3-0.2,0.5-0.2
			C156.9,82.8,157.1,83,157.1,83.3L157.1,83.3z M152.9,80.6h3.2c0-1.1-0.6-1.8-1.6-1.8C153.6,78.8,153,79.4,152.9,80.6z"/>
		<path class="st2" d="M160.1,78.4v0.5c0.5-0.7,1.3-1.1,2.1-1c0.7-0.1,1.4,0.3,1.8,0.8c0.3,0.5,0.4,1.1,0.4,1.7v3.5
			c0,0.3-0.2,0.5-0.6,0.5c-0.4,0-0.6-0.2-0.6-0.5v-3.3c0-0.4-0.1-0.8-0.3-1.2c-0.3-0.4-0.7-0.6-1.2-0.5c-0.6,0-1.2,0.3-1.6,0.8v4.1
			c0,0.3-0.2,0.5-0.6,0.5c-0.4,0-0.6-0.2-0.6-0.5v-5.5c0-0.3,0.2-0.5,0.6-0.5C159.9,77.8,160.1,78.1,160.1,78.4z"/>
		<path class="st2" d="M167,76.5c-0.4,0-0.8-0.4-0.8-0.8c0-0.4,0.4-0.8,0.8-0.8c0.4,0,0.8,0.4,0.8,0.8
			C167.8,76.2,167.5,76.5,167,76.5C167.1,76.5,167,76.5,167,76.5z M167.6,83.9c0,0.3-0.2,0.5-0.6,0.5s-0.6-0.2-0.6-0.5v-5.5
			c0-0.3,0.2-0.5,0.6-0.5c0.4,0,0.6,0.2,0.6,0.5V83.9z"/>
		<path class="st2" d="M170.9,83.9c0,0.3-0.2,0.5-0.6,0.5c-0.4,0-0.6-0.2-0.6-0.5v-5.5c0-0.3,0.2-0.5,0.6-0.5c0.4,0,0.6,0.2,0.6,0.5
			v0.7c0.3-0.8,1.1-1.3,2-1.3c0.4,0,0.6,0.2,0.6,0.6c0,0.4-0.2,0.6-0.6,0.6c-0.9,0-1.5,0.4-1.8,1.1L170.9,83.9z"/>
	</g>
</g>
<rect class="st3" width="224" height="116"/>
</svg>
