<svg viewBox="0 0 989.9 259.03"><defs><style>.prefix__cls-1{fill:#1b66ae}.prefix__cls-2{fill:#5db67d}.prefix__cls-3{fill:#fff}</style></defs><g id="prefix__Calque_2" data-name="Calque 2"><g id="prefix__Calque_1-2" data-name="Calque 1"><g id="prefix__baseline"><path class="prefix__cls-1" d="M797.2 258.8a13.86 13.86 0 11.7 0zm-.1-24.2a10.4 10.4 0 1010.3 10.3 10.16 10.16 0 00-10.3-10.3zM724.2 244.9a13.9 13.9 0 11-13.8-14 14 14 0 0113.8 14zm-3.6.1a10.39 10.39 0 00-10.9-9.8 10.37 10.37 0 1011 11 4.87 4.87 0 00-.1-1.2zM743.2 231.4h3.5v26.9c-2 .8-3.1.2-4.1-1.7-3.2-5.7-6.5-11.3-10.2-16.8v18.6H729v-26.9c2-.7 3.2-.2 4.3 1.8 3 5.5 6.3 10.9 9.8 16.3v-18.2zM850 249.4l5.7 8.8c-2.4.7-4.2.8-5.4-1.7-.8-1.6-2-3-2.8-4.6-.9-1.9-2.3-2.4-4.4-1.7v8.2h-3.5v-26.9c2.9 0 5.8-.3 8.5.1a8.49 8.49 0 016.9 6.2 8.94 8.94 0 01-2.3 9.3 32.32 32.32 0 01-2.7 2.3zm-7-3.4c4.2.7 6.7-.1 8.1-2.5a5.41 5.41 0 00-.4-6.4c-2-2.5-4.7-2.5-7.7-2.1v11zM932.5 231.4c6.6-.5 12.1 1 15.3 7a13.3 13.3 0 01-1.2 15c-3.5 4.8-8.6 5.4-14.1 5.1zm3.6 23.3c5.3.4 9.8-4.1 9.8-9.8s-4.4-10.1-9.8-9.7zM490.2 258.3v-26.6a13.62 13.62 0 0115 20.3c-3 5-8.3 7.3-15 6.3zm3.6-23.1v19.5c5.2.4 9.6-3.9 9.8-9.5a9.5 9.5 0 00-9-10zM875.2 234.7v8.4H886v3.5h-10.8v8.3h10.7v3.5h-14.3v-27H886v3.3zM645.8 231.4h3.5v18a5.87 5.87 0 005.7 5.9 5.68 5.68 0 005.7-5.6v-.3c.1-5.1 0-10.2 0-15.2v-2.7h3.5c0 6.6.3 13.1-.1 19.5-.3 4.9-4.9 8.2-9.7 7.9a9.11 9.11 0 01-8.6-9.1c-.1-6.1 0-12.2 0-18.4zM815.9 231.4h3.4V243c0 2.4-.1 4.8.1 7.1a5.44 5.44 0 005.3 5.1 5.63 5.63 0 005.8-4.6 17.2 17.2 0 00.2-3.2v-16h3.3a7.77 7.77 0 01.2 1.6v16.5a9.29 9.29 0 01-8.6 9.3 8.86 8.86 0 01-9.7-7.9v-.2c-.3-6.4 0-12.8 0-19.3zM329.7 231.4v3.3h-11v8.3h10.8v3.6h-10.8v8.4h10.9v3.4h-14.5v-27zM525.9 254.9v3.5h-14.4v-26.9h14.4v3.2h-10.8v8.3h10.8v3.6h-10.8v8.3zM473.1 234.8h-10.7v8.2h10.8v3.6h-10.8v8.3h10.7v3.5h-14.3v-27h14.3zM957.5 243.2h10.7v3.4h-10.7v8.4h10.7v3.5h-14.3v-27h14.3v3.2h-10.7zM908.9 231.4h3.4v13.3a48.66 48.66 0 00.1 5.4 5.7 5.7 0 006.1 5.2 5.58 5.58 0 005.2-5.1 53 53 0 00.1-6.9v-11.9h3.4c0 6.6.3 13-.1 19.5-.3 4.6-4.7 7.9-9.2 7.9a8.79 8.79 0 01-9-8.1c-.3-6.3 0-12.7 0-19.3zM619.3 235.5l-2.4 2.2c-7-4.2-11.9-3.9-15.8.7a10.32 10.32 0 00.3 13.5c3.9 4.3 9.1 4.5 15.3.3l2.4 2.1a13.72 13.72 0 01-19.3 1.1l-.2-.2a13.89 13.89 0 01-.8-19.6c.1-.1.1-.2.2-.2 5.6-5.8 14.1-5.9 20.3.1zM358 235.5l-2.3 2.1c-7.9-3.9-12.5-3.6-16.2 1.2a10.4 10.4 0 00.7 13.1c3.9 4.2 8.7 4.4 15.3.3l2.3 2c-4 5.5-13 6.2-18.7 1.6a14 14 0 01-2.1-19.6 1.21 1.21 0 01.5-.5c5.5-6.1 14.4-6.3 20.5-.2zM370.2 258.3c3.2-8.7 6.3-17.3 9.4-25.9a2.76 2.76 0 011.3-1.1 1.48 1.48 0 011.2.8c3.2 8.6 6.3 17.3 9.5 26-2.4.8-3.9.6-4.5-2a15.55 15.55 0 00-.8-2.3c-1.9-5.1-1.9-5-7.3-4.9a2.22 2.22 0 00-2.4 1.8c-.5 1.7-1.4 3.3-1.8 5.1-.5 2.5-1.9 3.4-4.6 2.5zm10.7-19.3l-2.2 6.2h4.4zM580.1 258.2c-2.6 1-4.1.2-4.6-2.2a7.84 7.84 0 00-.5-1.4c-2.3-6.3-2.3-6.3-9.3-5.5-.8 2.3-1.9 4.5-2.5 6.9s-2 3.1-4.5 2.3c.2-.6.3-1.2.5-1.8 2.9-7.9 5.7-15.8 8.7-23.8a2.27 2.27 0 011.3-1.4c.5-.1 1.3.6 1.5 1.1 3.1 8.6 6.2 17.1 9.4 25.8zM569.3 239l-2.2 6.3h4.5zM642.7 258.4c-2.1.6-3.7.4-4.3-2.2-.3-1.6-1.3-3-1.6-4.6-.5-2.2-1.7-2.7-3.8-2.6-4.4.2-4.4 0-5.9 4.2a17.55 17.55 0 00-1.2 3.2c-.5 2.6-2.2 2.5-4.5 2 .8-2.3 1.6-4.5 2.4-6.7 2.3-6.2 4.5-12.5 6.8-18.7a2.48 2.48 0 011.6-1.4c.3-.1 1.1.7 1.3 1.3 3.1 8.4 6.1 16.7 9.2 25.1.1 0 0 .1 0 .4zM632.2 239l-2.2 6.3h4.5zM767.6 250v8.4h-3.4v-27a56.12 56.12 0 018.2.1 9.26 9.26 0 010 18.3c-1.5.1-3 .1-4.8.2zm.1-4c4.1.7 6.6-.1 8-2.5a5.6 5.6 0 00-.2-6.2c-1.5-2.2-4.3-3-7.8-2zM295.6 231.3c2.6 0 4.9-.1 7.2 0a9.24 9.24 0 011.2 18.3c-1.5.3-3.1.3-5 .5v8.4h-3.4v-27.2zm3.6 3.6v11.2c3 .3 5.7.4 7.6-2.2a5.43 5.43 0 00.4-6.2c-1.7-3-4.7-3.1-8-2.8zM986 236.1l-2.8 1.2-1.2-1.8a2.67 2.67 0 00-3.7-.4c-.1.1-.2.1-.2.2a2.36 2.36 0 00-.3 3.7 15.85 15.85 0 004.1 2.6c4.4 2 6.7 5.2 6.6 9.2a8.63 8.63 0 01-6.8 8 8.46 8.46 0 01-9.3-4.8c-1.3-2.8-1.1-3.3 2.4-3.9.2.7.5 1.5.7 2.2a4.88 4.88 0 009 .4 4.38 4.38 0 00-.8-5.4 20.88 20.88 0 00-4.7-3c-2.4-1.2-4.6-2.6-5.1-5.5a6.38 6.38 0 014.6-7.4c3.3-1 6.1.7 7.5 4.7zM289.7 236.1l-2.8 1.2a15.26 15.26 0 00-1.1-1.6 2.6 2.6 0 00-3.7-.7.78.78 0 00-.4.4 2.43 2.43 0 00-.6 3.4 1.21 1.21 0 00.5.5 15.77 15.77 0 003.9 2.4c4.6 2.1 6.8 5.4 6.5 9.7a8.41 8.41 0 01-16.6 1c-.5-2.5 1.8-1.6 3-2.6.3 1 .5 1.7.8 2.5a4.5 4.5 0 004.5 3.2 4.58 4.58 0 004.5-2.9 4.42 4.42 0 00-.9-5.4 17.83 17.83 0 00-3.6-2.5 32.39 32.39 0 01-3.2-1.7c-2.7-1.9-3.7-4.6-2.8-7.5a6.34 6.34 0 015.9-4.4c2.9-.1 5 1.5 6.1 5zM420.4 250.8l3.1-1a25 25 0 00.8 2.5 4.5 4.5 0 004.3 3.1 4.88 4.88 0 004.7-3 4.39 4.39 0 00-.8-5.2 23.29 23.29 0 00-3.8-2.6c-1-.6-2.1-1-3-1.6a6.41 6.41 0 01-3-7.4 6.31 6.31 0 015.8-4.5c3-.1 5.1 1.4 6.4 5l-2.7 1.2c-.3-.2-.4-.2-.5-.4-.7-1.5-1.8-2.8-3.6-2.1-.8.3-2.1 1.6-2 2.1a7.24 7.24 0 002.3 3.6c2 1.5 4.6 2.3 6.4 4 4.8 4.6 2.4 12.6-4 14.2-5 1.2-9.5-2.1-10.4-7.9zM674.1 234.8h-6.2v-3.4h15.9v3.3h-6.1v23.7h-3.6v-23.6zM895.4 234.8h-6.2v-3.3h16v3.3H899v23.6h-3.6zM455.2 231.4v3.3H449v23.7h-3.6v-23.5h-6.2v-3.4zM398.7 255h9.8v3.3h-13v-26.9h3.2zM542.9 231.4h3.3v23.4h9.7l.2 3.5h-13.2zM416.3 258.5h-3.1v-27.1h3.1zM362.9 231.4h3.2v27h-3.2zM687.8 231.4h3.3v27h-3.3zM876.4 229.4c2-2.6 3.2-5.8 7.5-4.1-2.4 1.6-3.3 5.1-7.5 4.1zM320.3 229.4c2.4-4.5 2.9-4.8 6.8-4.3-2.9 4.1-3.9 4.8-6.8 4.3z"/></g><g id="prefix__nom"><path class="prefix__cls-2" d="M989.9 71.8c-.6.8-1.3 1.5-1.8 2.3q-41.85 61.65-83.8 123.2a4.17 4.17 0 01-3.9 2.1c-7-.1-14.1 0-21.7 0 .6-1 1-1.7 1.5-2.4q16.95-25.2 34.1-50.2a4.4 4.4 0 00.6-4.3L893 72.9c-.3-.9-.5-1.9-.8-3.1h10.7c4 0 8 .1 12.1 0 1.9-.1 2.5.6 3 2.3 4.5 15.3 9.1 30.6 13.7 45.9a18.41 18.41 0 00.6 1.8c.7-1 1.2-1.6 1.7-2.4q15.15-22.8 30.3-45.7a3.76 3.76 0 013.5-2c7.4.1 14.8.1 22.1.2z"/><path class="prefix__cls-1" d="M697.8 196.7h-23.1v-13.8c-.5.2-.9.5-1.3.7-23.4 24.1-59.8 18.7-80.5 0-35.2-31.7-26-92.2 22.8-108.6 21.3-7.1 41-3.3 57.5 12.8.3.3.6.5 1.3 1.2V17.4h23.3zm-23.1-60.6c-.2-3.6.1-7.3-.8-10.7-4.9-20-26.2-33-46.7-28.7a40.27 40.27 0 00-31 47.7c0 .1.1.3.1.4 4.7 21.4 26.3 35 47.9 30.2 9.4-2.1 16.9-7.2 22.9-14.7 5.7-7.1 8.6-15 7.6-24.2zM824.5 97.9l-73 72.4a17.4 17.4 0 009.8 4.5c9.6 1.7 19.1 1.7 28.2-2.4a41.9 41.9 0 0016.1-13.4 2.77 2.77 0 013.7-1.1c6.9 2.6 13.8 5 20.8 7.5-15.3 24.7-38.1 38.7-70 33.2-24.6-4.3-48.3-27.1-50.9-56.7-2.5-28.1 13.9-55.6 40-65.6 24-9.1 54.7-5.4 75.3 21.6zM790.3 99c-9.1-7.3-33.7-2.8-45.2 8.3s-16.3 36.1-9.2 45.6zM293.3 137.9c.9 4.5 1.6 8.7 2.6 12.8 3.3 12.6 11 21.1 23.9 24.1a32.93 32.93 0 0030.5-55.5 65.22 65.22 0 00-23.9-15.1c-10.5-3.8-20.3-8.9-28.4-16.7-12.7-12.3-16.1-27.4-10.6-43.8s17.5-26.1 34.9-28.1c19.8-2.3 36.3 8.1 43.9 27.2.8 2 1.4 3.9 2.2 6.1l-21 8.2c-1.3-3-2.5-5.8-3.8-8.5-3.6-7.4-9.8-10.7-17.8-10.2-7.8.5-13.5 4.6-16.3 11.9-2.9 7.6-1.4 14.6 4.5 20.3a52.32 52.32 0 0018.7 11.5c16.2 5.8 30.4 14.6 40.4 28.8 23.3 33.3 3.7 79.7-36.1 86.7-31.2 5.5-57.9-13.3-64.9-44.9-1.5-6.8-1.5-6.8 4.9-9.1zM459.5 81.5h23.3v68.1c0 12.5 7.4 21.9 19 24.8a25.12 25.12 0 0031.1-24.1c-.3-21.8-.1-43.6-.1-65.4 0-3.4 0-3.4 3.2-3.4h18c1.4 0 2.1.3 2.1 1.9-.1 24.2.3 48.4-.5 72.5-.7 21.8-18.1 39.6-39.7 42.1-13.6 1.6-26.6-.2-37.9-8.6-12.3-9.2-18.4-21.9-18.6-37.1-.3-23.1-.1-46.3-.1-69.4.1-.4.1-.8.2-1.4zM404.3 104.7h-20.7V81.4h20.5V38.2h23.2v43.1h20.6v23.3h-20.5v92h-23.1z"/><path class="prefix__cls-2" d="M843.4 18.3h23v179.4h-23z"/></g><g id="prefix__icone"><path class="prefix__cls-2" d="M120.9.1c5.2 2.4 10.5 4.3 15.6 6.8q14.25 7 28.2 14.7c13.7 7.5 27.1 15.5 40.4 23.8a6.47 6.47 0 01.9.8l-22.5-1.8q-43.5-3.3-86.9-6.7a4.43 4.43 0 00-3.3 1.1L32.8 89.4c-8.7 7.3-17.5 14.6-26.2 21.8 0-10.3.5-20.6 1.2-30.9.2-3.3.9-6.6 1-10 .2-5.9 3.7-9.6 8.1-12.9 14.8-10.8 30.4-20.3 46.2-29.5 15.5-9 31.1-17.9 47.5-25.1C113 1.7 115.5.9 118 0zM32.5 206c-6.5-3.7-12.4-8.3-18.5-12.7-3.5-2.5-4.5-6.3-5.1-10.1a92.22 92.22 0 01-1.4-13.9c0-4.9-.6-9.7-.6-14.6-.2-12.3-.6-24.6-.4-36.8h1.7l36 3c25.5 2 51.1 3.9 76.6 5.9a5 5 0 003.9-1.3c23-18.6 45.7-37.8 68.4-56.8l21.1-17.6c3.2 2.5 6.5 4.9 9.8 7.2 4.1 2.9 5.6 6.7 6.1 11.3 1.2 9.5 1.6 19 2 28.5.9 18.3.8 36.7.3 55-.2 9.5-.8 19-1.8 28.6-.6 5.8-3.7 9.6-8.1 12.9-15.5 11.4-32 21.2-48.6 30.9q-15.45 9-31.2 17.1c-5.2 2.6-10.4 5-15.6 7.5-5.4 2.6-10.6 1.9-16-.5-9.2-4.1-18.2-8.8-27.1-13.5-8.1-4.2-16-8.9-24-13.4a6.42 6.42 0 01-1.3-1 120.4 120.4 0 00-4.1-13.3 14.33 14.33 0 01-.9-4.1c-.8-10.3-4.8-19.4-10.2-28.1-.5-.8-.9-2-2.1-.6a11.84 11.84 0 01-11.8 4.2c-1.3-.2-1.6.3-1.4 1.5.4 3 .8 6 1.1 9 .5 5.4 2.3 10.5 3.2 15.7zM189 81.8l-2.3 1.9c-19.5 16.2-39 32.3-58.4 48.5a7.37 7.37 0 01-6.2 2c-3.2-.5-6.5-.5-9.8-.7l-44.1-3.2c-7.5-.6-15-1.1-22.5-1.7-2.1-.2-2.5.5-1.9 2.3.3.8.5 1.6.7 2.3 3.6 11.2 7 22.5 10.8 33.6s1.2 9 14 14.3a.75.75 0 00.5.1 119.31 119.31 0 0057.5 3.6c23.3-4.3 43.1-15.4 59.9-32.1 6-6 11.6-12.3 15.7-19.7a8.49 8.49 0 00.8-6.8c-4.2-13.9-8.7-27.6-13.2-41.4a6.1 6.1 0 00-1.5-3zM25.4 169.2a7.71 7.71 0 004.9 7.5 7.11 7.11 0 009.3-4c0-.1.1-.2.1-.3a7.54 7.54 0 00-4.1-9.9c-.3-.1-.7-.3-1.1-.4a4.15 4.15 0 01-3-3c-3.1-10-6.3-19.9-9.5-29.9-.9-2.7-2-3.7-4.1-2.7s-.3 2.6.1 3.7c3 10.1 6.2 20.1 9.4 30.2.5 1.6.6 2.9-.6 4.3a6.25 6.25 0 00-1.4 4.5z"/><path class="prefix__cls-3" d="M214.1 51.2L193 68.8c-22.7 19-45.4 38.1-68.4 56.8a5.16 5.16 0 01-3.9 1.3c-25.5-2-51.1-3.9-76.6-5.9-12-.9-24-2-36-3H6.4c-2-.8-4.2 0-6.4-1l6.5-5.8c8.7-7.3 17.5-14.5 26.2-21.8Q63 64.2 93.2 38.8a4.06 4.06 0 013.3-1.1q43.5 3.45 86.9 6.7l22.5 1.8 12.3 1.1zM32.5 206c-.9-5.2-2.6-10.3-3.3-15.6-.4-3-.7-6-1.1-9-.2-1.2.1-1.7 1.4-1.5a11.84 11.84 0 0011.8-4.2c1.2-1.3 1.6-.2 2.1.6 5.4 8.6 9.3 17.8 10.2 28.1a15.1 15.1 0 00.9 4.1 127.38 127.38 0 014.1 13.3 26.71 26.71 0 01.4 6.3 2.79 2.79 0 01-.6 1.8 2.35 2.35 0 01-1 .5c-.5 0-.4-.6-.4-1s.1-.8.1-1.2c0-1.4-1-1.5-2-1.5-1.4 0-.9 1.1-.8 1.8s.8 1.5.1 2.1-1.5-.1-2.2-.4c-2.1-.6-4.6-.6-5.8-3.1.1 1.1.3 2.2.4 3.3.1.7 0 1.4-.7 1.6a1.74 1.74 0 01-1.8-.4 11.65 11.65 0 01-2.4-3.4c-4.2-6.9-6.9-14.5-9.4-22.2z"/><path class="prefix__cls-3" d="M189 81.8a5.42 5.42 0 011.5 2.9c4.5 13.8 9 27.5 13.2 41.4a8.49 8.49 0 01-.8 6.8c-4.1 7.5-9.7 13.8-15.7 19.7-16.7 16.7-36.5 27.8-59.9 32.1a118 118 0 01-57.5-3.6c-.2 0-.3-.1-.5-.1-12.8-5.3-10.2-3-14-14.3s-7.2-22.4-10.8-33.6a15.46 15.46 0 00-.7-2.3c-.6-1.8-.2-2.5 1.9-2.3 7.5.6 15 1.1 22.5 1.7l44.1 3.2c3.3.2 6.6.2 9.8.7a7.08 7.08 0 006.2-2q29.1-24.3 58.4-48.5zM25.4 169.2a6.41 6.41 0 011.5-4.6c1.2-1.4 1.1-2.7.6-4.3-3.2-10-6.4-20.1-9.4-30.2-.3-1.1-2-2.8-.1-3.7s3.2 0 4.1 2.7c3.2 10 6.4 19.9 9.5 29.9a3.85 3.85 0 003 3 7.54 7.54 0 015.5 9.2 4.87 4.87 0 01-.4 1.1 7.18 7.18 0 01-9.1 4.4c-.1 0-.2-.1-.3-.1a7.45 7.45 0 01-4.9-7.4z"/></g></g></g></svg>