<svg xmlns="http://www.w3.org/2000/svg" viewBox="0 0 989.9 259.03"><defs><style>.cls-1{fill:#1b66ae;}.cls-2{fill:#5db67d;}.cls-3{fill:#fff;}</style></defs><title>logo svgpx</title><g id="Calque_2" data-name="Calque 2"><g id="Calque_1-2" data-name="Calque 1"><g id="baseline"><path class="cls-1" d="M797.2,258.8a13.86,13.86,0,1,1,.7,0Zm-.1-24.2a10.4,10.4,0,1,0,10.3,10.3h0a10.16,10.16,0,0,0-10.3-10.3Z"/><path class="cls-1" d="M724.2,244.9a13.9,13.9,0,1,1-13.8-14A14,14,0,0,1,724.2,244.9Zm-3.6.1a10.39,10.39,0,0,0-10.9-9.8,10.37,10.37,0,1,0,11,11A4.87,4.87,0,0,0,720.6,245Z"/><path class="cls-1" d="M743.2,231.4h3.5v26.9c-2,.8-3.1.2-4.1-1.7-3.2-5.7-6.5-11.3-10.2-16.8v18.6H729V231.5c2-.7,3.2-.2,4.3,1.8,3,5.5,6.3,10.9,9.8,16.3V231.4Z"/><path class="cls-1" d="M850,249.4l5.7,8.8c-2.4.7-4.2.8-5.4-1.7-.8-1.6-2-3-2.8-4.6-.9-1.9-2.3-2.4-4.4-1.7v8.2h-3.5V231.5c2.9,0,5.8-.3,8.5.1a8.49,8.49,0,0,1,6.9,6.2,8.94,8.94,0,0,1-2.3,9.3A32.32,32.32,0,0,1,850,249.4Zm-7-3.4c4.2.7,6.7-.1,8.1-2.5a5.41,5.41,0,0,0-.4-6.4c-2-2.5-4.7-2.5-7.7-2.1v11Z"/><path class="cls-1" d="M932.5,231.4c6.6-.5,12.1,1,15.3,7a13.3,13.3,0,0,1-1.2,15c-3.5,4.8-8.6,5.4-14.1,5.1Zm3.6,23.3c5.3.4,9.8-4.1,9.8-9.8s-4.4-10.1-9.8-9.7Z"/><path class="cls-1" d="M490.2,258.3V231.7a13.62,13.62,0,0,1,15,20.3C502.2,257,496.9,259.3,490.2,258.3Zm3.6-23.1v19.5c5.2.4,9.6-3.9,9.8-9.5a9.5,9.5,0,0,0-9-10Z"/><path class="cls-1" d="M875.2,234.7v8.4H886v3.5H875.2v8.3h10.7v3.5H871.6v-27H886v3.3Z"/><path class="cls-1" d="M645.8,231.4h3.5v18a5.87,5.87,0,0,0,5.7,5.9,5.68,5.68,0,0,0,5.7-5.6v-.3c.1-5.1,0-10.2,0-15.2v-2.7h3.5c0,6.6.3,13.1-.1,19.5-.3,4.9-4.9,8.2-9.7,7.9a9.11,9.11,0,0,1-8.6-9.1C645.7,243.7,645.8,237.6,645.8,231.4Z"/><path class="cls-1" d="M815.9,231.4h3.4V243c0,2.4-.1,4.8.1,7.1a5.44,5.44,0,0,0,5.3,5.1,5.63,5.63,0,0,0,5.8-4.6,17.2,17.2,0,0,0,.2-3.2v-16H834a7.77,7.77,0,0,1,.2,1.6v16.5a9.29,9.29,0,0,1-8.6,9.3,8.86,8.86,0,0,1-9.7-7.9v-.2C815.6,244.3,815.9,237.9,815.9,231.4Z"/><path class="cls-1" d="M329.7,231.4v3.3h-11V243h10.8v3.6H318.7V255h10.9v3.4H315.1v-27Z"/><path class="cls-1" d="M525.9,254.9v3.5H511.5V231.5h14.4v3.2H515.1V243h10.8v3.6H515.1v8.3Z"/><path class="cls-1" d="M473.1,234.8H462.4V243h10.8v3.6H462.4v8.3h10.7v3.5H458.8v-27h14.3Z"/><path class="cls-1" d="M957.5,243.2h10.7v3.4H957.5V255h10.7v3.5H953.9v-27h14.3v3.2H957.5Z"/><path class="cls-1" d="M908.9,231.4h3.4v13.3a48.66,48.66,0,0,0,.1,5.4,5.7,5.7,0,0,0,6.1,5.2,5.58,5.58,0,0,0,5.2-5.1,53,53,0,0,0,.1-6.9V231.4h3.4c0,6.6.3,13-.1,19.5-.3,4.6-4.7,7.9-9.2,7.9a8.79,8.79,0,0,1-9-8.1C908.6,244.4,908.9,238,908.9,231.4Z"/><path class="cls-1" d="M619.3,235.5l-2.4,2.2c-7-4.2-11.9-3.9-15.8.7a10.32,10.32,0,0,0,.3,13.5c3.9,4.3,9.1,4.5,15.3.3l2.4,2.1a13.72,13.72,0,0,1-19.3,1.1l-.2-.2a13.89,13.89,0,0,1-.8-19.6c.1-.1.1-.2.2-.2C604.6,229.6,613.1,229.5,619.3,235.5Z"/><path class="cls-1" d="M358,235.5l-2.3,2.1c-7.9-3.9-12.5-3.6-16.2,1.2a10.4,10.4,0,0,0,.7,13.1c3.9,4.2,8.7,4.4,15.3.3l2.3,2c-4,5.5-13,6.2-18.7,1.6a14,14,0,0,1-2.1-19.6,1.21,1.21,0,0,1,.5-.5C343,229.6,351.9,229.4,358,235.5Z"/><path class="cls-1" d="M370.2,258.3c3.2-8.7,6.3-17.3,9.4-25.9a2.76,2.76,0,0,1,1.3-1.1,1.48,1.48,0,0,1,1.2.8c3.2,8.6,6.3,17.3,9.5,26-2.4.8-3.9.6-4.5-2a15.55,15.55,0,0,0-.8-2.3c-1.9-5.1-1.9-5-7.3-4.9a2.22,2.22,0,0,0-2.4,1.8c-.5,1.7-1.4,3.3-1.8,5.1C374.3,258.3,372.9,259.2,370.2,258.3ZM380.9,239l-2.2,6.2h4.4Z"/><path class="cls-1" d="M580.1,258.2c-2.6,1-4.1.2-4.6-2.2a7.84,7.84,0,0,0-.5-1.4c-2.3-6.3-2.3-6.3-9.3-5.5-.8,2.3-1.9,4.5-2.5,6.9s-2,3.1-4.5,2.3c.2-.6.3-1.2.5-1.8,2.9-7.9,5.7-15.8,8.7-23.8a2.27,2.27,0,0,1,1.3-1.4c.5-.1,1.3.6,1.5,1.1C573.8,241,576.9,249.5,580.1,258.2ZM569.3,239l-2.2,6.3h4.5Z"/><path class="cls-1" d="M642.7,258.4c-2.1.6-3.7.4-4.3-2.2-.3-1.6-1.3-3-1.6-4.6-.5-2.2-1.7-2.7-3.8-2.6-4.4.2-4.4,0-5.9,4.2a17.55,17.55,0,0,0-1.2,3.2c-.5,2.6-2.2,2.5-4.5,2,.8-2.3,1.6-4.5,2.4-6.7,2.3-6.2,4.5-12.5,6.8-18.7a2.48,2.48,0,0,1,1.6-1.4c.3-.1,1.1.7,1.3,1.3,3.1,8.4,6.1,16.7,9.2,25.1C642.8,258,642.7,258.1,642.7,258.4ZM632.2,239l-2.2,6.3h4.5Z"/><path class="cls-1" d="M767.6,250v8.4h-3.4v-27a56.12,56.12,0,0,1,8.2.1,9.26,9.26,0,0,1,0,18.3C770.9,249.9,769.4,249.9,767.6,250Zm.1-4c4.1.7,6.6-.1,8-2.5a5.6,5.6,0,0,0-.2-6.2c-1.5-2.2-4.3-3-7.8-2Z"/><path class="cls-1" d="M295.6,231.3c2.6,0,4.9-.1,7.2,0a9.24,9.24,0,0,1,1.2,18.3c-1.5.3-3.1.3-5,.5v8.4h-3.4V231.3Zm3.6,3.6v11.2c3,.3,5.7.4,7.6-2.2a5.43,5.43,0,0,0,.4-6.2c-1.7-3-4.7-3.1-8-2.8Z"/><path class="cls-1" d="M986,236.1l-2.8,1.2-1.2-1.8a2.67,2.67,0,0,0-3.7-.4c-.1.1-.2.1-.2.2a2.36,2.36,0,0,0-.3,3.7,15.85,15.85,0,0,0,4.1,2.6c4.4,2,6.7,5.2,6.6,9.2a8.63,8.63,0,0,1-6.8,8,8.46,8.46,0,0,1-9.3-4.8c-1.3-2.8-1.1-3.3,2.4-3.9.2.7.5,1.5.7,2.2a4.88,4.88,0,0,0,9,.4,4.38,4.38,0,0,0-.8-5.4,20.88,20.88,0,0,0-4.7-3c-2.4-1.2-4.6-2.6-5.1-5.5a6.38,6.38,0,0,1,4.6-7.4C981.8,230.4,984.6,232.1,986,236.1Z"/><path class="cls-1" d="M289.7,236.1l-2.8,1.2a15.26,15.26,0,0,0-1.1-1.6,2.6,2.6,0,0,0-3.7-.7.78.78,0,0,0-.4.4,2.43,2.43,0,0,0-.6,3.4,1.21,1.21,0,0,0,.5.5,15.77,15.77,0,0,0,3.9,2.4c4.6,2.1,6.8,5.4,6.5,9.7a8.41,8.41,0,0,1-16.6,1c-.5-2.5,1.8-1.6,3-2.6.3,1,.5,1.7.8,2.5a4.5,4.5,0,0,0,4.5,3.2,4.58,4.58,0,0,0,4.5-2.9,4.42,4.42,0,0,0-.9-5.4,17.83,17.83,0,0,0-3.6-2.5,32.39,32.39,0,0,1-3.2-1.7c-2.7-1.9-3.7-4.6-2.8-7.5a6.34,6.34,0,0,1,5.9-4.4C286.5,231,288.6,232.6,289.7,236.1Z"/><path class="cls-1" d="M420.4,250.8l3.1-1a25,25,0,0,0,.8,2.5,4.5,4.5,0,0,0,4.3,3.1,4.88,4.88,0,0,0,4.7-3,4.39,4.39,0,0,0-.8-5.2,23.29,23.29,0,0,0-3.8-2.6c-1-.6-2.1-1-3-1.6a6.41,6.41,0,0,1-3-7.4,6.31,6.31,0,0,1,5.8-4.5c3-.1,5.1,1.4,6.4,5l-2.7,1.2c-.3-.2-.4-.2-.5-.4-.7-1.5-1.8-2.8-3.6-2.1-.8.3-2.1,1.6-2,2.1a7.24,7.24,0,0,0,2.3,3.6c2,1.5,4.6,2.3,6.4,4,4.8,4.6,2.4,12.6-4,14.2C425.8,259.9,421.3,256.6,420.4,250.8Z"/><path class="cls-1" d="M674.1,234.8h-6.2v-3.4h15.9v3.3h-6.1v23.7h-3.6V234.8Z"/><path class="cls-1" d="M895.4,234.8h-6.2v-3.3h16v3.3H899v23.6h-3.6Z"/><path class="cls-1" d="M455.2,231.4v3.3H449v23.7h-3.6V234.9h-6.2v-3.4Z"/><path class="cls-1" d="M398.7,255h9.8v3.3h-13V231.4h3.2Z"/><path class="cls-1" d="M542.9,231.4h3.3v23.4h9.7l.2,3.5H542.9Z"/><path class="cls-1" d="M416.3,258.5h-3.1V231.4h3.1Z"/><path class="cls-1" d="M362.9,231.4h3.2v27h-3.2Z"/><path class="cls-1" d="M687.8,231.4h3.3v27h-3.3Z"/><path class="cls-1" d="M876.4,229.4c2-2.6,3.2-5.8,7.5-4.1C881.5,226.9,880.6,230.4,876.4,229.4Z"/><path class="cls-1" d="M320.3,229.4c2.4-4.5,2.9-4.8,6.8-4.3C324.2,229.2,323.2,229.9,320.3,229.4Z"/></g><g id="nom"><path class="cls-2" d="M989.9,71.8c-.6.8-1.3,1.5-1.8,2.3q-41.85,61.65-83.8,123.2a4.17,4.17,0,0,1-3.9,2.1c-7-.1-14.1,0-21.7,0,.6-1,1-1.7,1.5-2.4q16.95-25.2,34.1-50.2a4.4,4.4,0,0,0,.6-4.3L893,72.9c-.3-.9-.5-1.9-.8-3.1h10.7c4,0,8,.1,12.1,0,1.9-.1,2.5.6,3,2.3,4.5,15.3,9.1,30.6,13.7,45.9a18.41,18.41,0,0,0,.6,1.8c.7-1,1.2-1.6,1.7-2.4q15.15-22.8,30.3-45.7a3.76,3.76,0,0,1,3.5-2c7.4.1,14.8.1,22.1.2Z"/><path class="cls-1" d="M697.8,196.7H674.7V182.9c-.5.2-.9.5-1.3.7-23.4,24.1-59.8,18.7-80.5,0-35.2-31.7-26-92.2,22.8-108.6,21.3-7.1,41-3.3,57.5,12.8.3.3.6.5,1.3,1.2V17.4h23.3Zm-23.1-60.6c-.2-3.6.1-7.3-.8-10.7-4.9-20-26.2-33-46.7-28.7a40.27,40.27,0,0,0-31,47.7c0,.1.1.3.1.4,4.7,21.4,26.3,35,47.9,30.2,9.4-2.1,16.9-7.2,22.9-14.7,5.7-7.1,8.6-15,7.6-24.2Z"/><path class="cls-1" d="M824.5,97.9l-73,72.4a17.4,17.4,0,0,0,9.8,4.5c9.6,1.7,19.1,1.7,28.2-2.4A41.9,41.9,0,0,0,805.6,159a2.77,2.77,0,0,1,3.7-1.1h0c6.9,2.6,13.8,5,20.8,7.5-15.3,24.7-38.1,38.7-70,33.2-24.6-4.3-48.3-27.1-50.9-56.7-2.5-28.1,13.9-55.6,40-65.6C773.2,67.2,803.9,70.9,824.5,97.9ZM790.3,99c-9.1-7.3-33.7-2.8-45.2,8.3s-16.3,36.1-9.2,45.6Z"/><path class="cls-1" d="M293.3,137.9c.9,4.5,1.6,8.7,2.6,12.8,3.3,12.6,11,21.1,23.9,24.1a32.93,32.93,0,0,0,30.5-55.5,65.22,65.22,0,0,0-23.9-15.1c-10.5-3.8-20.3-8.9-28.4-16.7-12.7-12.3-16.1-27.4-10.6-43.8s17.5-26.1,34.9-28.1c19.8-2.3,36.3,8.1,43.9,27.2.8,2,1.4,3.9,2.2,6.1l-21,8.2c-1.3-3-2.5-5.8-3.8-8.5-3.6-7.4-9.8-10.7-17.8-10.2-7.8.5-13.5,4.6-16.3,11.9-2.9,7.6-1.4,14.6,4.5,20.3a52.32,52.32,0,0,0,18.7,11.5c16.2,5.8,30.4,14.6,40.4,28.8,23.3,33.3,3.7,79.7-36.1,86.7-31.2,5.5-57.9-13.3-64.9-44.9-1.5-6.8-1.5-6.8,4.9-9.1Z"/><path class="cls-1" d="M459.5,81.5h23.3v68.1c0,12.5,7.4,21.9,19,24.8a25.12,25.12,0,0,0,31.1-24.1c-.3-21.8-.1-43.6-.1-65.4,0-3.4,0-3.4,3.2-3.4h18c1.4,0,2.1.3,2.1,1.9-.1,24.2.3,48.4-.5,72.5-.7,21.8-18.1,39.6-39.7,42.1-13.6,1.6-26.6-.2-37.9-8.6-12.3-9.2-18.4-21.9-18.6-37.1-.3-23.1-.1-46.3-.1-69.4C459.4,82.5,459.4,82.1,459.5,81.5Z"/><path class="cls-1" d="M404.3,104.7H383.6V81.4h20.5V38.2h23.2V81.3h20.6v23.3H427.4v92H404.3Z"/><path class="cls-2" d="M843.4,18.3h23V197.7h-23Z"/></g><g id="icone"><path class="cls-2" d="M120.9.1c5.2,2.4,10.5,4.3,15.6,6.8q14.25,7,28.2,14.7c13.7,7.5,27.1,15.5,40.4,23.8a6.47,6.47,0,0,1,.9.8l-22.5-1.8Q140,41.1,96.6,37.7a4.43,4.43,0,0,0-3.3,1.1L32.8,89.4C24.1,96.7,15.3,104,6.6,111.2c0-10.3.5-20.6,1.2-30.9.2-3.3.9-6.6,1-10,.2-5.9,3.7-9.6,8.1-12.9C31.7,46.6,47.3,37.1,63.1,27.9c15.5-9,31.1-17.9,47.5-25.1C113,1.7,115.5.9,118,0Z"/><path class="cls-2" d="M32.5,206c-6.5-3.7-12.4-8.3-18.5-12.7-3.5-2.5-4.5-6.3-5.1-10.1a92.22,92.22,0,0,1-1.4-13.9c0-4.9-.6-9.7-.6-14.6-.2-12.3-.6-24.6-.4-36.8H8.2l36,3c25.5,2,51.1,3.9,76.6,5.9a5,5,0,0,0,3.9-1.3c23-18.6,45.7-37.8,68.4-56.8l21.1-17.6c3.2,2.5,6.5,4.9,9.8,7.2,4.1,2.9,5.6,6.7,6.1,11.3,1.2,9.5,1.6,19,2,28.5.9,18.3.8,36.7.3,55-.2,9.5-.8,19-1.8,28.6-.6,5.8-3.7,9.6-8.1,12.9-15.5,11.4-32,21.2-48.6,30.9q-15.45,9-31.2,17.1c-5.2,2.6-10.4,5-15.6,7.5-5.4,2.6-10.6,1.9-16-.5-9.2-4.1-18.2-8.8-27.1-13.5-8.1-4.2-16-8.9-24-13.4a6.42,6.42,0,0,1-1.3-1,120.4,120.4,0,0,0-4.1-13.3,14.33,14.33,0,0,1-.9-4.1c-.8-10.3-4.8-19.4-10.2-28.1-.5-.8-.9-2-2.1-.6a11.84,11.84,0,0,1-11.8,4.2c-1.3-.2-1.6.3-1.4,1.5.4,3,.8,6,1.1,9C29.8,195.7,31.6,200.8,32.5,206ZM189,81.8l-2.3,1.9c-19.5,16.2-39,32.3-58.4,48.5a7.37,7.37,0,0,1-6.2,2c-3.2-.5-6.5-.5-9.8-.7l-44.1-3.2c-7.5-.6-15-1.1-22.5-1.7-2.1-.2-2.5.5-1.9,2.3.3.8.5,1.6.7,2.3,3.6,11.2,7,22.5,10.8,33.6s1.2,9,14,14.3a.75.75,0,0,0,.5.1,119.31,119.31,0,0,0,57.5,3.6c23.3-4.3,43.1-15.4,59.9-32.1,6-6,11.6-12.3,15.7-19.7a8.49,8.49,0,0,0,.8-6.8c-4.2-13.9-8.7-27.6-13.2-41.4A6.1,6.1,0,0,0,189,81.8ZM25.4,169.2a7.71,7.71,0,0,0,4.9,7.5,7.11,7.11,0,0,0,9.3-4c0-.1.1-.2.1-.3a7.54,7.54,0,0,0-4.1-9.9c-.3-.1-.7-.3-1.1-.4a4.15,4.15,0,0,1-3-3c-3.1-10-6.3-19.9-9.5-29.9-.9-2.7-2-3.7-4.1-2.7s-.3,2.6.1,3.7c3,10.1,6.2,20.1,9.4,30.2.5,1.6.6,2.9-.6,4.3A6.25,6.25,0,0,0,25.4,169.2Z"/><path class="cls-3" d="M214.1,51.2,193,68.8c-22.7,19-45.4,38.1-68.4,56.8a5.16,5.16,0,0,1-3.9,1.3c-25.5-2-51.1-3.9-76.6-5.9-12-.9-24-2-36-3H6.4c-2-.8-4.2,0-6.4-1l6.5-5.8c8.7-7.3,17.5-14.5,26.2-21.8Q63,64.2,93.2,38.8a4.06,4.06,0,0,1,3.3-1.1q43.5,3.45,86.9,6.7l22.5,1.8,12.3,1.1Z"/><path class="cls-3" d="M32.5,206c-.9-5.2-2.6-10.3-3.3-15.6-.4-3-.7-6-1.1-9-.2-1.2.1-1.7,1.4-1.5a11.84,11.84,0,0,0,11.8-4.2c1.2-1.3,1.6-.2,2.1.6,5.4,8.6,9.3,17.8,10.2,28.1a15.1,15.1,0,0,0,.9,4.1,127.38,127.38,0,0,1,4.1,13.3,26.71,26.71,0,0,1,.4,6.3,2.79,2.79,0,0,1-.6,1.8,2.35,2.35,0,0,1-1,.5c-.5,0-.4-.6-.4-1s.1-.8.1-1.2c0-1.4-1-1.5-2-1.5-1.4,0-.9,1.1-.8,1.8s.8,1.5.1,2.1-1.5-.1-2.2-.4c-2.1-.6-4.6-.6-5.8-3.1.1,1.1.3,2.2.4,3.3.1.7,0,1.4-.7,1.6a1.74,1.74,0,0,1-1.8-.4,11.65,11.65,0,0,1-2.4-3.4C37.7,221.3,35,213.7,32.5,206Z"/><path class="cls-3" d="M189,81.8a5.42,5.42,0,0,1,1.5,2.9c4.5,13.8,9,27.5,13.2,41.4a8.49,8.49,0,0,1-.8,6.8c-4.1,7.5-9.7,13.8-15.7,19.7-16.7,16.7-36.5,27.8-59.9,32.1a118,118,0,0,1-57.5-3.6c-.2,0-.3-.1-.5-.1-12.8-5.3-10.2-3-14-14.3s-7.2-22.4-10.8-33.6a15.46,15.46,0,0,0-.7-2.3c-.6-1.8-.2-2.5,1.9-2.3,7.5.6,15,1.1,22.5,1.7l44.1,3.2c3.3.2,6.6.2,9.8.7a7.08,7.08,0,0,0,6.2-2q29.1-24.3,58.4-48.5Z"/><path class="cls-3" d="M25.4,169.2a6.41,6.41,0,0,1,1.5-4.6c1.2-1.4,1.1-2.7.6-4.3-3.2-10-6.4-20.1-9.4-30.2-.3-1.1-2-2.8-.1-3.7s3.2,0,4.1,2.7c3.2,10,6.4,19.9,9.5,29.9a3.85,3.85,0,0,0,3,3,7.54,7.54,0,0,1,5.5,9.2,4.87,4.87,0,0,1-.4,1.1,7.18,7.18,0,0,1-9.1,4.4c-.1,0-.2-.1-.3-.1A7.45,7.45,0,0,1,25.4,169.2Z"/></g></g></g></svg>