<?xml version="1.0" encoding="utf-8"?>
<!-- Generator: Adobe Illustrator 24.1.0, SVG Export Plug-In . SVG Version: 6.00 Build 0)  -->
<svg version="1.1" id="Calque_1" xmlns="http://www.w3.org/2000/svg" xmlns:xlink="http://www.w3.org/1999/xlink" x="0px" y="0px"
	 viewBox="0 0 990 259" style="enable-background:new 0 0 990 259;" xml:space="preserve">
<style type="text/css">
	.st0{fill:#5DB67D;}
	.st1{fill:#FFFFFF;}
	.st2{fill:#1B66AE;}
	.st3{fill:none;}
</style>
<g id="Calque_2_1_">
	<g id="Calque_1-2">
		<g id="icone">
			<path class="st0" d="M234.4,32.3c3.6,1.7,7.3,2.9,10.9,4.7c6.6,3.3,13.2,6.7,19.7,10.3c9.6,5.3,19,10.9,28.2,16.6
				c0.2,0.1,0.5,0.3,0.6,0.5l-15.7-1.2l-60.7-4.6c-0.8-0.1-1.7,0.2-2.3,0.8C201,71.3,186.9,83,172.8,94.8
				c-6.1,5.2-12.2,10.2-18.3,15.3c0-7.2,0.3-14.4,0.8-21.6c0.1-2.3,0.6-4.6,0.7-7c0.1-4.1,2.6-6.7,5.7-9
				c10.4-7.4,21.2-14.2,32.3-20.5c10.7-6.5,21.8-12.4,33.2-17.6c1.7-0.7,3.5-1.3,5.2-2L234.4,32.3L234.4,32.3z"/>
			<path class="st0" d="M172.7,176.2c-4.5-2.7-8.7-5.6-12.9-8.8c-2.4-1.8-3.1-4.4-3.6-7.1c-0.6-3.2-0.9-6.4-1-9.7
				c0-3.5-0.4-6.8-0.4-10.2c-0.1-8.5-0.4-17.2-0.3-25.7h1.2l25.2,2.1l53.5,4.1c1,0.1,2-0.2,2.7-0.9c16.1-13,31.9-26.4,47.8-39.7
				l14.6-12.3c2.2,1.8,4.5,3.5,6.8,5c2.6,1.8,4.1,4.7,4.3,7.9c0.8,6.6,1.1,13.2,1.5,19.9c0.7,12.8,0.5,25.6,0.2,38.4
				c-0.2,6.6-0.5,13.3-1.3,19.9c-0.4,3.7-2.5,7-5.7,9c-10.9,7.7-22.2,15-33.9,21.6c-7.2,4.1-14.4,8.1-21.8,11.9
				c-3.6,1.8-7.3,3.5-10.9,5.2c-3.6,1.8-7.5,1.3-11.2-0.3c-6.4-2.9-12.7-6.2-18.9-9.4c-5.7-2.9-11.2-6.2-16.8-9.4
				c-0.3-0.2-0.6-0.5-0.9-0.7c-0.8-3.1-1.8-6.2-2.9-9.3c-0.3-0.9-0.5-1.8-0.7-2.8c-0.7-7-3.2-13.7-7.1-19.6
				c-0.3-0.6-0.6-1.4-1.5-0.4c-2,2.4-5.2,3.6-8.3,2.9c-0.9-0.2-1.1,0.2-1,1c0.3,2.1,0.5,4.2,0.8,6.3
				C170.8,169,172.1,172.5,172.7,176.2z M281.9,89.4l-1.6,1.3c-13.6,11.3-27.2,22.6-40.8,33.8c-1.2,1.1-2.7,1.6-4.3,1.4
				c-2.2-0.3-4.5-0.3-6.8-0.5l-30.9-2.2c-5.2-0.4-10.5-0.7-15.7-1.2c-1.5-0.1-1.7,0.3-1.3,1.6c0.2,0.5,0.3,1.1,0.5,1.6
				c2.5,7.8,4.9,15.7,7.5,23.5c2.6,7.8,0.9,6.2,9.8,10c0.1,0.1,0.2,0.1,0.3,0.1c13,4.1,26.8,5,40.2,2.5
				c15.9-2.9,30.5-10.8,41.8-22.4c4.3-4.1,8-8.7,11-13.8c0.8-1.4,1-3.1,0.5-4.7c-2.9-9.7-6-19.3-9.2-28.9
				C282.9,90.8,282.5,90,281.9,89.4z M167.7,150.5c-0.1,2.3,1.2,4.4,3.4,5.2c2.6,1,5.5-0.3,6.5-2.8c0,0,0-0.1,0-0.2
				c1.1-2.7-0.1-5.8-2.8-6.9c-0.3-0.1-0.5-0.2-0.7-0.3c-1-0.3-1.8-1.1-2-2.1c-2.2-7-4.4-13.9-6.6-20.9c-0.6-1.9-1.4-2.6-2.8-1.9
				s-0.2,1.8,0,2.6c2.1,7.1,4.4,14,6.6,21c0.5,0.9,0.3,2.1-0.4,2.9C168,148.1,167.6,149.3,167.7,150.5z"/>
			<path class="st1" d="M299.5,68.1l-14.7,12.3c-15.9,13.2-31.7,26.6-47.8,39.7c-0.7,0.7-1.8,1-2.7,0.9l-53.5-4.1
				c-8.3-0.7-16.8-1.4-25.1-2.1h-1.2c-1.4-0.5-2.9,0-4.5-0.7l4.5-4l18.3-15.3c14.1-11.7,28.2-23.5,42.2-35.3
				c0.6-0.6,1.5-0.9,2.3-0.8c20.2,1.6,40.5,3.1,60.7,4.7l15.8,1.2l8.6,0.7L299.5,68.1z"/>
			<path class="st1" d="M172.7,176.2c-0.6-3.7-1.8-7.2-2.3-10.9c-0.3-2-0.5-4.2-0.8-6.3c-0.1-0.8,0.1-1.2,1-1
				c3.1,0.7,6.3-0.5,8.3-2.9c0.8-0.9,1.1-0.1,1.5,0.4c3.9,5.8,6.3,12.5,7.1,19.5c0.1,0.9,0.3,1.9,0.7,2.8c1.2,3.1,2.1,6.2,2.9,9.3
				c0.3,1.4,0.3,2.9,0.3,4.4c0,0.5-0.1,0.9-0.4,1.3c-0.2,0.2-0.5,0.3-0.7,0.3c-0.3,0-0.3-0.4-0.3-0.7c0-0.3,0-0.5,0-0.9
				c0-1-0.7-1.1-1.5-1c-1,0-0.6,0.7-0.5,1.3c0.1,0.5,0.5,1,0.1,1.5c-0.4,0.4-1-0.1-1.6-0.3c-1.5-0.4-3.2-0.4-4.1-2.2
				c0.1,0.7,0.2,1.6,0.3,2.3c0,0.5,0,0.9-0.5,1.2c-0.4,0.1-0.9,0.1-1.3-0.3c-0.7-0.7-1.3-1.5-1.7-2.3
				C176.5,186.8,174.3,181.6,172.7,176.2z"/>
			<path class="st1" d="M281.9,89.4c0.5,0.5,0.9,1.2,1,2c3.1,9.6,6.3,19.2,9.2,28.9c0.5,1.6,0.3,3.3-0.6,4.7c-3,5.1-6.6,9.7-11,13.8
				c-11.3,11.7-25.9,19.5-41.8,22.4c-13.4,2.5-27.2,1.6-40.1-2.5c-0.1,0-0.2-0.1-0.3-0.1c-8.9-3.7-7.1-2-9.8-10
				c-2.6-7.9-5-15.7-7.5-23.5c-0.2-0.5-0.3-1.1-0.5-1.6c-0.4-1.2-0.1-1.8,1.3-1.6c5.2,0.5,10.5,0.8,15.7,1.2l30.9,2.2
				c2.3,0.1,4.6,0.2,6.8,0.5c1.6,0.2,3.1-0.3,4.1-1.4c13.6-11.3,27.2-22.6,40.8-33.8L281.9,89.4z"/>
			<path class="st1" d="M167.7,150.5c-0.1-1.2,0.3-2.3,1-3.2c0.7-0.8,0.8-2,0.4-2.9c-2.2-7-4.4-14-6.6-21c-0.2-0.7-1.5-2,0-2.6
				s2.2,0,2.8,1.9c2.2,6.9,4.4,13.9,6.6,20.8c0.2,1,1,1.8,2,2.1c2.8,0.7,4.5,3.6,3.8,6.4c-0.1,0.3-0.1,0.5-0.3,0.7
				c-0.9,2.6-3.7,4-6.4,3.1l0,0H171C168.9,154.9,167.6,152.8,167.7,150.5z"/>
		</g>
		<g id="nom">
			<path class="st0" d="M840,78.3c-0.4,0.5-0.9,1-1.3,1.6c-19.5,28.7-39,57.4-58.5,86.1c-0.5,0.9-1.6,1.6-2.8,1.5c-5,0-9.8,0-15.1,0
				c0.4-0.7,0.7-1.2,1.1-1.7c7.9-11.7,15.9-23.5,23.8-35.1c0.6-0.8,0.8-2,0.4-2.9c-5.1-16.2-10.2-32.3-15.3-48.6
				c-0.2-0.7-0.3-1.3-0.6-2.2h7.5c2.8,0,5.6,0.1,8.4,0c1.3,0,1.8,0.4,2.1,1.6c3.1,10.7,6.3,21.4,9.6,32l0.4,1.2
				c0.5-0.7,0.9-1.2,1.2-1.6c7.1-10.6,14.1-21.2,21.2-31.9c0.5-0.9,1.4-1.4,2.4-1.4c5.2,0.1,10.3,0.1,15.5,0.1L840,78.3L840,78.3z"
				/>
			<path class="st2" d="M636.1,165.5H620v-9.6c-0.3,0.1-0.6,0.3-0.9,0.5c-16.3,16.8-41.8,13.1-56.2,0
				c-24.6-22.1-18.2-64.4,15.9-75.8c14.9-5,28.6-2.3,40.1,9l0.9,0.8v-50h16.3L636.1,165.5L636.1,165.5z M620,123.1
				c0.1-2.5-0.1-5-0.5-7.5c-3.5-14-18.3-23.1-32.6-20.1c-15.2,3.3-24.9,18.1-21.6,33.3c0,0.1,0,0.2,0,0.3
				c3.3,15.1,18.2,24.5,33.2,21.2c6.4-1.4,12.2-5.1,16.2-10.4c4-4.7,5.9-10.8,5.3-17L620,123.1z"/>
			<path class="st2" d="M724.6,96.6l-50.9,50.5c1.9,1.8,4.3,2.8,6.9,3.2c6.7,1.2,13.3,1.2,19.7-1.7c4.5-2.1,8.3-5.3,11.3-9.3
				c0.5-0.9,1.7-1.2,2.6-0.7l0,0c4.8,1.8,9.6,3.5,14.5,5.3C717.9,161,702,170.9,679.7,167c-17.2-2.9-33.7-18.9-35.5-39.5
				c-1.8-19.6,9.7-38.8,27.9-45.8C688.8,75.1,710.2,77.7,724.6,96.6z M700.7,97.3c-6.3-5.2-23.5-2-31.5,5.9
				c-8.1,7.9-11.4,25.2-6.4,31.8L700.7,97.3z"/>
			<path class="st2" d="M353.7,124.5c0.7,3.1,1.1,6,1.8,9c2.3,8.8,7.7,14.7,16.7,16.8c12.3,2.8,24.7-4.9,27.5-17.2
				c1.8-7.7-0.6-15.9-6.2-21.5c-4.7-4.7-10.4-8.3-16.7-10.6c-7.4-2.4-14.1-6.4-19.8-11.7c-8.8-8.6-11.3-19.1-7.3-30.6
				c3.9-11.5,12.1-18.2,24.3-19.6c13.8-1.6,25.4,5.6,30.6,19c0.5,1.4,1,2.7,1.6,4.3l-14.7,5.8c-0.9-2-1.8-4-2.6-5.9
				c-2.1-4.9-7.2-7.7-12.4-7.1c-5.2,0.1-9.7,3.5-11.3,8.3c-2.1,4.9-0.8,10.6,3.2,14.2c3.7,3.6,8.2,6.3,13.1,8
				c11.3,4.1,21.3,10.2,28.2,20.2c12.2,17.7,7.8,42-9.9,54.2c-4.6,3.2-9.8,5.3-15.3,6.3c-21.8,3.8-40.4-9.3-45.3-31.4
				c-1.1-4.7-1.1-4.7,3.5-6.4L353.7,124.5z"/>
			<path class="st2" d="M469.8,85.1H486v47.5c-0.3,8.2,5.2,15.5,13.2,17.3c9.4,2.4,18.9-3.3,21.2-12.7l0,0c0.3-1.4,0.5-2.8,0.5-4.2
				c-0.2-15.3,0-30.4,0-45.7c0-2.4,0-2.4,2.2-2.4h12.5c0.9,0,1.5,0.2,1.5,1.3c-0.1,16.9,0.2,33.8-0.3,50.7
				c-0.5,15.2-12.6,27.6-27.7,29.4c-9.5,1.1-18.6-0.1-26.4-6c-8.3-6-13.2-15.7-13-25.9c-0.2-16.1,0-32.3,0-48.4
				C469.6,85.8,469.7,85.5,469.8,85.1z"/>
			<path class="st2" d="M431.2,101.2h-14.4V85h14.3V54.9h16.1v30h14.4V101h-14.3v64.4h-16.1V101.2z"/>
			<path class="st0" d="M737.8,41h16.1v125.3h-16.1V41z"/>
		</g>
		<path class="st2" d="M364,191c10,0,16.5,7.1,16.5,17.9c0,10.9-6.5,17.9-16.5,17.9c-10,0-16.6-7.1-16.6-17.9
			C347.4,198,353.9,191,364,191z M364,222.8c7.2,0,11.9-5.4,11.9-14s-4.7-14-11.9-14c-7.2,0-11.9,5.4-11.9,14S356.7,222.8,364,222.8
			L364,222.8z"/>
		<path class="st2" d="M385.3,208.9c0-4,3.3-6.6,8.4-6.6c2.4-0.1,4.7,0.5,6.7,1.7c1.1,0.7,1.6,1.4,1.6,2.1c0.1,1.1-0.7,2-1.8,2.1
			c-0.5,0-0.9-0.3-1.9-0.9c-1.4-0.9-3.1-1.3-4.7-1.4c-2.5,0-3.9,1.1-3.9,2.7c0,4.4,12.7,2.8,12.7,10.9c0,4.3-3.4,6.9-8.7,6.9
			c-2.5,0.1-5-0.6-7.1-2c-1.1-0.7-1.6-1.3-1.6-2.1c0-1.1,0.8-2,1.9-2.1c0.5,0,0.9,0.4,1.8,0.9c1.5,1,3.3,1.6,5,1.6
			c2.5,0,4.3-1.2,4.3-3.1C398,215.1,385.3,216.8,385.3,208.9z"/>
		<path class="st2" d="M426.8,222.4c0,0.7-0.5,1.4-1.6,2.1c-2.2,1.4-4.7,2.1-7.3,2c-7.1,0-11.4-4.6-11.4-12.1
			c0-7.5,4.1-12.3,10.6-12.3c6.1,0,10,4.4,10,10.4c0,2.8-1,3.1-2.8,3.1h-13.6c0.4,4.4,2.7,7.1,7.2,7.1c1.7,0.1,3.5-0.4,4.9-1.3
			c0.5-0.5,1.2-0.8,1.8-0.9C426,220.5,426.8,221.3,426.8,222.4L426.8,222.4z M411.1,212.3H423c0-3.9-2-6.6-5.8-6.6
			C413.7,205.7,411.5,208.2,411.1,212.3L411.1,212.3z"/>
		<path class="st2" d="M433.4,206.6c-0.9,0.1-1.8-0.5-1.8-1.4c0-0.1,0-0.3,0-0.5c-0.1-0.9,0.5-1.8,1.4-1.9c0.1,0,0.3,0,0.5,0h14.4
			c1.3,0,1.9,0.6,1.9,1.7c-0.1,1-0.5,2-1.3,2.8l-11.4,15h11.6c0.9-0.1,1.7,0.5,1.8,1.4c0,0.1,0,0.3,0,0.5c0.1,0.9-0.5,1.8-1.4,1.9
			c-0.1,0-0.3,0-0.5,0h-15.1c-1.3,0-2-0.5-2-1.7c0-1.2,0.4-1.6,1.4-2.8l11.4-15H433.4z"/>
		<path class="st2" d="M482.9,204.4c0.6-1.6,1.1-2,2.6-2c1.6,0,2,0.5,2,1.3c0,0.5-0.1,1.2-0.3,1.6l-8,18.9c-0.7,1.6-1.3,2.2-3.1,2.2
			c-2,0-2.4-0.6-3.1-2.2l-7.9-18.9c-0.2-0.5-0.3-1.1-0.3-1.6c0-0.7,0.5-1.3,2-1.3s2.1,0.5,2.7,2l6.7,16.8L482.9,204.4z"/>
		<path class="st2" d="M502.4,202.1c7.1,0,11.6,4.8,11.6,12.2s-4.5,12.3-11.7,12.3s-11.5-4.8-11.5-12.2
			C490.7,207.1,495.4,202.1,502.4,202.1z M502.4,223c4.3,0,6.9-3.3,6.9-8.5s-2.7-8.7-6.9-8.7c-4.3,0-7,3.3-7,8.6
			C495.4,219.6,498.2,223,502.4,223z"/>
		<path class="st2" d="M534.3,223.8c0,0.7-0.4,1.3-1.1,1.6c-1.4,0.7-3.1,1.2-4.7,1.1c-2.5,0.3-4.9-1-6.2-3.2c-0.9-2-1.2-4.1-1-6.2
			v-10.4h-2.9c-0.9,0.1-1.7-0.5-1.8-1.4c0-0.1,0-0.3,0-0.5c-0.1-0.9,0.5-1.8,1.4-1.9c0.1,0,0.3,0,0.5,0h2.9v-5.8
			c0-1.2,0.7-1.8,2.2-1.8s2.3,0.6,2.3,1.8v5.8h6c0.9-0.1,1.7,0.5,1.8,1.4c0,0.1,0,0.3,0,0.5c0.1,0.9-0.5,1.8-1.4,1.9
			c-0.1,0-0.3,0-0.4,0h-6V217c-0.1,1.4,0.1,2.8,0.5,4.2c0.5,0.9,1.6,1.6,2.8,1.5c0.7,0,1.5-0.1,2.2-0.5c0.4-0.2,0.8-0.3,1.2-0.4
			C533.9,221.7,534.3,223.2,534.3,223.8z"/>
		<path class="st2" d="M544.1,224.5c0,1.2-0.7,1.8-2.2,1.8c-1.5,0-2.3-0.6-2.3-1.8v-20.3c0-1.2,0.7-1.8,2.2-1.8s2.1,0.7,2,1.8v2.6
			c1.2-2.9,4.1-4.7,7.3-4.6c1.5,0,2,0.6,2,2s-0.8,2-2.3,2.1c-3.4,0.1-5.4,1.3-6.7,4.1L544.1,224.5L544.1,224.5z"/>
		<path class="st2" d="M575.4,222.4c0,0.7-0.5,1.4-1.6,2.1c-2.2,1.4-4.7,2.1-7.3,2c-7.1,0-11.3-4.6-11.3-12.1
			c0-7.5,4.1-12.3,10.6-12.3c6.1,0,10,4.4,10,10.4c0,2.8-1,3.1-2.8,3.1h-13.4c0.4,4.4,2.7,7.1,7.2,7.1c1.7,0.1,3.4-0.4,4.9-1.3
			c0.5-0.5,1.2-0.8,1.8-0.9C574.5,220.5,575.4,221.4,575.4,222.4z M559.6,212.3h11.9c0-3.9-2-6.6-5.8-6.6
			C562.2,205.7,560,208.2,559.6,212.3z"/>
		<path class="st2" d="M600.9,206c-1.7,0-3.3,0.5-4.8,1.4c-0.9,0.5-1.3,0.9-1.8,0.9c-1.1-0.1-1.8-1.1-1.8-2.1c0-0.6,0.5-1.3,1.6-2
			c2.2-1.3,4.7-1.9,7.3-1.8c3.4,0,5.9,0.9,7.3,2.9c1.2,1.7,1.6,3.7,1.5,5.8v13.6c0,1.3-0.5,1.9-2.1,1.9c-1.3,0-2-0.4-2-1.5v-1.3
			c-1.8,1.9-4.5,2.9-7.1,2.8c-4.7,0-7.5-2.6-7.5-6.6c0-4.8,4.2-7.3,14.4-8.2V211C605.7,207.7,604.4,206,600.9,206z M596,219.5
			c0,1.8,1.3,3.3,4.3,3.3c2,0,3.9-0.7,5.4-2.1v-6.1C599.1,215.4,596,216.6,596,219.5L596,219.5z"/>
		<path class="st2" d="M632.9,204.4c0.6-1.6,1.1-2,2.6-2s2,0.5,2,1.3c0,0.5-0.1,1.2-0.3,1.6l-8.1,18.9c-0.7,1.6-1.3,2.2-3.1,2.2
			c-1.8,0-2.4-0.6-3.1-2.2l-7.9-18.9c-0.2-0.5-0.3-1.1-0.3-1.6c0-0.7,0.5-1.3,2-1.3s2.1,0.5,2.7,2l6.7,16.8L632.9,204.4z"/>
		<path class="st2" d="M661,222.4c0,0.7-0.5,1.4-1.6,2.1c-2.2,1.4-4.7,2.1-7.3,2c-7.1,0-11.3-4.6-11.3-12.1
			c0-7.5,4.1-12.3,10.6-12.3c6.1,0,10,4.4,10,10.4c0,2.8-1,3.1-2.7,3.1h-13.6c0.4,4.4,2.7,7.1,7.2,7.1c1.7,0.1,3.4-0.4,4.9-1.3
			c0.5-0.5,1.2-0.8,1.8-0.9C660.1,220.5,661,221.3,661,222.4L661,222.4z M645.2,212.3h11.9c0-3.9-2-6.6-5.8-6.6
			C647.9,205.7,645.7,208.2,645.2,212.3z"/>
		<path class="st2" d="M671.7,204.2v1.7c1.7-2.4,4.6-3.9,7.6-3.7c2.6-0.3,5.2,0.9,6.8,3.1c1.1,1.9,1.6,4.1,1.5,6.2v12.9
			c0,1.2-0.7,1.8-2.2,1.8c-1.5,0-2.3-0.6-2.3-1.8v-12.2c0.1-1.5-0.3-3-1.1-4.3c-1-1.3-2.6-2-4.3-1.8c-2.4-0.1-4.5,1.1-5.9,3.1v15.3
			c0,1.2-0.7,1.8-2.2,1.8c-1.5,0-2.3-0.6-2.3-1.8v-20.3c0-1.2,0.7-1.8,2.2-1.8C671,202.3,671.8,203.1,671.7,204.2z"/>
		<path class="st2" d="M697.3,197.5c-1.6,0-2.9-1.3-2.9-2.9s1.3-2.9,2.9-2.9c1.6,0,2.9,1.3,2.9,2.9c0.1,1.6-1.2,2.8-2.7,2.9
			C697.4,197.5,697.4,197.5,697.3,197.5z M699.5,224.5c0,1.2-0.7,1.8-2.2,1.8c-1.5,0-2.3-0.6-2.3-1.8v-20.3c0-1.2,0.7-1.8,2.2-1.8
			s2.3,0.6,2.3,1.8V224.5z"/>
		<path class="st2" d="M711.6,224.5c0,1.2-0.7,1.8-2.2,1.8s-2.3-0.6-2.3-1.8v-20.3c0-1.2,0.7-1.8,2.2-1.8c1.5,0,2.1,0.7,2.1,1.8v2.6
			c1.2-2.9,4.1-4.7,7.3-4.6c1.5,0,2,0.6,2,2s-0.8,2-2.3,2.1c-3.4,0.1-5.4,1.3-6.7,4.1L711.6,224.5z"/>
	</g>
</g>
<rect class="st3" width="990" height="259"/>
</svg>
