<svg xmlns="http://www.w3.org/2000/svg" viewBox="0 0 84.5 84.5"><defs><style>.cls-1{fill:#1b66a9;stroke:#fff;stroke-miterlimit:10;}</style></defs><g id="Calque_2" data-name="Calque 2"><g id="Calque_1-2" data-name="Calque 1"><path class="cls-1" d="M84,42.25C84,19.75,64.76.5,42.25.5S.5,19.75.5,42.25,19.75,84,42.25,84c.39,0,.77,0,1.16,0,.17,0,.33,0,.5,0a33.05,33.05,0,0,0,8.79-1.21,27.6,27.6,0,0,0,5.86-2.21C72.93,74.28,84,59,84,42.25ZM30.83,37.76A12.39,12.39,0,1,1,43.21,50.14,12.39,12.39,0,0,1,30.83,37.76ZM62,74.82a23.87,23.87,0,0,1-4.86,3.23,37,37,0,0,1-14.06,3.08c-5.72-.14-12.61-1.85-20.56-6.5,0-.21,0-.42,0-.64A19.75,19.75,0,0,1,62,74.82ZM65,73A22.79,22.79,0,0,0,49.25,52.15a15.62,15.62,0,1,0-12.8-.34A22.76,22.76,0,0,0,19.51,73,38.28,38.28,0,1,1,65,73Z"/></g></g></svg>