<svg xmlns="http://www.w3.org/2000/svg" viewBox="0 0 74.07 53.62"><defs><style>.cls-1{fill:#1b66a9;}</style></defs><g id="Calque_2" data-name="Calque 2"><g id="Calque_1-2" data-name="Calque 1"><path class="cls-1" d="M1.49,42.67h1.6l2,6,2-6H8.7l1.45,8.61H8.56l-.92-5.44L5.81,51.28H4.36L2.55,45.84,1.6,51.28H0Z"/><path class="cls-1" d="M14.27,44.75a3.38,3.38,0,0,1,1.7.45,3.3,3.3,0,0,1,1.24,1.22,3.26,3.26,0,0,1,.44,1.67,3.44,3.44,0,0,1-.44,1.69A3.3,3.3,0,0,1,16,51a3.39,3.39,0,0,1-1.7.44,3.18,3.18,0,0,1-2.34-1,3.35,3.35,0,0,1,2.33-5.72Zm0,1.5a1.62,1.62,0,0,0-1.24.52,1.86,1.86,0,0,0-.5,1.33,1.89,1.89,0,0,0,.49,1.34,1.62,1.62,0,0,0,1.24.52,1.65,1.65,0,0,0,1.25-.52A1.84,1.84,0,0,0,16,48.1a1.86,1.86,0,0,0-.49-1.34A1.64,1.64,0,0,0,14.3,46.25Z"/><path class="cls-1" d="M19,44.91h1.6v.65a3.89,3.89,0,0,1,1-.64,2.52,2.52,0,0,1,.9-.17,2.2,2.2,0,0,1,1.61.66,2.27,2.27,0,0,1,.56,1.66v4.21H23V48.49a6.93,6.93,0,0,0-.1-1.51,1,1,0,0,0-.36-.57,1,1,0,0,0-.62-.2,1.17,1.17,0,0,0-.84.33,1.7,1.7,0,0,0-.48.89,7,7,0,0,0-.07,1.3v2.55H19Z"/><path class="cls-1" d="M35.76,46.2l-1.33.73a2.28,2.28,0,0,0-.74-.54,2.1,2.1,0,0,0-.86-.16,2,2,0,0,0-1.46.54,1.82,1.82,0,0,0-.55,1.37,1.79,1.79,0,0,0,.53,1.33,2,2,0,0,0,1.41.51,2,2,0,0,0,1.67-.73l1.26.87a3.46,3.46,0,0,1-2.9,1.33,3.45,3.45,0,0,1-2.63-1,3.27,3.27,0,0,1-.95-2.33,3.24,3.24,0,0,1,.46-1.7A3.32,3.32,0,0,1,31,45.19a3.84,3.84,0,0,1,1.86-.44,3.76,3.76,0,0,1,1.7.37A3.24,3.24,0,0,1,35.76,46.2Z"/><path class="cls-1" d="M40.2,44.75a3.37,3.37,0,0,1,1.69.45,3.31,3.31,0,0,1,1.69,2.89A3.38,3.38,0,0,1,41.91,51a3.46,3.46,0,0,1-1.71.44,3.33,3.33,0,0,1-3.31-3.35A3.25,3.25,0,0,1,38,45.61,3.17,3.17,0,0,1,40.2,44.75Zm0,1.5a1.62,1.62,0,0,0-1.24.52,1.86,1.86,0,0,0-.5,1.33A1.89,1.89,0,0,0,39,49.44a1.63,1.63,0,0,0,1.25.52,1.66,1.66,0,0,0,1.25-.52,2.08,2.08,0,0,0,0-2.68A1.64,1.64,0,0,0,40.22,46.25Z"/><path class="cls-1" d="M44.87,44.91h1.6v.73a2.75,2.75,0,0,1,.91-.67,2.67,2.67,0,0,1,1.1-.22,2,2,0,0,1,1.07.29,2.08,2.08,0,0,1,.78.85,2.51,2.51,0,0,1,2.15-1.14,2.22,2.22,0,0,1,1.19.31,1.79,1.79,0,0,1,.74.83,4.4,4.4,0,0,1,.23,1.66v3.73H53V48.05a2.79,2.79,0,0,0-.27-1.47A.94.94,0,0,0,52,46.2a1.3,1.3,0,0,0-.74.23,1.52,1.52,0,0,0-.48.65,3.93,3.93,0,0,0-.16,1.33v2.87H49V48.2A4.1,4.1,0,0,0,48.83,47a1.09,1.09,0,0,0-.37-.57,1,1,0,0,0-.61-.19,1.21,1.21,0,0,0-.73.24,1.39,1.39,0,0,0-.49.66,4.1,4.1,0,0,0-.16,1.35v2.83h-1.6Z"/><path class="cls-1" d="M57.75,44.91v.7a3.06,3.06,0,0,1,.94-.65,2.74,2.74,0,0,1,1.08-.21,2.79,2.79,0,0,1,2.12.94,3.42,3.42,0,0,1,.87,2.42,3.34,3.34,0,0,1-.9,2.38,2.85,2.85,0,0,1-2.14,1,2.7,2.7,0,0,1-1-.2,3.08,3.08,0,0,1-.94-.64v3H56.16V44.91Zm1.68,1.31a1.65,1.65,0,0,0-1.25.52,1.86,1.86,0,0,0-.5,1.35,1.92,1.92,0,0,0,.5,1.37,1.65,1.65,0,0,0,1.25.52,1.63,1.63,0,0,0,1.24-.53,1.92,1.92,0,0,0,.5-1.36,1.87,1.87,0,0,0-.5-1.34A1.62,1.62,0,0,0,59.43,46.22Z"/><path class="cls-1" d="M64.28,42.56h1.6v2.35h1v1.38h-1v5h-1.6v-5h-.82V44.91h.82Z"/><path class="cls-1" d="M74.07,48.56H68.93a1.71,1.71,0,0,0,.59,1.08,1.88,1.88,0,0,0,1.24.4,2.15,2.15,0,0,0,1.54-.62l1.35.63a3.29,3.29,0,0,1-1.21,1.06,3.92,3.92,0,0,1-1.67.34,3.3,3.3,0,0,1-2.44-1,3.22,3.22,0,0,1-1-2.37,3.35,3.35,0,0,1,.94-2.42,3.18,3.18,0,0,1,2.36-1,3.28,3.28,0,0,1,2.45,1,3.47,3.47,0,0,1,.94,2.55Zm-1.6-1.26a1.66,1.66,0,0,0-.63-.87,1.82,1.82,0,0,0-1.08-.33,1.88,1.88,0,0,0-1.17.37,2.19,2.19,0,0,0-.59.83Z"/><path class="cls-1" d="M36,21a6.32,6.32,0,1,1,6.32-6.32A6.32,6.32,0,0,1,36,21ZM36,9.36a5.32,5.32,0,1,0,5.32,5.32A5.32,5.32,0,0,0,36,9.36Z"/><path class="cls-1" d="M44.84,29.59h-1a8.23,8.23,0,1,0-16.45,0h-1a9.23,9.23,0,1,1,18.45,0Z"/><path class="cls-1" d="M35.61,33a16.5,16.5,0,1,1,16.5-16.5A16.52,16.52,0,0,1,35.61,33Zm0-32a15.5,15.5,0,1,0,15.5,15.5A15.52,15.52,0,0,0,35.61,1Z"/><path class="cls-1" d="M36.28,33a18.67,18.67,0,0,1-9.65-3l.51-.86c10.43,6.26,16.59.33,16.85.08l.7.7a11.44,11.44,0,0,1-4.85,2.59A13.45,13.45,0,0,1,36.28,33Z"/></g></g></svg>