<svg xmlns="http://www.w3.org/2000/svg" viewBox="0 0 339.45 307.69"><defs><style>.cls-1{fill:#1d66af;}.cls-2{fill:#fff;}.cls-3{fill:#5db67d;}</style></defs><title>residences</title><g id="Calque_2" data-name="Calque 2"><g id="Calque_1-2" data-name="Calque 1"><rect class="cls-1" x="213.37" y="69.97" width="126.08" height="231.77"/><rect class="cls-1" y="92.04" width="126.08" height="209.69"/><rect class="cls-2" x="101.84" y="5.96" width="126.08" height="295.78"/><path class="cls-1" d="M233.87,307.69h-138V0h138ZM107.79,295.78H222V11.91H107.79Z"/><path class="cls-3" d="M132.78,86.33V98.85A2.49,2.49,0,0,0,134,100.6a4.5,4.5,0,0,0,2.3,1.23,10.2,10.2,0,0,0,3.33.46,13.43,13.43,0,0,0,3.84-.24,15,15,0,0,0,6.65-2.67l1.35-1.27a3.43,3.43,0,0,0,.9-2.73V82.87a2.49,2.49,0,0,0-1.18-1.75,4.53,4.53,0,0,0-2.31-1.23,10.38,10.38,0,0,0-3.32-.47,13.39,13.39,0,0,0-3.84.25A15.07,15.07,0,0,0,135,82.34l-1.35,1.27a3.38,3.38,0,0,0-.89,2.72Z"/><path class="cls-3" d="M132.78,130.48V143a2.51,2.51,0,0,0,1.18,1.75,4.5,4.5,0,0,0,2.3,1.23,10.47,10.47,0,0,0,3.33.46,13.8,13.8,0,0,0,3.84-.24,15,15,0,0,0,6.65-2.67l1.35-1.27a3.46,3.46,0,0,0,.9-2.73V127a2.54,2.54,0,0,0-1.18-1.75,4.53,4.53,0,0,0-2.31-1.23,10.37,10.37,0,0,0-3.32-.46,13.75,13.75,0,0,0-3.84.24,15.07,15.07,0,0,0-6.66,2.67l-1.35,1.27a3.41,3.41,0,0,0-.89,2.73Z"/><path class="cls-3" d="M176.45,130.48V143a2.54,2.54,0,0,0,1.18,1.75,4.5,4.5,0,0,0,2.3,1.23,10.47,10.47,0,0,0,3.33.46,13.75,13.75,0,0,0,3.84-.24,15,15,0,0,0,6.65-2.67l1.35-1.27a3.42,3.42,0,0,0,.9-2.73V127a2.54,2.54,0,0,0-1.18-1.75,4.5,4.5,0,0,0-2.3-1.23,10.47,10.47,0,0,0-3.33-.46,13.75,13.75,0,0,0-3.84.24,15.12,15.12,0,0,0-6.66,2.67l-1.35,1.27a3.41,3.41,0,0,0-.89,2.73Z"/><path class="cls-3" d="M132.78,179v12.52a2.51,2.51,0,0,0,1.18,1.75,4.5,4.5,0,0,0,2.3,1.23,10.47,10.47,0,0,0,3.33.46,13.8,13.8,0,0,0,3.84-.24,15,15,0,0,0,6.65-2.67l1.35-1.27a3.46,3.46,0,0,0,.9-2.73V175.58a2.53,2.53,0,0,0-1.18-1.76,4.53,4.53,0,0,0-2.31-1.23,10.37,10.37,0,0,0-3.32-.46,13.75,13.75,0,0,0-3.84.24A15.07,15.07,0,0,0,135,175l-1.35,1.27a3.41,3.41,0,0,0-.89,2.73Z"/><path class="cls-3" d="M132.78,223.19V235.7a2.47,2.47,0,0,0,1.18,1.75,4.5,4.5,0,0,0,2.3,1.23,10.48,10.48,0,0,0,3.33.47,13.44,13.44,0,0,0,3.84-.25,15,15,0,0,0,6.65-2.67l1.35-1.27a3.42,3.42,0,0,0,.9-2.72V219.72a2.52,2.52,0,0,0-1.18-1.75,4.53,4.53,0,0,0-2.31-1.23,10.1,10.1,0,0,0-3.32-.46,13.75,13.75,0,0,0-3.84.24,15.07,15.07,0,0,0-6.66,2.67l-1.35,1.27a3.39,3.39,0,0,0-.89,2.73Z"/><path class="cls-3" d="M176.45,223.19V235.7a2.49,2.49,0,0,0,1.18,1.75,4.5,4.5,0,0,0,2.3,1.23,10.48,10.48,0,0,0,3.33.47,13.39,13.39,0,0,0,3.84-.25,15,15,0,0,0,6.65-2.67L195.1,235a3.39,3.39,0,0,0,.9-2.72V219.72a2.52,2.52,0,0,0-1.18-1.75,4.5,4.5,0,0,0-2.3-1.23,10.2,10.2,0,0,0-3.33-.46,13.75,13.75,0,0,0-3.84.24,15.12,15.12,0,0,0-6.66,2.67l-1.35,1.27a3.39,3.39,0,0,0-.89,2.73Z"/><path class="cls-3" d="M69.72,135v12.52a2.52,2.52,0,0,0,1.18,1.75,4.53,4.53,0,0,0,2.31,1.23,10.1,10.1,0,0,0,3.32.46,13.39,13.39,0,0,0,3.84-.24A15.07,15.07,0,0,0,87,148.08l1.35-1.27a3.39,3.39,0,0,0,.89-2.73V131.57a2.49,2.49,0,0,0-1.18-1.75,4.5,4.5,0,0,0-2.3-1.23,10.48,10.48,0,0,0-3.33-.47,13.44,13.44,0,0,0-3.84.25A15,15,0,0,0,72,131l-1.35,1.27a3.42,3.42,0,0,0-.9,2.72Z"/><path class="cls-3" d="M26.05,206V222.6c0,1.54,2.4,2.63,3.48,3a15.39,15.39,0,0,0,7.17.22,15.12,15.12,0,0,0,6.66-2.67l1.35-1.27a3.39,3.39,0,0,0,.89-2.73V202.49c0-1.55-2.39-2.64-3.48-3a15.39,15.39,0,0,0-7.17-.22A15,15,0,0,0,28.3,202L27,203.23a3.4,3.4,0,0,0-.9,2.73Z"/><path class="cls-2" d="M26.05,135v12.52a2.52,2.52,0,0,0,1.18,1.75,4.5,4.5,0,0,0,2.3,1.23,10.2,10.2,0,0,0,3.33.46,13.39,13.39,0,0,0,3.84-.24,15.12,15.12,0,0,0,6.66-2.67l1.35-1.27a3.39,3.39,0,0,0,.89-2.73V131.57a2.49,2.49,0,0,0-1.18-1.75,4.5,4.5,0,0,0-2.3-1.23,10.48,10.48,0,0,0-3.33-.47,13.39,13.39,0,0,0-3.84.25A15,15,0,0,0,28.3,131L27,132.31a3.39,3.39,0,0,0-.9,2.72Z"/><path class="cls-2" d="M240.44,193.26v24.92c0,1.55,2.4,2.64,3.48,3a15.39,15.39,0,0,0,7.17.22c3.4-.68,8.9-2.39,8.9-6.66V189.8c0-1.55-2.39-2.64-3.48-3a15.66,15.66,0,0,0-7.17-.22c-3.4.69-8.9,2.4-8.9,6.67Z"/><path class="cls-3" d="M292.06,131.46v24.92c0,1.54,2.39,2.63,3.48,3a15.35,15.35,0,0,0,7.16.22c3.41-.68,8.9-2.4,8.9-6.67V128c0-1.54-2.39-2.63-3.48-3a15.39,15.39,0,0,0-7.17-.22c-3.4.68-8.89,2.4-8.89,6.67Z"/><path class="cls-2" d="M240.82,122.38v12.51a4,4,0,0,0,1.25,1.83,8.67,8.67,0,0,0,2.31,1.86,22.56,22.56,0,0,0,7.12,2.84l2.37.38a10.66,10.66,0,0,0,3.82-.18l1.25-.56a1.71,1.71,0,0,0,.67-2V126.57a4,4,0,0,0-1.25-1.84,8.64,8.64,0,0,0-2.31-1.85,22.13,22.13,0,0,0-7.11-2.84l-2.38-.39a10.91,10.91,0,0,0-3.82.19l-1.25.56a1.73,1.73,0,0,0-.67,2Z"/><path class="cls-3" d="M176.92,76.83V99c0,1.54,2.39,2.63,3.48,3a15.39,15.39,0,0,0,7.17.22c3.4-.68,8.9-2.4,8.9-6.67V73.36c0-1.54-2.4-2.63-3.49-3a15.34,15.34,0,0,0-7.16-.22c-3.4.68-8.9,2.4-8.9,6.67Z"/></g></g></svg>