<svg xmlns="http://www.w3.org/2000/svg" viewBox="0 0 64.09 53"><defs><style>.cls-1{fill:#fff;}.cls-2{fill:#5db57d;}.cls-3{fill:none;stroke:#fff;stroke-miterlimit:10;}</style></defs><title>sites filiales</title><g id="Calque_2" data-name="Calque 2"><g id="Calque_1-2" data-name="Calque 1"><path class="cls-1" d="M5.27,45.34,4.05,46.41a1.72,1.72,0,0,0-1.3-.89.82.82,0,0,0-.53.17.5.5,0,0,0-.2.39.64.64,0,0,0,.14.41A12.87,12.87,0,0,0,3.37,47.6c.62.52,1,.85,1.13,1a3.46,3.46,0,0,1,.71,1,2.4,2.4,0,0,1,.21,1,2.29,2.29,0,0,1-.73,1.75A2.69,2.69,0,0,1,2.77,53a2.86,2.86,0,0,1-1.6-.45A3.46,3.46,0,0,1,0,51.13l1.38-.83c.41.76.89,1.14,1.43,1.14a1.07,1.07,0,0,0,.71-.24.76.76,0,0,0,.29-.57A1,1,0,0,0,3.59,50a6,6,0,0,0-1-.89A10.16,10.16,0,0,1,.81,47.37,2.26,2.26,0,0,1,.4,46.13a2,2,0,0,1,.69-1.54A2.35,2.35,0,0,1,2.77,44a2.66,2.66,0,0,1,1.23.3A4.53,4.53,0,0,1,5.27,45.34Z"/><path class="cls-1" d="M7.43,43.78a1,1,0,0,1,.72.31,1,1,0,0,1,.31.74,1,1,0,0,1-.3.73,1,1,0,0,1-.72.3,1,1,0,0,1-.72-.31,1.06,1.06,0,0,1,0-1.47A1,1,0,0,1,7.43,43.78Zm-.8,2.63h1.6v6.37H6.63Z"/><path class="cls-1" d="M9.88,44.06h1.6v2.35h.95v1.38h-.95v5H9.88v-5H9.06V46.41h.82Z"/><path class="cls-1" d="M19.67,50.06H14.53a1.72,1.72,0,0,0,.6,1.08,1.84,1.84,0,0,0,1.23.4,2.15,2.15,0,0,0,1.54-.62l1.35.63A3.29,3.29,0,0,1,18,52.61a3.88,3.88,0,0,1-1.67.34,3.3,3.3,0,0,1-2.44-1A3.22,3.22,0,0,1,13,49.63a3.35,3.35,0,0,1,.94-2.42,3.18,3.18,0,0,1,2.36-1,3.28,3.28,0,0,1,2.45,1,3.48,3.48,0,0,1,.95,2.55Zm-1.6-1.26a1.64,1.64,0,0,0-.62-.87,1.87,1.87,0,0,0-1.09-.33,1.9,1.9,0,0,0-1.17.37,2.19,2.19,0,0,0-.59.83Z"/><path class="cls-1" d="M24.87,47.3l-1,1a1.69,1.69,0,0,0-1.1-.6.66.66,0,0,0-.42.12.33.33,0,0,0-.15.28.36.36,0,0,0,.09.24,2,2,0,0,0,.48.29l.59.3a3.41,3.41,0,0,1,1.27.93A1.85,1.85,0,0,1,25,51a1.82,1.82,0,0,1-.62,1.42,2.38,2.38,0,0,1-1.67.57,2.66,2.66,0,0,1-2.23-1.09l1-1.07a2.23,2.23,0,0,0,.65.53,1.56,1.56,0,0,0,.68.2.81.81,0,0,0,.51-.15.46.46,0,0,0,.19-.35c0-.25-.23-.49-.7-.73L22.24,50c-1-.51-1.54-1.17-1.54-2a1.69,1.69,0,0,1,.58-1.29,2.09,2.09,0,0,1,1.49-.53,2.59,2.59,0,0,1,2.1,1Z"/><path class="cls-1" d="M28.84,46.41h.57c0-.84,0-1.33,0-1.48a1.24,1.24,0,0,1,.44-.84A1.68,1.68,0,0,1,31,43.78a3.44,3.44,0,0,1,1.13.23v1.22a2.44,2.44,0,0,0-.57-.1.57.57,0,0,0-.41.12.47.47,0,0,0-.1.36v.8h1v1.35H31v5h-1.6v-5h-.57Z"/><path class="cls-1" d="M33.58,43.78a1,1,0,0,1,.72.31,1,1,0,0,1,.31.74,1,1,0,0,1-.3.73,1,1,0,0,1-.72.3,1,1,0,0,1-.72-.31,1.06,1.06,0,0,1,0-1.47A1,1,0,0,1,33.58,43.78Zm-.8,2.63h1.6v6.37h-1.6Z"/><path class="cls-1" d="M35.66,44h1.6v8.83h-1.6Z"/><path class="cls-1" d="M39.34,43.78a1,1,0,0,1,.72.31,1.05,1.05,0,0,1,0,1.47,1,1,0,0,1-.71.3,1,1,0,0,1-.73-.31,1,1,0,0,1-.3-.75,1,1,0,0,1,1-1Zm-.8,2.63h1.6v6.37h-1.6Z"/><path class="cls-1" d="M46.29,46.41h1.6v6.37h-1.6v-.67a3,3,0,0,1-.93.64,2.7,2.7,0,0,1-1,.2,2.83,2.83,0,0,1-2.13-1,3.34,3.34,0,0,1-.9-2.38,3.42,3.42,0,0,1,.87-2.42,2.77,2.77,0,0,1,2.12-.94,2.72,2.72,0,0,1,1.07.21,2.9,2.9,0,0,1,.93.65Zm-1.68,1.31a1.63,1.63,0,0,0-1.23.53,1.86,1.86,0,0,0-.49,1.34,1.92,1.92,0,0,0,.5,1.36,1.59,1.59,0,0,0,1.23.53A1.65,1.65,0,0,0,45.87,51a1.92,1.92,0,0,0,.5-1.37,1.86,1.86,0,0,0-.5-1.35A1.65,1.65,0,0,0,44.61,47.72Z"/><path class="cls-1" d="M49.34,44h1.6v8.83h-1.6Z"/><path class="cls-1" d="M58.78,50.06H53.64a1.71,1.71,0,0,0,.59,1.08,1.84,1.84,0,0,0,1.23.4A2.18,2.18,0,0,0,57,50.92l1.34.63a3.18,3.18,0,0,1-1.2,1.06,3.92,3.92,0,0,1-1.67.34A3.32,3.32,0,0,1,53,52a3.21,3.21,0,0,1-.94-2.37A3.31,3.31,0,0,1,53,47.21a3.17,3.17,0,0,1,2.36-1,3.29,3.29,0,0,1,2.45,1,3.47,3.47,0,0,1,.94,2.55Zm-1.6-1.26a1.66,1.66,0,0,0-.63-.87,1.82,1.82,0,0,0-1.08-.33,1.93,1.93,0,0,0-1.18.37,2.18,2.18,0,0,0-.58.83Z"/><path class="cls-1" d="M64,47.3l-1,1a1.67,1.67,0,0,0-1.09-.6.71.71,0,0,0-.43.12.33.33,0,0,0-.15.28.33.33,0,0,0,.1.24,1.62,1.62,0,0,0,.48.29l.58.3a3.33,3.33,0,0,1,1.27.93,1.94,1.94,0,0,1-.27,2.53,2.41,2.41,0,0,1-1.68.57,2.63,2.63,0,0,1-2.22-1.09l1-1.07a2.41,2.41,0,0,0,.66.53,1.52,1.52,0,0,0,.67.2.81.81,0,0,0,.51-.15.43.43,0,0,0,.19-.35c0-.25-.23-.49-.69-.73L61.35,50c-1-.51-1.55-1.17-1.55-2a1.73,1.73,0,0,1,.58-1.29,2.12,2.12,0,0,1,1.5-.53,2.57,2.57,0,0,1,1.16.27A2.5,2.5,0,0,1,64,47.3Z"/><path class="cls-1" d="M15.59,21.92A13.52,13.52,0,0,1,15,16.45c1-1,2.45-1.22,3.71-1.74,1-.42,1.66-1,1.52-2.15A2.06,2.06,0,0,1,21,10.64c2.65-2,3.45-4.54,2.19-7.66A16.52,16.52,0,0,1,39,2.21c1.81,2.63,1.3,4.87-1.48,6.28a4.37,4.37,0,0,0-2.15,2.27c-.85,2-1.89,2.08-3.32.54-.89-1-1.14-.92-1.67.3-.9,2.05-1.78,4.2-.15,6.23a15.22,15.22,0,0,0,5.22,4.41,2.06,2.06,0,0,1,1.47,2.18A6.86,6.86,0,0,0,37,26.11c.14.67.37,1.31,1.14,1.49a2,2,0,0,0,2-.51,4.06,4.06,0,0,0,1.2-2.75A46.77,46.77,0,0,1,42.59,18c.12-.59.24-1.29,1-1.42s1,.46,1.32.9c1,1.34,1.15,1.35,2.64.49a1.53,1.53,0,0,1,1.28-.38c.2,9.17-7.69,16.88-17.15,16.72A11.38,11.38,0,0,1,28.32,34c-.14-.79.34-1.49.25-2.27a5.26,5.26,0,0,0-2.82-4.14c-.8-.46-1.7-.71-2.52-1.13a4.13,4.13,0,0,1-2.54-3.71c-.06-1.86-.58-2.12-2.33-1.54-.9.29-1.74.9-2.77.69"/><path class="cls-2" d="M48.81,17.61c-.23.13-.46.24-.67.38-2.26,1.56-2.25,1.57-3.79-.59-.21-.29-.36-.72-.8-.57s-.45.54-.51.88a59.82,59.82,0,0,0-1.28,6.77,4.2,4.2,0,0,1-1.46,3.11,2.1,2.1,0,0,1-3.58-1c-.33-1.11.15-2.37-.31-3.32s-2-.58-2.64-1.51c-1.16-1.63-3.29-2.24-4.2-4.2a4.93,4.93,0,0,1-.27-4.25c.2-.47.34-1,.52-1.44,1-2.48,1.08-2.5,2.71-.54.9,1.08,2,.93,2.4-.45a4,4,0,0,1,2.54-2.84C39.69,7.12,40,6.43,39.41,4c-.14-.6-.27-1.19-.41-1.79C44.2,4.5,47.22,8.56,48.52,14a9.87,9.87,0,0,1,.29,3.63"/><path class="cls-2" d="M15.59,21.92c1.14-.44,2.27-.92,3.42-1.32s2.14.1,2,1.39c-.18,2.64,1.23,3.86,3.5,4.68s4,2.11,4.39,4.65A3,3,0,0,1,28.31,34c-6.13-1.21-11.55-6.37-12.72-12.09"/><path class="cls-2" d="M23.1,2.93c1.65,2.46,1.48,4.5-.52,6.61-1,1.08-2.4,2-1.86,3.86.16.56-.43,1.13-1,1.37-1.52.6-3.05,1.17-4.58,1.75a16.19,16.19,0,0,1,8-13.59"/><circle class="cls-3" cx="32.16" cy="17.5" r="17"/></g></g></svg>